<mxfile host="drawio-plugin" modified="2025-09-13T12:51:49.035Z" agent="Mozilla/5.0 (Windows NT 10.0; Win64; x64) AppleWebKit/537.36 (KHTML, like Gecko) Chrome/122.0.0.0 Safari/537.36" etag="KjjWS5bAvkp4uyTVZT8y" version="22.1.22" type="embed">
  <diagram id="bff-aggregator-architecture" name="BFF Aggregator Architecture (Executive)">
    <mxGraphModel dx="3506" dy="608" grid="1" gridSize="10" guides="1" tooltips="1" connect="1" arrows="1" fold="1" page="1" pageScale="1" pageWidth="1920" pageHeight="1080" math="0" shadow="0">
      <root>
        <mxCell id="0" />
        <mxCell id="1" parent="0" />
        <mxCell id="observe" value="Observe&lt;br&gt;&amp;nbsp;(Metrics, Events, Alerts)" style="rounded=1;whiteSpace=wrap;html=1;fillColor=#16A34A;fontColor=#FFFFFF;strokeColor=#15803D;fontSize=14;" parent="1" vertex="1">
          <mxGeometry x="-462" y="220" width="160" height="50" as="geometry" />
        </mxCell>
        <mxCell id="4" value="" style="html=1;verticalLabelPosition=bottom;align=center;labelBackgroundColor=#ffffff;verticalAlign=top;strokeWidth=2;strokeColor=#0080F0;shadow=0;dashed=0;shape=mxgraph.ios7.icons.user;" parent="1" vertex="1">
          <mxGeometry x="-1527" y="509.5" width="30" height="30" as="geometry" />
        </mxCell>
        <mxCell id="17" value="AWS Lambda" style="rounded=1;whiteSpace=wrap;html=1;fillColor=#1E3A8A;fontColor=#FFFFFF;strokeColor=#1E3A8A;fontSize=9;" parent="1" vertex="1">
          <mxGeometry x="-1020" y="404" width="78" height="20" as="geometry" />
        </mxCell>
        <mxCell id="18" value="" style="verticalLabelPosition=bottom;html=1;verticalAlign=top;align=center;strokeColor=none;fillColor=#00BEF2;shape=mxgraph.azure.computer;pointerEvents=1;" parent="1" vertex="1">
          <mxGeometry x="-1488" y="504" width="50" height="45" as="geometry" />
        </mxCell>
        <mxCell id="27" style="edgeStyle=orthogonalEdgeStyle;rounded=0;orthogonalLoop=1;jettySize=auto;html=1;" parent="1" source="21" edge="1">
          <mxGeometry relative="1" as="geometry">
            <mxPoint x="-1620" y="401" as="targetPoint" />
          </mxGeometry>
        </mxCell>
        <mxCell id="95" value="PingId" style="edgeLabel;html=1;align=center;verticalAlign=middle;resizable=0;points=[];" parent="27" vertex="1" connectable="0">
          <mxGeometry x="0.5046" y="2" relative="1" as="geometry">
            <mxPoint as="offset" />
          </mxGeometry>
        </mxCell>
        <mxCell id="37" style="edgeStyle=orthogonalEdgeStyle;rounded=0;orthogonalLoop=1;jettySize=auto;html=1;entryX=0;entryY=0.5;entryDx=0;entryDy=0;entryPerimeter=0;" parent="1" source="21" target="35" edge="1">
          <mxGeometry relative="1" as="geometry">
            <mxPoint x="-1260" y="501" as="targetPoint" />
          </mxGeometry>
        </mxCell>
        <mxCell id="92" value="GrapQL queries / mutations" style="edgeLabel;html=1;align=center;verticalAlign=middle;resizable=0;points=[];" parent="37" vertex="1" connectable="0">
          <mxGeometry x="-0.3591" y="4" relative="1" as="geometry">
            <mxPoint x="37" y="-16" as="offset" />
          </mxGeometry>
        </mxCell>
        <mxCell id="21" value="" style="whiteSpace=wrap;html=1;aspect=fixed;fillColor=none;" parent="1" vertex="1">
          <mxGeometry x="-1537" y="482" width="117" height="117" as="geometry" />
        </mxCell>
        <mxCell id="22" value="Client" style="rounded=1;whiteSpace=wrap;html=1;fillColor=#1E3A8A;fontColor=#FFFFFF;strokeColor=#1E3A8A;fontSize=9;" parent="1" vertex="1">
          <mxGeometry x="-1517" y="566" width="71.5" height="20" as="geometry" />
        </mxCell>
        <mxCell id="24" value="" style="shape=image;verticalLabelPosition=bottom;labelBackgroundColor=default;verticalAlign=top;aspect=fixed;imageAspect=0;image=data:image/png,iVBORw0KGgoAAAANSUhEUgAAAC8AAAAoCAYAAABuIqMUAAACxUlEQVRYCe2Yv0odQRTGbXyG9DamSeMTmMLSB0jA1PYWgl2wE0FIkzKVpLIyhRiIokUgVgqi6dKlTPIEG34Xvst3x5n17D9W0eJw5u7MnP2d78zMDnfuz99/1WO1uccKDvcz/FjV6035tfWNKmpb27u97LPe4OdfLFZRW1590x/8weFRhRpt7Or6dgIi8IWl5apkGiN45rZ5J3OYO1H+/c6HsGoCkP/4aX8GXr9z+wBo5gn+y/FJ6/cyt3d4qYIyqQ0KT7lzikWeqRIRL+UjcX0MYij+HeWfLDxrPWqo5opG24MpHwXoMi4M/2Njszp8+aqz/b752UrlXJKjwpfO/7rnfLWVSCv4y929qol51aS8v1gnRsR3gv/6emWauRS43f9cAUgfXoDq//XtdLrc1Ad89O7j4/yj5wLUHpUCRHFB4R1Me4IkBJmO8ecep007DF8KLmAUJ0HAeeZJeoIPEl5QQANPMkq4BM+Xtalx3VBclGe56Dsxc7fxLywAKItpMsBSHmh+n719F4L3kkc2qsb4hhWHfBEeJQFNNyzJKAH3qgSBc8oD31R1xrvygpZvDA8kqpOUDFgFLMF7f9c2DIjYGF5wJIARxFVXv6qS9vUBrqXaCB4QTRQcngqQiMByy4Y+P79LbT/XFU8+fX8YnokOnGuTGC/KwUc3bGmNp+CIFYZHXQFLZQICqs1NP30l+Lo7jPpy8Cm4juUQvJ8wAlcp8QRXcvgcvI9v0i6BEyMELzCUZWnkzMd4m5c3gfWxdeAheC2Vtr4O/r4+Pxy0VDy5ovIsFSZ0tRKgVM1BAXgfeK3ynuEQbaBVzTSBCPio8FI+TSAKfgdel6EhPfcVVTJNQIng02pojvuZNT8ktGI7PCC5BCLgzJ3An3+/CP/nEv1vpjROd3FX0BOIgk/hPdBYbRLIfQDreCbK1w14yH3P8GNV5z8gFGMFhjT7uAAAAABJRU5ErkJggg==;" parent="1" vertex="1">
          <mxGeometry x="-1660" y="303.34000000000003" width="79.5" height="67.66" as="geometry" />
        </mxCell>
        <mxCell id="26" value="Identity Verification" style="rounded=1;whiteSpace=wrap;html=1;fillColor=#1E3A8A;fontColor=#FFFFFF;strokeColor=#1E3A8A;fontSize=9;" parent="1" vertex="1">
          <mxGeometry x="-1660" y="378" width="80" height="20" as="geometry" />
        </mxCell>
        <mxCell id="28" value="" style="sketch=0;points=[[0,0,0],[0.25,0,0],[0.5,0,0],[0.75,0,0],[1,0,0],[0,1,0],[0.25,1,0],[0.5,1,0],[0.75,1,0],[1,1,0],[0,0.25,0],[0,0.5,0],[0,0.75,0],[1,0.25,0],[1,0.5,0],[1,0.75,0]];outlineConnect=0;fontColor=#232F3E;fillColor=#8C4FFF;strokeColor=#ffffff;dashed=0;verticalLabelPosition=bottom;verticalAlign=top;align=center;html=1;fontSize=12;fontStyle=0;aspect=fixed;shape=mxgraph.aws4.resourceIcon;resIcon=mxgraph.aws4.cloudfront;" parent="1" vertex="1">
          <mxGeometry x="-1340" y="221" width="78" height="78" as="geometry" />
        </mxCell>
        <mxCell id="29" value="Amazon CloudFront" style="rounded=1;whiteSpace=wrap;html=1;fillColor=#1E3A8A;fontColor=#FFFFFF;strokeColor=#1E3A8A;fontSize=9;" parent="1" vertex="1">
          <mxGeometry x="-1341" y="305" width="80" height="20" as="geometry" />
        </mxCell>
        <mxCell id="31" value="" style="sketch=0;points=[[0,0,0],[0.25,0,0],[0.5,0,0],[0.75,0,0],[1,0,0],[0,1,0],[0.25,1,0],[0.5,1,0],[0.75,1,0],[1,1,0],[0,0.25,0],[0,0.5,0],[0,0.75,0],[1,0.25,0],[1,0.5,0],[1,0.75,0]];outlineConnect=0;fontColor=#232F3E;fillColor=#7AA116;strokeColor=#ffffff;dashed=0;verticalLabelPosition=bottom;verticalAlign=top;align=center;html=1;fontSize=12;fontStyle=0;aspect=fixed;shape=mxgraph.aws4.resourceIcon;resIcon=mxgraph.aws4.s3;" parent="1" vertex="1">
          <mxGeometry x="-1142" y="221" width="78" height="78" as="geometry" />
        </mxCell>
        <mxCell id="32" value="Amazon S3" style="rounded=1;whiteSpace=wrap;html=1;fillColor=#1E3A8A;fontColor=#FFFFFF;strokeColor=#1E3A8A;fontSize=9;" parent="1" vertex="1">
          <mxGeometry x="-1143.75" y="305" width="81.75" height="20" as="geometry" />
        </mxCell>
        <mxCell id="34" style="edgeStyle=orthogonalEdgeStyle;rounded=0;orthogonalLoop=1;jettySize=auto;html=1;entryX=1;entryY=0.5;entryDx=0;entryDy=0;entryPerimeter=0;" parent="1" source="31" target="28" edge="1">
          <mxGeometry relative="1" as="geometry" />
        </mxCell>
        <mxCell id="91" value="Static assets" style="edgeLabel;html=1;align=center;verticalAlign=middle;resizable=0;points=[];" parent="34" vertex="1" connectable="0">
          <mxGeometry x="-0.0167" y="-1" relative="1" as="geometry">
            <mxPoint as="offset" />
          </mxGeometry>
        </mxCell>
        <mxCell id="35" value="" style="sketch=0;points=[[0,0,0],[0.25,0,0],[0.5,0,0],[0.75,0,0],[1,0,0],[0,1,0],[0.25,1,0],[0.5,1,0],[0.75,1,0],[1,1,0],[0,0.25,0],[0,0.5,0],[0,0.75,0],[1,0.25,0],[1,0.5,0],[1,0.75,0]];outlineConnect=0;fontColor=#232F3E;fillColor=#E7157B;strokeColor=#ffffff;dashed=0;verticalLabelPosition=bottom;verticalAlign=top;align=center;html=1;fontSize=12;fontStyle=0;aspect=fixed;shape=mxgraph.aws4.resourceIcon;resIcon=mxgraph.aws4.appsync;" parent="1" vertex="1">
          <mxGeometry x="-1232" y="461" width="78" height="78" as="geometry" />
        </mxCell>
        <mxCell id="50" style="edgeStyle=orthogonalEdgeStyle;rounded=0;orthogonalLoop=1;jettySize=auto;html=1;exitX=0.25;exitY=0;exitDx=0;exitDy=0;" parent="1" source="17" target="43" edge="1">
          <mxGeometry relative="1" as="geometry">
            <mxPoint x="-980" y="391" as="sourcePoint" />
            <Array as="points">
              <mxPoint x="-1001" y="261" />
            </Array>
          </mxGeometry>
        </mxCell>
        <mxCell id="94" value="OTEL traces + CW logs/metrics" style="edgeLabel;html=1;align=center;verticalAlign=middle;resizable=0;points=[];" parent="50" vertex="1" connectable="0">
          <mxGeometry x="0.2833" y="1" relative="1" as="geometry">
            <mxPoint x="28" y="45" as="offset" />
          </mxGeometry>
        </mxCell>
        <mxCell id="36" value="" style="sketch=0;points=[[0,0,0],[0.25,0,0],[0.5,0,0],[0.75,0,0],[1,0,0],[0,1,0],[0.25,1,0],[0.5,1,0],[0.75,1,0],[1,1,0],[0,0.25,0],[0,0.5,0],[0,0.75,0],[1,0.25,0],[1,0.5,0],[1,0.75,0]];outlineConnect=0;fontColor=#232F3E;fillColor=#ED7100;strokeColor=#ffffff;dashed=0;verticalLabelPosition=bottom;verticalAlign=top;align=center;html=1;fontSize=12;fontStyle=0;aspect=fixed;shape=mxgraph.aws4.resourceIcon;resIcon=mxgraph.aws4.lambda;" parent="1" vertex="1">
          <mxGeometry x="-1020" y="461" width="78" height="78" as="geometry" />
        </mxCell>
        <mxCell id="38" value="AWS AppSync" style="rounded=1;whiteSpace=wrap;html=1;fillColor=#1E3A8A;fontColor=#FFFFFF;strokeColor=#1E3A8A;fontSize=9;" parent="1" vertex="1">
          <mxGeometry x="-1235.75" y="545" width="81.75" height="20" as="geometry" />
        </mxCell>
        <mxCell id="40" value="Aggregator BFF" style="rounded=1;whiteSpace=wrap;html=1;fillColor=#1E3A8A;fontColor=#FFFFFF;strokeColor=#1E3A8A;fontSize=9;" parent="1" vertex="1">
          <mxGeometry x="-1020" y="433" width="78" height="20" as="geometry" />
        </mxCell>
        <mxCell id="41" value="Observa Platform Dashboard — BFF Aggregator (Executive Architecture)" style="rounded=1;whiteSpace=wrap;html=1;fillColor=#001B44;fontColor=#FFFFFF;strokeColor=#001B44;fontSize=20;align=center;verticalAlign=middle;" parent="1" vertex="1">
          <mxGeometry x="-1725" y="20" width="1530" height="60" as="geometry" />
        </mxCell>
        <mxCell id="43" value="" style="sketch=0;outlineConnect=0;fontColor=#232F3E;gradientColor=none;fillColor=#E7157B;strokeColor=none;dashed=0;verticalLabelPosition=bottom;verticalAlign=top;align=center;html=1;fontSize=12;fontStyle=0;aspect=fixed;pointerEvents=1;shape=mxgraph.aws4.cloudwatch_metrics_insights;" parent="1" vertex="1">
          <mxGeometry x="-900" y="221" width="79.42" height="80.45" as="geometry" />
        </mxCell>
        <mxCell id="45" value="HTTPS" style="edgeStyle=orthogonalEdgeStyle;rounded=0;orthogonalLoop=1;jettySize=auto;html=1;entryX=0;entryY=0.5;entryDx=0;entryDy=0;entryPerimeter=0;" parent="1" source="21" target="28" edge="1">
          <mxGeometry relative="1" as="geometry">
            <Array as="points">
              <mxPoint x="-1478" y="260" />
            </Array>
          </mxGeometry>
        </mxCell>
        <mxCell id="46" value="CloudWatch + OpenTelemetry (Traces, Logs, Metrics)" style="rounded=1;whiteSpace=wrap;html=1;fillColor=#1E3A8A;fontColor=#FFFFFF;strokeColor=#1E3A8A;fontSize=9;" parent="1" vertex="1">
          <mxGeometry x="-901" y="151" width="80" height="64.5" as="geometry" />
        </mxCell>
        <mxCell id="52" style="edgeStyle=orthogonalEdgeStyle;rounded=0;orthogonalLoop=1;jettySize=auto;html=1;entryX=0.25;entryY=1;entryDx=0;entryDy=0;entryPerimeter=0;" parent="1" source="51" target="36" edge="1">
          <mxGeometry relative="1" as="geometry">
            <mxPoint x="-980" y="541" as="targetPoint" />
          </mxGeometry>
        </mxCell>
        <mxCell id="96" value="Tokens" style="edgeLabel;html=1;align=center;verticalAlign=middle;resizable=0;points=[];" parent="52" vertex="1" connectable="0">
          <mxGeometry x="0.3528" y="1" relative="1" as="geometry">
            <mxPoint x="1" as="offset" />
          </mxGeometry>
        </mxCell>
        <mxCell id="51" value="" style="sketch=0;points=[[0,0,0],[0.25,0,0],[0.5,0,0],[0.75,0,0],[1,0,0],[0,1,0],[0.25,1,0],[0.5,1,0],[0.75,1,0],[1,1,0],[0,0.25,0],[0,0.5,0],[0,0.75,0],[1,0.25,0],[1,0.5,0],[1,0.75,0]];outlineConnect=0;fontColor=#232F3E;fillColor=#DD344C;strokeColor=#ffffff;dashed=0;verticalLabelPosition=bottom;verticalAlign=top;align=center;html=1;fontSize=12;fontStyle=0;aspect=fixed;shape=mxgraph.aws4.resourceIcon;resIcon=mxgraph.aws4.secrets_manager;" parent="1" vertex="1">
          <mxGeometry x="-900" y="622" width="78" height="78" as="geometry" />
        </mxCell>
        <mxCell id="53" value="AWS Secrets Manager&lt;br&gt;(Tokens)" style="rounded=1;whiteSpace=wrap;html=1;fillColor=#1E3A8A;fontColor=#FFFFFF;strokeColor=#1E3A8A;fontSize=9;" parent="1" vertex="1">
          <mxGeometry x="-900" y="706" width="78" height="65" as="geometry" />
        </mxCell>
        <mxCell id="63" style="edgeStyle=orthogonalEdgeStyle;rounded=0;orthogonalLoop=1;jettySize=auto;html=1;" parent="1" source="61" edge="1">
          <mxGeometry relative="1" as="geometry">
            <mxPoint x="-980" y="539" as="targetPoint" />
            <Array as="points">
              <mxPoint x="-741" y="581" />
              <mxPoint x="-980" y="581" />
              <mxPoint x="-980" y="539" />
            </Array>
          </mxGeometry>
        </mxCell>
        <mxCell id="97" value="App Config" style="edgeLabel;html=1;align=center;verticalAlign=middle;resizable=0;points=[];" parent="63" vertex="1" connectable="0">
          <mxGeometry x="0.0373" y="-1" relative="1" as="geometry">
            <mxPoint as="offset" />
          </mxGeometry>
        </mxCell>
        <mxCell id="61" value="" style="sketch=0;points=[[0,0,0],[0.25,0,0],[0.5,0,0],[0.75,0,0],[1,0,0],[0,1,0],[0.25,1,0],[0.5,1,0],[0.75,1,0],[1,1,0],[0,0.25,0],[0,0.5,0],[0,0.75,0],[1,0.25,0],[1,0.5,0],[1,0.75,0]];points=[[0,0,0],[0.25,0,0],[0.5,0,0],[0.75,0,0],[1,0,0],[0,1,0],[0.25,1,0],[0.5,1,0],[0.75,1,0],[1,1,0],[0,0.25,0],[0,0.5,0],[0,0.75,0],[1,0.25,0],[1,0.5,0],[1,0.75,0]];outlineConnect=0;fontColor=#232F3E;fillColor=#E7157B;strokeColor=#ffffff;dashed=0;verticalLabelPosition=bottom;verticalAlign=top;align=center;html=1;fontSize=12;fontStyle=0;aspect=fixed;shape=mxgraph.aws4.resourceIcon;resIcon=mxgraph.aws4.app_config;" parent="1" vertex="1">
          <mxGeometry x="-780" y="622" width="78" height="78" as="geometry" />
        </mxCell>
        <mxCell id="62" value="AWS AppConfig&lt;br&gt;&lt;br&gt;(Threshold, Flags, Staleness)" style="rounded=1;whiteSpace=wrap;html=1;fillColor=#1E3A8A;fontColor=#FFFFFF;strokeColor=#1E3A8A;fontSize=9;" parent="1" vertex="1">
          <mxGeometry x="-780" y="706" width="80" height="65" as="geometry" />
        </mxCell>
        <mxCell id="69" style="edgeStyle=orthogonalEdgeStyle;rounded=0;orthogonalLoop=1;jettySize=auto;html=1;entryX=0.75;entryY=0;entryDx=0;entryDy=0;" parent="1" source="66" target="17" edge="1">
          <mxGeometry relative="1" as="geometry">
            <Array as="points">
              <mxPoint x="-739" y="341" />
              <mxPoint x="-962" y="341" />
            </Array>
          </mxGeometry>
        </mxCell>
        <mxCell id="98" value="Fast cache data" style="edgeLabel;html=1;align=center;verticalAlign=middle;resizable=0;points=[];" parent="69" vertex="1" connectable="0">
          <mxGeometry x="-0.0138" y="-2" relative="1" as="geometry">
            <mxPoint as="offset" />
          </mxGeometry>
        </mxCell>
        <mxCell id="66" value="" style="sketch=0;points=[[0,0,0],[0.25,0,0],[0.5,0,0],[0.75,0,0],[1,0,0],[0,1,0],[0.25,1,0],[0.5,1,0],[0.75,1,0],[1,1,0],[0,0.25,0],[0,0.5,0],[0,0.75,0],[1,0.25,0],[1,0.5,0],[1,0.75,0]];outlineConnect=0;fontColor=#232F3E;fillColor=#C925D1;strokeColor=#ffffff;dashed=0;verticalLabelPosition=bottom;verticalAlign=top;align=center;html=1;fontSize=12;fontStyle=0;aspect=fixed;shape=mxgraph.aws4.resourceIcon;resIcon=mxgraph.aws4.elasticache;" parent="1" vertex="1">
          <mxGeometry x="-778" y="222" width="78" height="78" as="geometry" />
        </mxCell>
        <mxCell id="67" value="Amazon ElasticCache" style="rounded=1;whiteSpace=wrap;html=1;fillColor=#1E3A8A;fontColor=#FFFFFF;strokeColor=#1E3A8A;fontSize=9;" parent="1" vertex="1">
          <mxGeometry x="-781.75" y="171" width="81.75" height="44" as="geometry" />
        </mxCell>
        <mxCell id="70" value="" style="shape=image;verticalLabelPosition=bottom;labelBackgroundColor=default;verticalAlign=top;aspect=fixed;imageAspect=0;image=data:image/png,iVBORw0KGgoAAAANSUhEUgAAAKAAAAA6CAYAAAA3MlIIAAAHMElEQVR4Ae2bvW4sRRCF90m4D4L8IFfyI5ATWOIZCEicQkyCBHJKRoBE5oCMFInwxos+S0c6KnX1z6y9sx5XMOru6epTp6pO1+yVrk9fvvx3rqdysJcGTns5Lr8lejRQAqwvwK5fwBJgCbAEWJ/jj/s5rg5YHbA6YHXA6oC73oISYAlwswCf//37/PDnT+f7378/3/323fnTz9+cTz9+fhmZ8449bJ7++WOznxLpMUW66TegRIfQVh9EiSBLjMcU1GqjWBIgwqOjrYous0eIYK6SLvvjiHdKgIgEsWRCuuQ9HZHPc4nqOKJaqeVQgIhvRmDx9x6C5ZntmJyvbvjxRNgV4OPzr13xqXuNfs8hLB46HWcyQQtv5QaV7fsWbVeACKYlFoSCOLcUHyFyNhPiVtwtXOrM/uLtCpACRRG+1u81dUQXeIlvf0Fc+1IOBSgR0rFGn9ot5MGsT+/HE560MiVAGb/VSDd8K+zCvW1x34QASyS3LZK3rE8JsP43zK5fn1cT4PPzX+eHh29fnru7r8/3959f5o+PPywH6FjCZASL5+npl2VMbrHjwm8Wy885n9E86xz4bZ0VH/xlZ/WeHDjGzBnOzpzL+Lm/ON9ak4sFqOKcTqdz9nz69NVLspS80UgwGZber2COOIKFILMizvARLx+zOLmgbteaY5PxAZc9P4d95s/fR9++pzm5cOyZOWd0fmW8SICrhaHQvaSK+AruTOAx6VlC4ScOPq7wcWzH8PkKHzqNn/W542Tc3T7GkWG/CwHSpj3ZzNVJCIwgWoFgQyI8MXEeEyUsT7j77uFFDviHH/x5fJ915MI64yNe2djC4p3HwdzPe1zKaRZf5JXxFw+PFeysGbidauocW/ORb3GI46YOGAOHZEaAICm4Jxb7SMTXjh9twcOX42U3GcwZO3F0Dj53PuD53pa5CzDmrRUf9i0/2DpWzFU8w77ygYjivtYuwF5uZX/JuEmAHghzCjQiEUXYS4AXPEuqJz4rEJyUcEYKNuLZ2nc+by1A+XcRZDnANl7GrBazdmC675sT4EogSqZGF2EvqV7wzM6TlIkZwbkAs+KIXzY6n2sJMPrMLk+MMcuF56t3YcmB296cABGEipoFmxUyJisThCc/E6DziJ8x+Y/+OJMVUmdao/O5lgDjRe/x9q9Bli/VjDHLl2K/aQF6IJmAFEhr9OCym+gFbyU0dtJecdwf3MHjfO9M5O18wIj7q2sXTCaGyLvnI/KLmFHMPSz23PdNdcAY6CiQ1r4noyUuzrgfbCiYHr8A7GHb8qN3CM0LrvMrQnQ+EjHne4/8t0bnE8WCPZzBFlcE0cLxd47JPNubwXIB9mLU3iUiXfpHiIuH5HiQs/NYzNa5aKNCxHE2cAqKbTzPmiSOcGb5CB/MVlx652LBN/h6WHNeWIwtkQpLY6wNeOxF7jOd3wXoPLL5KH/i2BqXBOjBjJLccsY7T1SG4X6yoPWeYs4kFd89IfY6wwofeGVxKScuQMWRjbGbCSOOxOYYisfFNIvlZxwzm19NgDHI2cJ7slyAWUJiwTmjh+TEAo4K7v6ZZ0LER7RlHfmw7j2jvET+WWGz/LQ48s6Fo5wwCj+LL+I5DvNerOyN4o34vl7qgDhSMIxblO/JJzgnozlByY8SqT2NkctscnWeEQwvUFZw5wMvx9gy9xzgX49i1ojfFfyYExfSCm8/t6XGK5yXBAhwTN6Ks1jILMFulwkwcsnEM+I348ttVgqZ+fYc+sWJF6IX+wy2hMy4IqSbFmAsRtbFWgnyxPcE4z56RfBErfBwbu6LQiEC32cebeL+6trz4AIEh/VW4bS4CqsVV8bb87oi3Ayv9365AwLmCZy5XQQfz1DUjJgXvCdA9pTgLFGxwNFnLHjcZ+188NeyWXnnuWjx831iXBFPK9erl/PmBUiQXnyKwjqKADveSSQaRwnxgoPrxQWTfS8SuK1CSlxgcCbiaH/Ey/lgC4eZx/353Lm3eIMtToyjfDk28xhXjD3ax7ULkPlMrNhEnJn1pg4IMA6jCJW07D37rYRHorHgws1GChoxWEcerHlcAI6ZFWqVjzCzWN1/ZnOJiFzAxNvKTe+dC1CxzIw9zGxvswABJNBWh8vIZgWO5FYKnolP3KIIM26ZEOC2wsfxM8wZAcLf7VaFpLMZh5hzX78bAYo0ycpIk7j4ada5bBwVHEx9GjIMvZcQVRAXCHNwRhdjxCdiap0V37lkNvCHu7DEVXGNRnEe2bX2s1o6l9a8hTV6d1EHbIGTNIIfFbV19hrvxI/xGv729NET95683PerC9DBa/5x/953tvYlwPq74F2/BCXAEmAJcLZdl93xPunVAasDVgeszna8zjZb0+qA1QGrA87elrI7XqesDlgdsDpgdbbjdbbZmlYHrA5YHXD2tpTd8TpldcDqgNUBq7Mdr7PN1rQ6YHXA6oCzt6Xsjtcp/wclMzYbB6SEcwAAAABJRU5ErkJggg==;" parent="1" vertex="1">
          <mxGeometry x="-462" y="154" width="160.01" height="58" as="geometry" />
        </mxCell>
        <mxCell id="72" value="" style="shape=image;verticalLabelPosition=bottom;labelBackgroundColor=default;verticalAlign=top;aspect=fixed;imageAspect=0;image=data:image/png,iVBORw0KGgoAAAANSUhEUgAAANcAAADRCAYAAABfJCeoAAAgAElEQVR4Aey9Z5gd1ZUu7J/65l7PGJDU8cROylKHUyd1txJJIojUUqtzTpIAgzx4xsz4GhvsGXucsH3H+fpOMI5gbGyTjD04jQ0GMRgzGIOMUOjuE+pUPvH97rurd/dBRngYP5KMQc+zVNVVu3btU7XeWmuvvcKb/IF6vP/9/wDTNKGqKpLJpCDu81ihUAD/FYtFOI4DTdOQSqVEm3Q6DcMwkM1mUSqVRDv+l8/nF/tjW7Yr70v2x+t4vbzv/Pw8crmc6Iv35XnLsqDrumiTVlWk0yo0XUcun0cJJRRLRWRzDgxDQzqdRDI1L7aarsJxLBSLOY5IUCFnQk2ewNzxF2BkknAsDbquwrB05EsFZIt5qIYOzbaRsR2kLRvHUmkcmUvguJrF00d0/PCxw7j7oUN438fuwNZdY6hojKFyzRYElcsQUHYhGLkajR3dWL21H6u29KOuvQe+SDdqlb2oVXoEeZReeBb2ecwb7oMv0n8K6oM/OgB/+flw3+I1vJZ9sU/ZD9sH44MIxocQbB9EoL0fwY5+NGwewOptQ1i9dQBNHd2oj16F5U2b8WZvCKsjl2Ps4HvxsX+6B9/8wRN4/NkkjqVzSKoGZhMqEmkNiXQG6YwBO1eAaWfh5PLIF4soFAtIpZOYmz/hPk8jg1RqDiXkUCzlkC84cLIWTFMH34uqppFWU2JrWiYKRfddFopF2I6DjKYhkUgIIu+Q58gL5EH+I6+RxyTvkMfIQ+QV2eaVeIxtZB8n8xj7kXzNe7Ad27Md+ZD34ti4zWQysG0bH/jAB0EcnUxvuuntfy0GxYHyR/ACEjvihQQUb0KmJ0Ako7Mt/2ab8nYcCNvKwbAv9s22si/ZH9vwWp5nO/4wtpHHeQ3P8Z5ym9EzMG0TdtZGNu8gV3Bg2rp4qZqWhpZJwTJUOJaKrJ1BzsmgmNeBoiGo4KiwjQQcKw3LUqGbKgzHgFMqwCoUoeWLSDtFHJ5X8czxFB59+re48/4f4v2f/jqumboFNc2X4M/8MSxfcyEqNl6G2tDVWLN9FL5YL3ztA/B3DsPTPoiqaD8qIv2oivPvEfgiBMgAAlEy/TDq2kdQ3z6Cho5ReJV+VLftRW2oB16FYBpEMDbktuH5MIE3AF+4X5yvVXpR1dqNiubd4H7Tlgk0do6hvn0UgdiQaM/jNaEe+DrH4dk6herOMVR3jKK6YwTV7UOoivSiQtkjxuyL9aGufQCe0G78ef0FOG/VDkQuvxYH3/0pfPnuh/DTx3+NIwkLs2oWRxM60kYOmlPEvJqBqmmwshYsR0dGT0JVZ6HrCdhWWjz3Qk4T74DvwzZV8W5MU10EoeUQrBZyBYLVgU4AGprgBfKD5B0Ch7xC3uKHl1vyCnmDvCjb/Vd4jNfK69mv5DP2IflM8rRsyzaS9zku7vOYHNfb/+odvwsuIlAChUzNgZP5uU8q74Tt2BlvyHYEEttyQLyhvCnb8Dx/qHwgPCYfBNuxL3mObeV92Y798TyJ1/AY+8rls+JFZgsONEtDxlRhOroLEFNFLmegWLCAooVSwUDWSkPny1ZPwNLmYesJFLMaULSRz1uiv3ypBKcEZJwiTqhZ/OLpI/jRocO4+/uP4z23/ws6d43g3KCC81Ztg0fZjUCsF4F4H7zRXtRGelEjqF8AqDIyiHNbe/CW1r1YrgyiunMS/guuQ932/ahV+l2QhAmyQQEgAoFUFx8RQCLgTiYCpqaNkskFnWxLgPJago4gqg31CqCxHcFKQHrDA1gZHkRF5yS8F1yLmm37cG54EH/e2ouK+BjqL7wWldFh+Don4YmPo0oZhCcygmD7BGqVISxv2oGKYByxC/tx8J0fxz/f+W/4t0d/g2de1PDcsQwyNmDmAM1yoJkGLNtELm+hVHJQKljImik4RhKWnhDkmCnkHBWFvCHeVS5vwskZyBgqDFuDYetQdb5THncWeYz8xo8vJYrkHfIEeY88JPlIAkB+qMk78tzJPCbbsg35Tbbjvcj33PK4PMd2vIbneF8pRHic46LGt2Xr+S8B2JukSGUn7JBiUIpC/l0OGg6anbNjtuE/Dpo3YOdSVBIUEng8z7Z8GOxLDoR98QfJ8/K+vFa2kw+SwBL3pKJRyiGHLNJ6Ggl1DhkjLb6Ylq2iWLIBEmwhpfhytdQxaMmjsNQ5WJkUClkLhXwWpmWDSkauBByZ0/HQT3+Jf7nr3/A37/8CLui6FiuatqFi7cVoivegLkyVrhue2ACCm8cQ3DwOb/soamPDqIkNoyo2gur4GCpjY6ggtU+gsmMalZ0zqOjch6r4OGoVV/IIqRQfRkPHGJo2j2PVlgkBEgGKBQnFNoGoCzyCiODheYKJYCMFY8MCpL4w+30pYKVkDLaPoiI2gnOiYzgvNo5zo2M4JzKKcyOjOC8yjpXRCbyldQgrwxNYqUxgeesoqqMzCG55K2pj++BRhtEUHkBDWzd8G65ERf12rIt2Yd9NH8Y/3/kwfvL4Ybwwa8LKA1YOMO08nGzO/TjbBkx1DqZ6AoZ6AmZmDo6VQjGvifdTggOSk9ORUueQ1pJQDRVpPQWnYCNfcFUy8hiZmbzAaQP5jPvk13Ie4z6P8Rz5UAoNyTvs52QeY1vyIa8jX8vzsl+eJ7+Sv8v5lecl75NfqSZyXHd86cu/Cy52wEYnD4R/c5C8WA6kHLnyBrw527EN9yW45GC5JZB4H7aTAy4HKttw0OyDAy0HK8ch+kIReWQXwJXCXHoW6UwCifQsMnwpOQN5Si5khQSjGqKpCejqPGxNhaVbKBWBLL+2BjCfLuKhH/0K7/mHL6B79GasVq5B5eodqFp3BfyhXjTGJ1Afm0BdbBKB2Cg8VOvaR9GwdQrBTn7p+1EdHkBwyxS8HePwdU7Bv3UG3s3TqI6PY2V4BOeFhlChDMAfG0Yg+vLkjwy50owSrYx84UGQKJUojQKxYQEsArO+fUxIPAGy6BD8BKPsPzYswBeIjWCF0odzlH6siA5jRWQI54T6cS6lavskgudfj6roJFa0jeC85mFUKhPwt1+LYOf18MUPwKNMwrNpBHWhcayOTaNBGYZ3Qxc8a3ehqvFC7Oy6Hjff+hncfe8v8PRzaWgWYGWBbB6w7SI0NQVLS8PS0zD1FGxLRbFoo0DNoWCLOZmV1TGbPC7eZZLvUp1HtuhqKZKJCS4yN/lQ8ir5jOfLeYwfcMlj5KOTQVPOY+RD8pjkRSlYBGr40c3lxDnJ++yPfMixUCCU877kVfJ9ufR6E09IUMgbcBDsgIDguXJA8Abl0ob7ElwcKB8Cf6Tsi4Ngf/yb7diGJMFc3hfb8nreT96z/ItRKOWRLdrIwYFqUHLNiy8dJZiaSYL6O3X3Eqhm5qBpGaT4+zguVUNi3oaTBZ59TsOXvvow3vGuT2P7pdOoabwI1asuRaMygHplBEEymTINn3IAXuVaeJTr4A1PwBcZ/B3yRgfh0hC80WF4osOoFTSC2qhL3ijnXATQmSXeszY2iOq4SzWxQdTEhoS0rYmNoCY6itroOGojE6iNTMITmYI3LMn9/f7QDQiE3opA6DoEQ/tRF5pGQ2gcTaEheNZcieD6KxDq6EPf2P/C7Z/8Jn722DGoJmDYQCqhIus4cGxbGDNoYCoUc7CzFuycKT6Vdt4CQTWvzon3yXfpFC3wXUvgkKHJL5InuE/e5HHZhkDjx5rnJI+R38o/4AIRwCJPsz/yt+yPvMh+SORzyYuSX0++J9sTwPJ+bH/rre9dlF5voh5JIiB48csRz73SeV4j23DLgUnij5P7su/ytvKY3HIsHHD5uOS9acjgPMsp2tAdHaqZgZm3YeZsaJaJjGVBs7KCVMNBQjUxr1rImAWoWgmPHjqOz/7T9zE283fYoHRhhWcL6jd1IbRtBus7plCvjCGoTMKvzCwA63p4lLeiVrkBvvAkApRcJxGNFEvkSp4lEHJO5JI/QjXuzJIvMgxvdACeWB+8pCipXxzjcX4U2MYXIfhH4QtLGoMvPA6fsh++0EH4QjeCIPOHrkMgdAB1oRk0hCZQ3zqMNeERNLbuRU3TpahuuAg7rzmIf/j4t/DtB3+JF45rSGeyUI0CMmYeZrYI3ckjrZtIZThnNmEXsrAKfJ8GjKwBK2/CcDQxf5M8IbeSb/i35Cny18k8JttJvpHXy205j/2+tvK8vPbltrINtw899P0lcBGlRCAHS6aWkopbdlSOZkofdkCESrQS9VJK8SvC/vg3fwD7YDtueR37kl8afnXYRvYlpRUfFNtJKr9nMp3EkeMvwMyZKKCIAkpUAKFnc0hpFmbTBhJaDimjhKMpBykLSBjAw4/8Gh/55NewZ/hdqFt3DaobLsO68DDqW/qwJjqODZsPwNsyjIAyBb+yT0grr0Jg3YBa5UbUKAfhC08hGO7/b1EgPAh/eOTMkwBzPwKRvQvUg0CE1FtGfQhE+hEID4DjXKIh8ZHxhg7Cq7jkU26AX7kegdC1qAvtR70yg2DbOJqUcWzs3Ic1kVF413dhtTKA7buux823fQrfevBRzOuAlgdOqHnMZXJIZLI4lsjgRFIVSx58h1YhCzvvII88NFuDmnF5R0qNcilF3iCflPMY+Ujyq+Sxk/lQ8hj7kvzFrWzHPsir5fwqJRmvIQ+XS0a25zjk/dh2bm5+CVzyBG/CwUnVjQNhZ7xA/uMNpFSRoOCWg2M/7IMgle2ocs7OzgpdmQ9CDrQcMHx4UjzzR7GP8n/8m9ey3XxiHsn0vLAuOXkH2VIRdrEIPVeClgNUB5jVgIQNHNeBB372PG75yB24rO8gatddDO/6q+Db2I1VkRE0KsOoWrsbQWUYq9qnUds6BD9Vv/AkvOFpeMIz8IT3oVbQfqEW+sNDCAgqZ8Kl/WB4EC4NIMi52AKdNXAR0EKy9sIfkdQHf4SWxz74BJWtr0X74Ssjb3gcXqEaUz3eLyQZPz6U7AFlGt62cSHp68IT8IdGUB8ew9qOGayKTcC7aTf8zZdh8+WTOHDz7fjKvY/h+SQwqwMJE0iZwLGUCdWigYpWxywypibM8rQAm5a7PHMyuMhbZGjyEHmVcyLyGHlN8iv57GQeYz/kL/IrebX8n+RXwWMLRhPJr7Kd5EPyvwSYBBfvJ3mfY5PrXW/ijcoHwws5CN5IDpY3YDteyB8k27Ad9yV6eQP+KA6WgyNopIWHf/M8++F5gpB9yXvJH8828n5yXLyW7VKpJDKZtFiIzOZzyBUBuwAYpJILqt+mgO8/dgw3f/AOXLj3JjS196Fi/eWo2nQ1ajZ1wx8aQm1rP2pa+tBAg0V8Av7wKILxSXj55Y2MwhN9GYqMwRsZW1CfRuALL5ErlYYRCEsaWgCZCzYC8qxILo5RzBPLAMTFaKEaUj2URLWxF56TKToEb2R8kYSqSHVxgfzhcfgjE4K8yhiqW4dR1TwoqLqlD/WxAaxYcwlqNl0JZcck9t38CXzz4f/Eb9Puu5ozSkiZBThF12rr5LJiPpZOJ5DJuBKE7518Qr4i75A/yD8SEJLHyoUB+YbnpbA4mcd4/mQek1obQUpeLAcX78v7S2ARVOyTvE8+Zn/yntwugot/SNC4DLxkzePgJFjYRopFfi2kFYU3lDcQI14wnfIYz3EgHAQHyz4keHhf9i2BI79Asg3PsQ/ek/24oGZfKmxOjGmBzJdgFYThHWoO+OGhF/HOD/0rLthzI9Z09qMu2gc/zdRcy4nQpD2AuvYJ+AmeML0XxlDZ2oOK5j0IdhBQnJ/0iznKyYxG40RNdEpM/Dn5d40AE/BEXCIT+sKcq7hEwJ5tEnOoyMiioYXGFk90SBANHbWxAdSQ4v2CquP9qG7vW6TaGKWblGYD8EUHygw6Q/DRcBMeQi1BTGkVm0BlaBgrWwZQ0UrqBS2WDVw+iA2gIboX8cumcfA9n8EDP3sWcwagFwA9C+hWFjlOB4oFGCbN2/Mv4THyBXlGgqIcPCfzmGwneZv8Q97mh55SjteSD1+ex5bWVl+O9wk+yfvkSfKo5Gk5tkVwuUzrdkgw8UeQeBH/JvMvMbfrwSE75c1JEkQ8zms4eB4v74cgYV9sQ/cWk4YPId4p5nOwbQeWabnX2M5CWy4kcx2C/bK9Dcu2oFOSaTqSGQtGHjiSzOEzX7wPeyb+Fi3bh1Cx/jLUtu3Bqq3TqOuYhic6gcDm/ajlpD0+jvot06jf4prTffEheGMSVD3wxPfCE98DT3w3PPGuRaKVrSo6I9aBqiPcTqOGFJlGbWQKHmFto8WNNAEviWrV4pd+DP7wmSUCndLWExlDbZRE6+AohKUwNozq+BCq4oNL1D6Ayvb+RaqJ98AX2wN/lNQNX3QvvLEesYBO44gvPggPrY+RIVRH6IkyAd/maXg7plEbn0L99utRExlDlTKEQHwMAYIz1IV1HT3YduU0bv3IP+PZozqsIsS7TKr0vqGpnvMbevS4H/dcznWT07gmpRtwbAd5ul7l8shl+RF2PX3IU4ZpCvc4ftDJc+RByYuSn3lM7kv+Jw/zGPle8v5LP+xLvM92kvfJ07yX5H3uL4KLiJYijhcRhSQJEF5EkuiXnUi0cstjFKX8gsgfJCUTfwjbcBBCnOoaEkYGqm3B4n1KVDmBUh4oZYH0nAqVvmyz81DTNJUmkCtaSGVmkXEyMEoFHM8YOJI2cUJ3pdXU2z6M8EWTWBMfQl14CD5lELXKIHzxMQGmGn6x27lONQxvZAT+2Jj7suNjQnr5YyPwRqRJnVY0qS6Vb4fhiYz/Di2pTS4ju6qjlGDS+uZuz7QkcyWXq+pKlZe/n+SJktylg6XtEGqjNN+75FoT+xetocIFq3w5ghpBlM90GJ4wn88o/PFx+OMT8MTH4NkygYrYECqiw6iilIvQq2QUwfAQGpRetG4bwe7Rv8FX7/k5TqglpPQCVDMHnfN2YaqiQ0BOMEfixHGkTswhq9nIzKso2iXhMlrIck2qhGyhJKzFabpO6S4QyIvkY6p1JPIk/xZ8uDD1KedbnpNtuE++Jlgk73OfGJF9kq95Tk5peD/u/w642BGBwM7lYIjOcvBxX3bOdvwnwSWNEuyHxPM8R+I+wcUbJzIqjhsqErYJrVBEdgFc4FQrD2QSOnJGDrpKv0ALc4ljyMOGWVRxXJuDDiAF4NepLD7w2bsRv3QKjeFeeDb1wNMyCJ9CgwRVtfGFrzS/0IOoiRM0Z2/uc7bmXGfrvgRpRccAVnYMoKJjGJXxUVTH3DU1Go0aYlNojIyiIbQXa5QuHHznx/CfRzKY1QpQs0VkQQMHnX9tlAo2CraF5NETmP/tCRS1AvJaQfpjg6xITxvVtjGnqUguzNfI+ORhyauSr6naUUUkkW8JGvI+z0vVjgAiv5NneZ77EqyyP255j5N5fxFcvFhKHAKh/B9vyPMcDDsnaCRqZTteI28gb8K2UmLJwXJgPD+bTuEY9V/Ox5wcsgVXcglfpCJQygFGxsSxo8cxT5cqzrGQR5LeFigiUQB+9NQL6D3wt2je1oOmSDe8zbtRuXYPvG3DLwOuIVTHOa94A1xnEmic21W2E1gDqKCjcHwUNVFK/gnxjoK0zLYOwrOhCxvbB7CpYzeUbV3457sexFHVwQlGZdCH1DZA45VpGJg/Poec7kCfz8BKm3TEgfgol4BCCdDsLObIWwtOCORrqY1JfuWWoJqbm1ucO5F/ydfl/yS4yudXBGr5P/K+FBqS94mXRXBJscdB8GJeIIm6p0QtgUWAnNyGIJJ6J38M28sfxXMcJInX8jgXDxO6CdW0odtcref5Aor5Ikr5IrJ2FlknB8Ny8OLsPBK6RU9BHMuYOKrn8L+/dA/8LdtRvX471sS7sSY+iDr67bUOwxcag0+hhwHnPZRcI65HggAXVbw3JNeZAhjBVRXvR1X7AKriQ6iO0VtFgmsKAWXC1TRaetGo9KK+7Sr4N14E7/otOHjLR/BCykKGblSuYoj5FD/YBTz3zG+QPD4PK2Mgb2VRyhVQohDL0yskh7RuQc24voAEDflO8qHka378JZGvyb8nt+Hfkve5lW1kH9yyDY+zD8n77HcRXASLnMDJhuysHEwEBztiOw6Y50jc5zUSmOyLdPJNeWM5OCdXhMOHlivBsmmypzVQh6HznhnoBmOrSmL9g5YkWpSSOeDX8zl0jd2EqjVb4G+5FA0KJ8bDCLT2Cqm1qn0/AuEp+Lj+8jvg6kdt7A1wnSlg8T5e4XrlPnfO4cQcj2b98KT4ANY0jwiArYpPYXV8DFXrdqFq7Q7UKVfAu+lCtG7twkOPPovDiSyefG4WKYPLy0AuX0SRc/WsA4ee+OTDjA49Qy+ivPAbzeXd5R7yIXmTvFfOtzwu+ZTnCUAJEPIq93kN25TzPo9J3pdtTuZ9qoqL4KKYIwrZiKCieKMayC07kPol9VHejG0o+niexL95vPwfr+FxophilWKYAxM6LdXaIlAsAI6dh65xrSuFVHoeifQcdMfEPCeRAJ5PWsgAuOsHT8HbfAkawl2oWrsTG7eMoO2CGVSv70Ltpj5s2HYDguEZBCP7fgdcNDnT1Eyz8huS68x5idDtS7pbuWttXBfkcgXdy6axuvOtWN15Pbxto/CFhrC6cwKN8UGs2TKM2pYrsCrejYpV2/Dhz9+DX8/moJWAoykdRi4P3TZQKGZhiMDLFFKJJNL0Y6TZkaaAhTXicr4mL0reljwteZ/g4nnyKU31kq95Pf+Rbwky4oG8L/mfPE6gyrmaxMBLwCWBQ3TLQbADXswbcDCSCBIJHIKQSOeN5T+25w15veyLg+YPEINYMFwUHcDWs8hw0qgmkFTnkcgkkMlZOK7rmMsCKoBb//EuLPuL9Vi3bRx+qg9KP4KhPlSu7UJ9eBwrVneDX8FgmB4EM8K7Qkoufi3d9Zy+N8B1pt2vhJPygjcIvUR4f4Xv0AVXTcsYKjeOorHjOtSGRkV4i1cZxPL114iI6mCkH3XhXixvvBBdk+8UvMAPrglgLpOGmTdERISaSUGlA25CRd50LYgEmORp8iv5UIKC++XgYjtqZORjOReTvEte5nmJAfKw5H0CkH2VCxa249+L4BIMXya9iE52wJtxS+BI0chBSVHLduyc7eQN2LkUsZRYsg8OlsdFXzSh2kDeBMyMjQyjWTNppPQ0kpaKY3oGaQBPHFWxY+AGVG66VPi++ek9oYygZlMvVnfMYP3W69HUvh+bLvhL1LaOo6qZ5m8XXO5a07iriojF0gXJxRd+ppns9Xq/yJDrsyj8FukiRt9NCa4p1LZNoLplAhWbaMqfgjcyiWDHNBq27hfLJ+eu2wOvMgwBskgXVrdfie/8+5NIFYF520TK1jCbnhPBldR+tLQBEW3kAMWsGwMmtTHyqeTVcm1MSiXyLwUL+VRKLfIu+ZU8TZ4n77Md+yznfSm52I7n+G8RXDwoO5A34EAIBiKaHUqAya38GnAgHIS8OfvhNRKgBCf32S/7480tzYGjMqgKyNslmKYDM+vgxeQ8XkinMJcr4P7Hn0LzhV14c307olcfRMPmKVSHRlGxic6kDAch8QvofgXdeRbnWiQu6NIUP7awljMkghzpeSHCPl6vzH7GfzddwOjoTB/LQQQVzrHGFt6dnBvTh5OL8O5CPD1faqITguo6r0MgNoO15x/AhguncO6a7ahp2YZ3f+LzOG7nMG9b+OXzvxHWZ9vJwTZyYp1UWBDzbs4X8iV5jzwqAUaelLwt+Zk8zmNSqMjzvF62kVueY19ScpHfCTzJ+2y3CC6ilWDhDaQU45Z/80Ke4wC5lWCT7WSHPM8bUqyeOHFCDJLtCSYOkMRBiX40G7aag562YRkF5AqAxlAEAL/N2PjMXfdi+eoIqpovQuslU/iLVZfDFx1HRQtdmCiZJoXeTt3dJRl/5FoJ6RkhFnuFfyAXSjmZdheI6QL1huQ6U/Mu+llKp2Y6PPPZ0yWM8y56r3A9ku5kU6ghRQmsJapSJlCtTKB+8wxWbZ9GRcsu/HlTBzacfw0m/vo9ePzwMagF4EgiDVV3UMjzY811UhNzx5eS2xBY5MNyVZDTGTmlIU+SrwkKtpESiscWebbMaCf7OZn3qamR9wm6RXBJBPImBAEvJnhIvAFBIw0csg07lu0IQkongpTt2J5/81oJwvK+1KSKrJGDkaEZswiNQXU2cDidwzs/+gV42y6CX9mFQHQ3Vm66Cg2dk1i17TpUtAyhqo1eFq4v38tvaeqlxKKfoOuBQCOGpDfAdaaAxfswdm0pOJTPnnFjrqcIvVlcszx9NKW0Kt9SinmjU/DRoTo6jOpwN6qUq1DVuhP+8E4MHXw3njqugUqQatMMX4LFuL2kBjXtqoGSD8mvkqe5JY+SX7mV/EoAkpclXxMLBKbkffbFY6fifeJI9rkIrvIblaNYAoIX0IJCqcSbSURzyxtxQBSnbMfzEu08Lv/JvjiAVDIFTdWg6Y4ICeeDOfSbJG5632dEarKV63ag7dIDqG7bg6Ytk1Cu/CtUtfajgf5qykiZn5z0l3N95l7qyS6B5brm0D2HLj98uW9IrjPzDFwgEUxl70C4Si24Xy1EH7j+juXv0t33RscRaJ9EoGPS/VDStW3LKFZtG0VjZy+8octwzeRf47HnksJpO2OXkDEcMP2errvLRZJHyYfkQfIrAUKeJy9K4PBv8q2UXmwr25H3ueDMNuyPIJT9lgsWyfsE4SK4eAMCQyKTHfMfEcxO2ClFHtsRROycg2A7EvfZsWzD9uVqJtuwL17Hc66kTCOVMZDUcnjiNwm89W8/hqZIF6o2XoWmTqqAzLA0jsbN0whE+TAnREqy+g4+eC4Mk9zkMNy66yiDCyqg6y/Hr50ElfSrY7TtG+A6M+Dix0w6CrvpDn7Xj5Hququ2l5/jh5Ge/EPwRPrhZe6Rzgn4OiZQHR5CtTIIr0hR14v6SBcu6bsB3/3Jk5g38pjXDLw4dxxJLu0sLBORh6U0knHU4SMAACAASURBVB97niO/kiTvEyiSp7mV4JJ8TR5/Od4nbmQb8jf7WwQXpRXBQORyIOyUN+KWf/M4z0uS7XiOxBuyD96E4ONWnmMfJLaR/TABJ0P0k5qOR558FlMHb8Wq8NVoivahqXMKHsYFhcaw9vwb4VFGUbFxD1ZvnRDhIz6mMxN5IJgLQtKACJ3gIjFDKOQL4yKm66RKx9WFWCyh858Z5nq9g5gftJroGKpjY6iJSU986RTshru44T18Z3RNI0nn6UHUb2Y4SzcqWnejJjwAb3wCVcoYKpUxeKOTInSoLtqLdZu7oVzYhS9/+wG8yIBaLYlkxl2jJV+S78h/5EnJjzwmSfK1xACPvxLvy74k7/O6ct7n/iK4iFKKSzbmCaKPJKWU1DGlSGVnRDERyi8A93ktvw4kSjIOjoOU7dgfryNo7ZyNtJnCTw89joHp69EUuhirGdIQ6kN9fD8CsetQqzDP3zSatlwHrzKAig1XoqF9L4LxvaiJ90HEHYkYpD7UxHsXiQvF4oXxJS2Cy9Xv3dCPNyTXmQI9wUVH3arYuAAY3Z+qqW0IJ2p3aUTGzDEH5EuioqN9CMS7URu+BlWhLtSE++HvmEFw81sR2HwQ/o7rUROeEJmwVnX0wLNpKyIXXYb/e+fXcCR1FJrjOj+QDwkwKVHIr+Rb8rL8R55lO/K+5GnJ+1JNZBvy7ql4X2KE7bm/CC7ehADjxXIgUlXk3+xYikteTPckVcsgqaaFY62qZpCnyU96XmRLKDhFGKqB5PyCgcPQoVsazKwuIoZ/cOh5dE+/A8G2SxAMXY36cB8aYmOoDY2gpm0M/ugMatpGUd3KzLOj8DDpZdtuNHRSZWDsFeOIqFKQ3C+f+/Vb+PKJpDBliVcYQSxiqSi1aLV6PdHZkdQElxtDJufE7jy43HrrSqulIMyltHJMdLoHHmWvCNAMxEfFGlhd5wH44/vhi06jvnM/qlv7UBftR0C5Gv62nYhc0o9/+tbDSNANqpRFlklkbUuspaYTaSRnU9CZmormAOJrwZuDLlWGZSPFKRDtAgvTpHLeJ2iIBwoMgpUY4ZbAJD74T4JxEVw8cTJ6eaHUWU9GpUC4rmJeS2OO8VaajoIcLB01uI5mAY6ahakasAwTGV1FUpuH6iTxo1++gKtnbsfKDbvhCw+jpo3GiilwkZih8/7fY3QoD68/1f6pv840D8s8GK+PrfshOTsAO9X7KT9+6nf10jG/5BrOnQneED++46jY2I1gbAzL13UhvOvt+PK9/44EU5aXHDfRTTINU7VgpbMwE1nAWfAGJr/SDS9bgmpamFPTmE0nBbgInJN5X0ouniM+uKVQkv/YnnhaBBeBRcRJtZCikRfJ+RMvJjqpa3Kf6p5qaCJmhtJL0wwUskU3tob3WRh4wSoiOa8KD+VjiXn8dvYYDj37K/Rd+07xEOSDqWkbwOqt+9DQPvmGseGML/S+lIH/q4x+ttvxo0z+4YfYqwyhsrkXgeiY8OhYsX43tlw1jjvv/Q4ShoGjcwm8eHQOmbQJPWVDT1iibEDJAkr05sgBWa6zWg5U3RC571nog/xPvifPS97nVk6diBPZRko4CcZFcBEs5ZM0gkwSkUpihyQe5w2zXGBemFfZDEOxssibWWR1G3bGdIMe09RhDWTMHI6lM/jJE7/E2A1vQ71yqXggTAxDS2BdfFxQbWgAwegYAqfVosc515kNtf9D7ydD9aVR5tVu/yQtpBGm9J6Ah7ntlUE00FwfYnZiFrZgluCLsOWyq/G173wPczJvYiYLTbVRsEpwMo4grrfmqELatDnQfSkPenswbQBVwHLeJ0YE75c5RUjs8Bz3CTZeswguSil2xAulWKNo4z4vejmjhNBVqa8WOL/KwWHCevoZUg9dSH1tmFmYdL61gSeem8XM22+Fv3kzGiJdQh10vzRDqG0bQMXGvaAE8yhD4tzp+DK6agXnXkvZi14L++5iKxdc/3vEuc/peJ5ns0++S0osH30PY+NC8+F4Kpt7UNXShybmQdmwGbGLu/Fvjz4LurM6BaBQBApMw5fOQE+rMFUNtmYiZ2aRd4pCijE2jJKIguRk3idGeI7/uJWanGwnbRUvAZdEXDnA2AH/pviTkze2Y0KQEmPzqQJSZ2U0MWOx0glo6rwo4ZNSUyJ8f1Z18J8vZvDXf/dprG2/CrWbdiAY3ivEeX37pPj6VGzqwfJ1u1EXnxCing/tdLw4N5vs2GLSGJk85o9+K4I+x0UULyN5Xw0xOPFPEVx06OVcnTxEcPGjzH2qi5RkTe3DqFO64N24Axd37cdPnzgi0u/pdgH5YkmkN1eTCWipFEwaJXQLRaYRK4tsJnAoeMp5n4CTFkGCi/uUVGxHksaOl4CLJwgcijZ2KtHJ/XJwsR2lWZFlLWSIKLPv6Cx4MA9dS8CwMzALWSRMB0fULD742a+jIXwFVrf3IhBmQQGGIYyKrwxVQX5pqlp6BbgaO91F49MDLsYTvTYlF0HyakAl29Ja96cKrqrmXvER5rSC/ESDRnUr65fx4zyEpnamJu9G1dqL0b//XXjqiAq9CGgsLqKmkE7NQU3NQ0+l4Kg6SkwjRnsBrYiMXFnIoSHBRd4nPihwiAup3UlwEVhyfxFcXF2WlkFeyIskSXBJIwfbmYYJUdCKKKfkyhVgMWQkeQzJ9HGkzTTUfBYnrBw+cce34GvbgYDShSDN5ixywPx2ypAgSivqzpx7iSSSYh7GOdHpmmhTRXptEedMdO1a8nZ4dftcSD99z/Ps9E21kBKK0otbYWEWAOP8fQJNnfsRiEwLZ2EfSz9t2onxv7wNTx9LQs3nkNDSSLGIR2peTGXstIYSUzZTYJCnaZ9bAJe0ChIDtDvwOPEhVUNOqQhAtiPAuL8ILjYmUeSxIREqwUQkSlEo27BiRV6zUVRt5FUTWc1A1jSQy9uwChYSpoZUoYj7HnkSNZu2wKdcAV+4B1Wtfahuo0WHcx6a3EeFhYdzL+6LLw4Z4Q9gBlcXH14EL9UH9icMJ7ExeEJ9Iid65YYurOocx4bz98Eb6kU9S/PQzYZlev7IyM8idpF+4QpEd6CTqTbch6pQD2qUXtR1jmLV9ikEO0bE3zxX3dYr1oOoOq3aMiOMR3wuVKEqNnS/ZoG39K75W1y+4XsWFJsRzgj+yKRbWDCyGzWbtmPipltwRDVwgrlc9AzyBRo0bBQMB9mUiVzCgnosJdbFiAXJ+7Q/UPBQayvHCMHENhRCxIfcLoKLKiCRyJPS4kFwEYkSqUSpbGNbNvT5FPIpHXYqA3V2Hg6LLIiqWBChI88kMljTeSk8oUvQ0NGHug7pBT2DmtDCetZpkE5LD5ySkSCTD55qwyj8Sg8q1+9CY6wPDdEerO4YFNsVq3eKbYCVI//IyK/shk/ZDe8pqC7ei7XbaHXthU/hwmsXakNd8Ee6sWbbKFZtIYMxBz7LxE6IOQpVKM5RqJb/qUk1/h5fZAqB+A1isTkQY4HBYaxcdwHWbbkS7/3HL2DOLnApFrOJlJBSOcNBPmMjmzCgHk+6zuUnpa+QBj6Ci6CSAojgIobkeW4XwcU/SEQmJRXnXpReFG/siOckuIhMpriy6Hk8O4+8bqKUK0LXWTNLrB1j/v8Vlrvh1tuxrGIt1m4fQH3HoEgcyZisQDsLGixIrtMELlqQJKjEF40PW3hkDKIp1oP1nXuFk3Dt+h2o3bADDcpVaAxfDV/zpQi27frjpNAuBE5BwdAVCDKpS/OlqF5/MWo37gSP+VsvR+W6i8UHhUscBJR4DlSfomNi4f5PdW2RsWLB9utR17Ef/ugY6tqHUN16Jc5btRmB0IV44JGnRY4WuwicmE0JVTCrWdBOJKHOJUVOjnLBQv6n8CEeeJzgIka4pTQjRqRmx+0iuCiRBGgWrB4EFedhRCbBJsFFdBKlOhfXDA3pE0ehpVMoFkpIpE1RYYQFOd/3ya9i+eotaLtkEvUdrmtLRTMdMJkgZlwUPDhdX8tyYFHVpEroWpCG4GljjsMuLFuxBl1jf4V3/P3n0DX6dgwceBcGDtyCwWtvwSC3r0Ea2P8u9M28E73Tf4uR62/F5MG/wzVDb8PGjmtQs/FKYY2lusSPDUHmLnm4+6frXZzNfr1hZlLej6at18IXHUVVq1t2t7rlCryloROxy4ZBRw2WNWLezHy2hNTsPPREEsd+exjpVEoAiUCRgoXCh8CiRiftFBJc0gAoGpeH+bMDoo8XEo2Syq2HBBgB6KqNGWTUeeRsFXMnjuLQfzwl8rX/8rcqHn5iFn/mCaOxg8Wue7Bq2ySq2npQG+5HVZvrJ1bfMX7aVBGCi0RGEgvSUc7lhlHT2o+qTV3Y0NGF5+dsUWLosWdOIMN8DCag5oGjaglJB398tBBMmraAlyOuI6pZIGkCsyqQZHGDPJC2gWdeNDFz86cXljjo1TAgVEQ+E+5zffFsguB03ZvzdwZnBtvHRcGNiua98IaHsGbbFJo6hrCsJooDN39cJLsR1ncGXNLWMH8CanJW1CeQlnMplU6eMhFYxAyPE3gSYGy/KLnYiECSxgvZGaUUQceLSTzvEp15TeSyadhZA2augMeffhGpPLCsog2N8X6ELjuIlRu7xQ9jFftg+zAC8QE0bh5E0+bTZw1cAhfrBbvzCz5oLi5WrLsSf/e/v4I5vSCMQmS+pAXMZnLiC8YcicyQ/MdGHJe5UNCbRb1PJt0G0rob0c2axCrBZbuLpmScrz7wnwhf8deLYJIeMdyeu6brTxRc/ahp24Pqtm5Uh3pFZqm6dkZZ7EdD+wRWtY9g2ZvX41NffEjMvTilyeayMI2U8IliAQjyvuT/Jd5fytEpBU65UOI+sbQILqqBRC31SSkGKd6kGijnYLINb1wsGShBQ67kiHU3lu+5aujtqNlwBZovvA41bcNYd8FBnLN2D4LxMfhjnHv1oS5GZ93T97WU4JIT9rqFBUZ+oVes2YUPfeZrUJ2iKJTHJQ1aXmmBNYvA8bQuljl4/I+JxIpHie/j5Ul4HdD7YMEDoVhyC6obRgG6yVpl8wJctAzSi5yLrlSZ124/AC7gny7pcTb79Sk98NGwo+xGddte0KjR0HlAVAetaR2Fp3UA6zpGseyc9fjF03M4MqdCM3WUhCyjgeJ3Q7AIHAocYkSa4gkw4oNqopxKUW1cBFc6lRY5BzTNvbhYLLnRI2KO5UYPJ5NzSHHBTaeLvYlsTkfGSMEg2gF87msPYuNWhl53i+Jw1co4VjYPoSo0grqOSQTjdFPpRdWmy7Fi3a7T9kI5vyLAXHBNgOCi5KrYtBfnrboUt3/+TsylNfFBmFNt/Or5E/jZoWdx6Ncn8ORzSTz6q2N49FfH8ehTC8R9HntKUtk52eYMbH/xy+N47MnjOPTkMRx6kqr4iy5x/8ljeOTQC/jxz57BI48/jyNHaR5eCKcoAvf++DAaO8dx3tqrEYyNoI7Bi239WHf+dWIOJiuhcD2NofkuufXMXqs5R7xKL4LtpCHUKKwvNoG69mvhZV5LZUrkumwMD2NVeA/adwzg8LyJTLaApJFGXlRVKSIn0lnTKshIfSa/ZZg/ndfpJsiSPCUUaOTgPCzBRek09Iw7tVoEV3KeJ1ToXK/K5cEvX6FYgqjy5zDNL93rTyCReBFq+hhMPSHqJ2lWDimziCeeT8LfcjEC0S744gMiJ3hVbAJVsUlURydETA9fEmvuMskjU22dzq+au17mrthzbsH5F7/U5zTsxO2f/SoMRzw+UXH+o5/8Cpadswp/Xh3GsgoFyyrjWFbZgWUVne62sl0c+/8qY1hWEcOyFfEzTyvjWLayA8tWtmPZiij+bLmC/7k8JOh/LFew7Lwwli2P4c1V7Vi2vAVX7rkOjx06LDIhkU/u+9EzaNkxI2ogexVKqkEECCKmOovSRO9WjlxKRceQ+4WMWYyLOw1W3dP5/tk3SyKxnpqbXoA+mVOiDK93oeSsr3UUDcoIGhgvtmEnbvv4HUjkgFSB5WQdAZwS18CyzKvBDGga5hMnREXTEmtdLQSDlQp5WLqB9Hwa6lwaWiqDdLJMchkZA4ZmwjIZCp1DLk//q6Ko3Jgv5uDkGP7P8pQqbIseGklYTh6zSeYazGPP+NuxpmMPVm8bQTUXOTdPojI+gcrYJAgy1wVnRKTZqhN57E5v8e1Tg2sHPvLJO6AZrJkCUZHy83c8iKqGLWho60KwtRv1yiDqlRHUKWOoU0ZQT581el2L49wfPuPEfH9+ke9vVIylKdSHNW17saatB6vb+tDYNiAYpSkyhJp1V2Bw5j341a+T7vsvAPf/+D/RsnNaFBr3KlTJBxAsA5fwrRROwTJr1gK4Ygw8fe2CS0Q9M71AlGWLXHAxIzPrOW/cdhArm7rQvHUKTeHd8G68EHc//B/4baaITA7Cf5a56Jlm3TBouFCRTM0ho6eRzVkoFJjKLbuQr96CmTFhqi4ZmrGkFpbyJRRYHMGmqZFOiMyAm4HBPIOWASvLEqnU/LMolizYTgazTF9lAh/99J3wbbgADdHd8LPEJxeLN8+gMj55ErjoKcH6wKwaf/bA9cFP/AtU3RLgou/xP3/tB/Cvuwjr4/1YHR1EHcNeQkMIhEYQDA0jGHKP1Yf6UacMCcARdGeSggpN6LSwjgmwNyn9WB3qEbQq1IcmZRhrOqaxtnMcnuarMbj/Nvzy2aTI41fKlXDvj55+HYKLZaOYY2UYNXQdYzo+UaTDBVd9eBpBFkhX+tAY3oO60OXo2DWCX52wcHiOmcwyotqOJaqfMMzKhmnrsHMmdIMWdQZKJmFoGeSd3OKHjOWvOKdaVAtl+EghX4RlOcioLMaQRpK+UnoGdtYGJVi+xGLQJjRDQ0It4Me/OIro+QNYpXTB03wNKpp3o5pfxC37BbAouapjzEnHhCISXHQ/OkvgatyBD//jF5FZkFxmAfjcFx9AZf1m1LVcA19zF3wtvfC29MPbMriw7RPH/C098Lf1wyfCHBjqcOZImM0V5lKnBBtAXagXjW3daGzbi4a2XgTa+sR4qHazsHrvvnfjP55NIM986QXOuV6PksstvuEmMRoW2pOoCxaeEkUgvG1jaIhMoCk6gsZwDwJtV6JB2YW3//1n8aJaxIk5FYmk6toehIGIKQMcmI4OzVCR0ZiLgxEgKvLZrJsugOtlTgGlYlkkslAfGcOyIL1oNaRlUHhomCbyxQIKKMIp5GCyXpeVxfEUsP/gx7Ah2ouNnSOo2bgHlc19qAixPCfVwWlUxaZOAhfTGtMz/izNuQiuT96BjOl6kxgF4DP/eh9W1nUgsOlKeDd2IRDqhz80BH9oZGE7II4FQ/Q5ZIJLd/52Jrc+1jOm1VP4YA6jPtyPJsWtadWwoAnQCBGMD6Gi+Ur0Xf9e/MfzKSGdafW99yevR3Cx2GGPSGZEgHHuxXg4ZvplCvS6yBQaopPYsHUfqtZdher1l2NVbA+aIlfh3h8/jbRRwolExnXpK5Rg0xO+kBPA0ow0DBZizKRgaCpyju3GNRI/Vg4UUi+RXIVsAZZhiWSdtHok5hOYm5tHhsWd80VREpOKocMaCiXg7vufRGT7NFq3TGFDxyRqm7muMIxAxwGcRythdBrV0akFg8aoW7qHueYivQjIihenaaJ8yjlX4w588B//FaphCWuhVQI+/+XvoWbVdjQpe1BPx9cw85uPIKgwXGEUdeFhcaxOGAGG4YuNnnHy0rrHWLf4OHyxYQSjA2iI9KIh0od68UyHxJj87cNY0XwFug+8B4/9JgH+vlwR+M5PXodqYawfNe3dqI0zFV+/qPPMyAIGnhJgwegUPK1DaIiOo3JdF9Z0jGJ1vB/V6y9F375b8OyLGrQsQPcoRlex3nIBJWQLNtQMc2zMilrdLGGUdWwhrYSYo7N8uVposxCCbsLQdJi6m1CGW0M3YVpZGHYBml1E2izghOrghaSNqYMfxbrIOJo3H4C/hQzJQLUpeGP7ISvdE1xMT8xQCVG4mll6Ir1u8erTBCxain4vuHQXXKw287kvP4iqpm1oVHajTulBQ3QE9fRFi06gPjqOhuioONZAtVaUI2JJojNLzPlXFR9HFQt4x4bgj/YjGOlBMNIrKoAwQWZNhIlRB3DOxstwzb534ZFn50Tskl0s4duvS3D1oaZ9N2oZkRzrdQtxiCSxDJZl2dhxrFi3V1hMm9qn0Bgfw+qOMTRGB7BpSz8++plvCGeChO5G0mt2ATp9CJGD5WjQjTRsGvmyzPdpwmDeTzsLJ0vnd3tJcjGvNmtkmSwXZDtiNbJEi2GuACdXgmrkMadmcSRh4XDCxqe/9F0o50+gQRnDmvh+VG8YQF10H/zRfahqG0eg41rURKdFUn1RplOAi+4oA/BHGCh59uZcH/rUHaJcLKUw/co+/cX7UNGwGXX0Im/rFtU4AgL4Y+CWVedFhY7woHCfqY4M40xTVWQYFdFRVERpjR2AJ9wLv9INP83I4V7hWlYtTM8DOLf5CnQdeDcefW5+0fPgO69DtdAb60NtfM9J4JJJYulbOSo0La8yisb2aQQZM9fah3XbZtAY2YtL9t6AXzyTwgupAuaNEuZUCwlGLBcc5Ass6kCf+iwKRYZpaUgyikTNQDMspNJlZVsluCxaPmyL7r8AweXkRcqpVCaHI/MWjmWAf3/qOK4evQl1XKRTJhEQJXxOUQ4mOiHmCa445qLkIHyR/rMKrg9/+ktQLderhPV2P/XF+7CycTPqRZhJT5mxxXXRYho2CS6WH3LTaMt02mdmWx0bRUV8HJVxZq4dgk9oAD3CtM6PlVdkHmbCzX4sb7sKXde+G488Ny+8T/gReT1KLm+0H554NzyLkqt/odINU5wvFYNYyqHCiAHXsTmg9GJ9Zy/+6u+/gOdTwG9TTLBkYpY5NxwT+YIl3P8kuHRTgkuDZtrIaGUZd9NphuircAwdyDLXFK0b7gp/NgckMnkcnnNwNAO852NfwvotexFgqL7CBUhZCoYFvpeIpk8ptdy83/xRlF4E2OnJkSEXJl9JLfzwZ1xw0YGBzrqfXABXnbJbhGYsWTKl/yNzG3IJwc3ge7bAVbkALubEJ7hctZAAY6QBTc4Eej9WvAEu4aDAZ+Kqg33wEGgicSwXxofhidC4wfnXUprzpYxazCo1goZYD5RLJvDdnx3GERWY1fI4Op8CgVQSznF0nHNQKNki2W2CCXJpBFTpoZFZUgszGQ2mriFnElws+ZgVzmnMhqObRcym80iYwE+eTODSgbfD03qlkD6vnJVILki6q+VuUQSKZddbWQLhdGxPBa63NO7Ahz7zJaRtR3zVBbjuuA8rGjcjuAAuN+OrzLXB6FZaCN0aU1xQrWERiDNNsVEQXFUMFYlyPCxn2iOI4PJFmXedRQ/6sbL1Kuy+9t149Devb8nl1mNeyjv/0mIP5ElJTKHA57pE5FWRWlvpwtTNH8dhgksv4fljc5hLzAnXv1LJQLFkIpc3oNs60rqGhGYgpZkia++itZA52rK2hZxpIG/oyOsabFWDoTJwsoCkBqSzwD989ttYv5UhC73wx7l2IHM58MXKwS5tvaJSxbBY45LVRvjVON05Hf7L4CoA//gy4HJ968bcckML4CLA+GFYeilLv/N0H+NzlvnWCfBApB/14R5BwbA7h+Wz5he6ouUq7Dnwbjz27LywiOZKwHd+/PqzFvIdupLJ5Tfyn5Bai3zq/u26R0k+5nYMvvgYGrdNw6N0o/Oat+KBR18QRfZUqyCy9+p6CpaVhGWnYdoqDMcQPrZ6rgA9V4RdXhO5yHTW+RzypgE7o8JIJqAn09DTdJ8vClPkI08l0TVxC2pbr0LD5hH4OhaS6sc4D3ErV4i87Qv528kEgkQxBFfPpSim/xp/9On0V/uvgIvT0XQ5uMKuWkgQuS/GBRe/gFRl3eNyQixf2JnZcs7KggY1MT47zgH7Ua/0CKoL9yGwOGYXXN37343Hn50XkeH0mH9dgivsWgWpXbkqH1XA8g8ihQMtrPRBLJs7R1mNZQy18TEw/0ggvAdve+/nhL2BUwnDogfTPFT1OFT1BDS6AuZpfXaVRekvvSi5RB6bYgFF20I2o8JkPrdEClpKQ0YrikDI2z93DzZuHYQn1IVA+xA8HUOobB9EdZyLdQNC3+d6gifGOUB/WTkYMiT1XBdYXMjjjz2b4ErZjrCkSXAtb9qMYJh5KnoEkNwJLxmZHuIvBZcr1aTn+JnZ8mMk/OPEIvIQ6J/ZwGUDAbA+MR8UEdeRflQ2X4W9+9+NQ7+eF4vIBNd3X4+SS9gCWB+bpWEnFgEmtQwXWBQMBJdLbhWWEVRGKDjG0XT+PpyzZie2XL0PDz3yjNAEsnkWK0kjox5HOn0UqjYHu2AhVzYTyxbKFpEFuOgnk7NRMDU4ahqZZArzJ1JQMyW8MFfE+I3/gKr1l2Pttgn44sOoivWjqn1gAVwsByOBRXBJgC2V8TkZXKdjriX7fGXJ9eXFOdfvgCvcs1Bwza1euaRW0NJJkFFSuZLXPffyIRqyPOkSEMvbvXpAEuRUDckYlKCu5OpFg9KLeoXzL3q5s2pLH6qar0DP/lvw+LOzQnJJtbB55zT8kR5Ix122FxHbDMlZ+E2UkK7q5HrEe2JuzSxfdGBBevMeTKW2lBKcFral5+T+NvkezubWNbS5xeddcPF3umPlc5RSi5LLlV4SZCPwdEzAu3kflrfsRVXbblRv2IFbPvR/Rdwfze2ZTEpEhlB6ZfQ52HlTgMuNDaQ3U5lvoYjeKtHLV4VtzglU0jExkbZE2Pinv/hvWNcxgNrWvVi1fQbBLVNiQO4kcanesGusIBNKkjFBfOhksCU6nQ/+VOASISef+gp05gcHhPczrYWUXIHwbngiXGzkw2bJG1o7J1DLbLdCxRhDlTIuPE/o3rW8bQgVyjBWXXgd/B3jqFb6xTyUXhL++Ah88RF446Pw0AghXJdG9+gmDAAAIABJREFU4Y+NwB8bftXkiw+hmrFwdOeJ9cDDWlZcL2TNKsV9LxUbrkYwshue1p3ou/5v8fjh4yK9nVoq4s4f/lKUOq1mnStlD/yxfgTig6jrGBGqjz8+BBLv44sPLtCACB8KbO5FYNseBDpYwmkPfG2MGphG9YYReNpc63B1lMYWd5pAcPLdulEF0uJ65nMbLiV/pZa0YGYvi1dztRNOV8rJVfO5IL+SOejjo1i9bVp4w3SPvwc/PXQMqUwRx07MIZE4tqAaHoPl0E2qKEBlOkWRMntRLdS0DJysimIpTQM1itCRRxF0bH3qsIHRGz6KijVXwM/FYLrgdE7Bx2jW0+hl8Yf0fSpwnduwEx/75FdhaXmmuBfuLVznIrj8kd2ojfSiNj6Cmvg4qqOMRZtEDZcUwkz4P4GayCT+onkA57T0I7B1PxrP34+3bLgG/o4hVHGdrL0PfqY3i/bCE2bekD7UhgdQy3mnsPJRwtAF7NURLVceuvJ07IGnfS+88T74YgMIRIcQZJ4IpU9kll3bvhf+5gvQs+8mPPbci+DbnC/kcc/Pn0PLzgOoaWOO/r1o2jyMujhTQbOAwSACUVYIeXnyxK9G7ZZLEOi8Buu3j2Ijw+Rbp9CoXAt/aB9qwlMirKiifQSV7Zx7u+CqV+jBP47Aa7CSp48fxPYxLN/UjWB8HPXhQdSuuRK3feirSOtAOmMLz/hC0UCpxExQ80imEjCMHOiDQY/6RXCl1RQ0PQE7O4d8iZ7Arg5pFYG77juEtu1jqFp/tZgnrWzpRTWzCMXO3lfp9wHvlcB1+ye/ClM/Nbiof7PMqOvNP4Ga8DhqFeYiZ3qucWy4eD8aOodEXsAV6y7F+u1k7mtQp1wlUp/5Wi9DzcYdqFx3kUhrVr3hUniamfbsatSuuxq1a6951VSz7irUNF+B6pZdqGlmvv1r4Nm4G14m9FzfjeD6PWjctBsNG65ApT+GPYMHcejpo8IHdF7L4s77n8CmzeNYXncxqlbvQrBlN6rX7EL1mitQ17oHteuuPCWtXH8hzmvtgC92GVa1d2N9+yhWh8YRbB6Fv4VhHBPieVXGCS5XtaKqSGC9VsHlZ1oKamfRYTRtmcHazklUNu1C/+StePq5jJjL0om3KBZ0LKiZeZyYpSQzkdEccN14EVyZDONTZqHqx6Bb87ByGvRsHifUIm79yJfQoOzBui0Tbqj8xm5UKANiIe73MfnZOv/K4PrKSeC6H8ubtixKLhdco6iKjKGa3ujhUdQqzCA1gnVbRlG19gLUbrgQb/FHsGz5GgSaL8LoW2/DxI23Yerg+zBx460YvvadGJj5GwzM3IzhA/8LY9e/B5M3/D1mbvwwZm78yKum6YMfwvRNH8DU2z+A6Zs+iJm//Ahm3nY79h/8OA4c/ARmrvsIxqfeh+n9t2Fs4h24/fZ/wotHU4t+pI8+8SKu/cvb0Tf+LgzP3IaJ6z8gtoNT78HkWz+AmRs/dEoauvE2hK7swVuawqhcvQ2rlT1o2LAH3jW7sToyhSADEaMjqOI8PE5wuVOAOmUcJHd+dubVwj+E92qUQSxv3SvmuMwGHVQGsaFjAtELxvDFr/9QTCksZt/NGijCEh7yKSG5HGg6o5bLfAsp0lR1Dro1B6eog1Myus386LHDuKT7IFZF+7Fu65QoMFatuAupXK/6Q37A6bz294MrV6YW3o/ljVvhD+8Rahz17WrW8iW4wiOoVVg1YwhepiRrvRwblAvgXx3GwXf8PR7/1VGkDNdzmoGXfGYiixAjB5jTP+96peeZ1H8hBfl/Z8s+aeLlhNn1C1i6l+ibcUTsuAg4Vha2qSOfzcDUZ5FzEiiWCkhmLJhMhV5YIv5Nj+9XGpMOYA7A0/M5fPZL30N0az8CjRdjo9KHNcqgMKZQ5WXUbxVVauF5ToYcF/RaBJdPOGgPoTLEoiFD8Lb2oYkVUJt24q9u+TTmVcBwCsgWaIDPChVxbu4EVFWHYxdeKrk0nVHHKsysCrtowUFJ1C3+1L/ci7qWXWhQ+lDbvFekKgsw52DHuEi0eDoB8of0/crg+jIMPSsmnwwp+OQXH1gAF9PA9aMmMoKa8Ciqw6OoYW4/SulQP3yhXgTWb8cFF+/CD374CKwsHzDAgppzSRuzCQuWI6opgS5jrOSZyxaR40ugt7Rji2BTZst6tZTl17GYhl5KQS+qMAoazLwJK+fAyuZg2Y6IYHBsEygShiyZqKKUTwClJGwnhXRmHrkiU447cAom8nBg5w04BQO5kn1KStoOjlhAMg+kuFWB6976fvjqt6Fu/eWoZ9qAyICYa9EHUgTGRsYR4HyLqQleg3MuGp4CnaOo5lw2Ni6iJES+jZbd2LJzEt+8/1GoVhE6Uw/mDDiMTtYzSCbSSDO9e7n7U6nEnBk27LyOjK0joVs49OtZTL/tg6hZeyk8m7pRtbFb6J+8McMefAtWoT8EBKfr2lOB65yGHbj9U1+CbmTF15q5EgiuFY1bEQjvhUfpR22YBQxcqhVVC/vgDfXA19aNy/fM4Kf//nOhbtEgYlhFGDZEgb+UmofBOtA5kdvELb7ONY5CHnmGh9sqrFwGZl599VRQYZQS0Evz0EvJMoAZsHI2rKwNy6F6whJQGnI51lBLI5dNwrJmkTFmoVoJWLQGFzU4RQ12ISOOcf+VxpQpFHDCBo6pJTGZ5weEvt0H3/YBtEavxurwbgQj9N9jOP2YWI/jWiZTEgQWC7z/8Wo5L8eDnvAAKpVuYYyqaRtEQORSGcXa6DAq6s7Hu97/f3BkzsC8yoj8BHKUYKWCAJWmsgpKWVJQ6hOMU3GKDlTHwXHVxjce/AW2XD4jJr81G3pQF3FzizNzbmVoLzynOVT/5X70f/XY7weXcxK4tiGg9Ahw1ShDYp7FkHofS9MovfC0dGF95xD+5c6HkM0XROBohq4wZgm/+s0s7vr2w7jngZ/j+z95Es8cTgiwEXzMM5jLOtDUBH7+yCO4854H8I3vfl/QXd95CHd99yGxf+e3v4c7v+Puy/Pl27u++z1844EH8Y0HH8Q3HuD+D3D3/Q/j7vt+jLvv/SnuuudH+Mo3vo+77/kxvvmdn+Cub/4AX/n6fbj7nu/jO/f/CN+672Hwfl//9oO4+94f4O77foCvfesBfPHOb+NbD/xwcUzl95T7X//uD/HAz5/Fi6mC+F2sHpWzgYwG7Om9Dv4NFwtLJT+2lPZcvvDFGSXBohevLVBJ/vJFh1C3eRiNWydFMtH66CQawpMiV0lDy27s/8uP4NFfvoiE7iClqcjmsyhwcVnTRUTyS8P8qSzkbeg5G2quiOcTFm7/wrdRtXonvBv3iIlpQ2yhUgY9sBWmBj69ofryh/53tq8MrjugL+TQcCXXg1jRuB0MM6D6V9kyAH/UzdTb0D6KRka0rr8cUzd9As/PZZFxskhZeRxXHXz5m9/Hrp59WOFvw5urNmLZeU3YPXIQd9//M1GqVreLSKZVPH/4WXT3TWHZX2zCct/5WBm4EOd6tgk6z7Mdb67swF9UdWK5d/vL0nm+bTjPvxnnCtqKc33bca7vApznvQjLPTuw3LNT0ArPTqyoLacdWOG5GMu9F7xsv6e6X/nxc70dWKVchptv+wSeeuYoLKsIx6AamsdXv34/1rC+dctVIh/iiuZ+eOPTWHPhQTFX5SL1f+f9ne1r6O7mjXFJZUCEoQSUCQSVKTSExtAUGkTr5n585Z5/F5maVSZxspl+LedW+uGcoFSWQ6NUzAsjhmqbmNUdHHouiYFr34uqtVfAs6lXxGzVx6bdMjTRAdSEu1/b4DK51CAXkR/EiobzEVSY0HQQtSEWrJ5GkLnmw8z4tBst24bw0c/fh8T/U4eMEjBrFPBPdz2AtbFL4Wu+CKuirine13wZqtacj1XKJfjuw0+IYMyEZkHVNdzzvcfw5toL4dnQ9/+z997hcZZX+v+/+e6GalsjTS8qVm8z71QVN7k3SaPee3HHEFoCSUhIoRNKSAGSTWhJNksghYWEhJYQmgvYxr3bsiyNetfn9zvPyAXWbAIk1+LYl69zvba6Ne/9nvOcc5/7Jt7bSry3hWhXA9GueuK08OKpLJ9+VIjcWzjC86NorYlorZkYrZUYVxsxrvYPxaqpf7cRIzeG+h7yfT5uVBKVsIBp5kzWXfNlDhw6jmj1HTt2gp7+CQoq1mNOXY5DOHmaSJg1E527Gpuvgdjs5vMUXFWYfeJrUKnAJZobNq0dh/p912FOXs7Nd/yYXUd66BoY4kRXF2OySTKpHPM+CK7BwX7GJifo7OvjYPcgz8hE31eEPrUIY4aURnKztSpHSEGzUcD1T9bB+DRPr4/MXLELued7j9ErclkyLldnrt8zI2aeGsSKopPd20x8zirsYjnkLMGWkc+Ssqt57rU9hCagZxK2H+0lZ2UtlsxFWGXG5atAnyH+WaU4PKXKgiiwuJpDoUm1Ki7f68U392FxikdUJcbMRqyalE7NmF1NODzt2Nyt6m3y9nOFRX28fE4ror0XjnYs2qqpWI1ZE0XZNZhUrMWkrcWsrcWircaqxDDbP/bV4qzDkBbEnDKfJG0Oj//8lwwO9TIkyrP/v77ENTfdS6wWxCZZytuuxDdtgVbFQjEpe97zL3vJPW72FYfXTqQho16TNdi0Nhyyw5gWJNjwRV7dtI/Q0ITaUB4aGmBiZIjh/l6lqXF6ziVUJ+nbd/T2cSg0yr0//jXTYuZhEokxZ4N6Ia2eFuVzZPYI66BIOR1+GgD8Mz/3fwfXT+kZ7D8HuIRKVIdk6PjsVVidVdgFXOnLKW/9Cm9uP0n3KHQMTPCrP73N/OJWNTR2eGVhMWwfGpUuS6TlOPMamGbzsOfEiLJVkjWEN3YcZ37VV9G7KohILcLgqsDur8cqug7uGhVhTuIpytgHr4quo1Z46jAr2YSwlWuYDxjeSZJ1iXDI7OlMhEVZTtGAPt7VqNUhdjwz/aXo4z3c89AP6BsKMTQ2yNDYBA/+6FekBCoVLcrmFS+sNmx+IctWcGXCcqyK83h+nb1UxhJPA0Uzq596oK3Dqq3GrrUR564hOVDCk8++SvfgJP3DowwO9NHb3cnYYL8yMz8Nrq6TJxT6jvX0s+NoL41X305k4nKsLgFWK2Z5Oor4jGK2C7UnOMVt+2z+0v43cN39/XOBKw+7VhXuCnnbiPW1YsmQ2UY50enLqF39Nd7e0UnXlL3QD5/6LTnL64j3Falmh+gv2H0tGJ01WLVq0mY3YE7OY9uBHmXl09Xbz9s7j5K/6msYPUGitHzMviJiZ1dhzy7D4C5Ubzd5g5w7ijB6SzD6TkUxRl8xBgl/EfqzIipQRJS/+KwIf47JK0PRjx+K7pa1AZHB1sX7+fIdd3Os+zD9o32EBgd45MnnSPSWYhMBVe9qLB4hy4r8nDD0C8PLpp9RmtxHPuA9lVh8QQUuRfZ1i778BqzaOmyuNThcNeji5nP393/Jke5BJdUnqrxiPTQxMkio+yw561D3SY51nuRYaIBXt+zHvVAoPWXYRUDRvUqVFiatRYlSCmfuXwtcf2BGjICrGqtLzlktRIs6UEY5ieLMkr6UujW3sGlnp/K/EsP3R5/6Da5Zhcx0F2LNDGLKqFBzHauInXjryZzdSITdz44DPaqzODQ8whvvHiSv8ktEZRZj9YpQTyWxOQ1EZ0lmqMAkDZWPCKPMGbUqhDlgUNdKDFoFBnc5encpek8pUZ6S0xHpKSXSU3Y65GNlzPBJwuBpJcq/EbOvjsiU2ay+4Sa27XuXwYkBeoYHeeg/nsGRkU+0aru3Y3a3qGaGwy9LtaKX8s+VdPhIgHwaQIvOiwJXWZhJr7Vj1q7Coq3HKmV2RjWW1JWsuvYOtu3roKNLPMQ76TpxlJ6uDiWZcTpzCeq6Qr0cDQ3yyxfeJCJuttLDc/jasXmkjl+HgEvYCkZN2vCSuSo/s4fVj5W5firgmo9dBD9d9ap5I4xuW2Y5yXKDpC2mbs1X2b6/h/5RGRyP8Ytf/Z7sBaWYk/KwpBUqyWtLZh3m9GqSAs2kZVVzWWQG+48OKlMLaQBsff8E88tuQZ8mZ9gG9GkikNrMzKxVRMt51t2Mzd107lAiQCLDLGemNqzqodeMVTT4ZI1Ctmt9tWeFSL/Vnw6Lpwmb1vI/QjpgZ8e5PsbgWUeE/zrM2a0YXItpuf5LvLvvXYYYYpgJfvD4b4nOKFDg0mc0YvO2TW0/iDJV8fkJLm/FFLhKPwSucPYypYt3QAmp/nxefnMb3b0DdHedINR1nK6Ow3R3dZ7hFg4PDDI0AvuPDXPL3U8QmbCIWL+sRogMtThECDM8zLMzTTk3/jOXHT/t0+gjwRWziHse+jk9A1MrJ+NhgRrV0HDVIplH5NQsohevVRMv56GklVS238y2Qx1hmuY4PPH08/jyirGmLcLqkg3marXWYMioIjGnhXhfObroAFt3darMJR5O775/lIKqrxDrrCRehtQJJdjT64jztOA4JT4qLHdfNTZflWoIhAVIm9RowOGpJ9pTOxU1RHuqifaKpF1lOHzifRYOu6+SMyHseXG4b8bukeZJEzHuRmK1BuK0BmbK/zm1klindC2bsWc24XC1EedZjyVD5PLWovevwh5owpRWwJrrb2PnwUMMiQIz8P3H/ptYrUypEQujxSwEA3+NOlOq1+HTZJD/o89Vcg6+KqVXImWh0ulXTQ1pOskxSc7mtVxuz+WhJ57nZP+kMjAZ6ulirL+L4cGzzO/Gh8aUcdrm7T0sCl6DJb2ImIA8CcNLkAa/XGvCK/qqq7UKq8gC/x/95//W9/1ocC3hngefRmZ9sjnaMzHCdx9/lhmxs5XpgjQ0bN5KDJklONxy4zeijy+itOVLbD20T/mQDU7CT//rOTx5xcS4V2J0BjHLmr2s4YtRg7+OaE8JltQ83tx2GOEcTjDJlvf2U1ByNalaGU5pU6dU4EiqIi2winhpPqQFlfCP3rWcKG05Oq0AnasYnascnbMcU2Yh1owVHzssGSsxZBYT6axAn1mOMaMMS3oJ9rQiolODxKYEiU8rJSGjkpnpNcSmNxKT0YYjczVpuV8k2rcao0fK3mpM8SVsuO5+9hzoUhxF6YI++JMXiBVlLK0Ss5h6+4KYAuXoXfK7bFcPnb/1en3W3i9SFAZvs2oKSSPJOiWvJzJ7klQs3gaic1qZnrySlhsfZE/HKKMimDbYC8MhGD+LuCt2Q2Pj8Mc/H0AXPQ9jaiEWOQecE1zSKm6/CK6PCa7N2/ezvHwjjvSV2NOC2FKKsaWUYYjPx5pWiG9xEwtK17CgrI35ZS3ML2tnfula5pdcxYKSjSwsWcvCktUfP0rXkFe2lrnl69R1QelqFpW0s6S4jeXFrawoaqWocj0ri9ewML+NpcVXsaDwKpJ9FcwUyWy5B0SC/IIDV9j6KuwrF9auPAUuOR45cloxaCVoi1t4a0cH/aJ7PTbMeF8nE2MDZ8rCiTFUWfjzZ97h3yO9ar4jznwfDS6p+8+/ZckrYv7vMtc72/eSV7YOQ5owGgoU4TXBW41nQSvfuP9p/vj2Af7y7j5ef3cnf313O29sfZ83t+zirc37eGPLAV7fup8/v/vJ4tVte3hl+05e3baDP2/bzuvvvccb727lra1beHvrFl5+/XXe2voer29+l9e37OBPb73HvY/+jJxlpcT68zHKIuUFBa5TmiWyOS+mjWHdylPginRVYc1uUdvcV8TN4bnXttMnBgqjQ4z0nFDk6dMNjdFhONEFX7/jSYyJS5QAik1UnM7OXKLmpOrP5qlD9UVwfZyy8K3te5lVvoYo11Kis0qJ8ZcRmbSUxqvvYduRcXomUNruAxNjDE0MMTo2zNjoKOMjk4wKA1+M0Cc+fsjXDU3KfvkkIcbFxZq+yWEGJofCGxDjA/QNyZq6sEvFK3qE3rFx9nd286Vv34EuMYBRZnkXwYVNLIHd9UQ6q7EEmrEFavk3aw6P/OJFeodgsKeHsb5uGB85k7kG+uXAfZJlRRuJ1UqwaZVEZ4n+w5kzl8imSf1pcV8E1yc5c725Yy/ZFau4MiMPe04JsbkVGDNXsvqmB9l2ZESBSxoE0mqRBTwmxZZmBGWyJXth4UUSpVolsnAfJ8SzWkI+J7wPNiEq54ypP6PKA3hofJihiVFCQ4OERkc4cPIkN99+O1EpWRccuCSJhNW2Ppy5BFwNRLlkA6BRSTfMSF7Cxq8+QEf3CCc7TjA+2Mtg/1lr/qHQCC++sp3olCVq7duiiYCJCLWcC1zib9R6sSz8mGeut3fuY37DRszZBcTMrmB6ymI+75hL2twa7v7R73h7z0m2HTrB+4eOsOvgQfYcOMy+fcfYt7eTvfu6eP9AF9sOycd8zDjYxbYDvWzfP8j2AwNsP9DPjv19vL+/h537Q7y/P8Q77x1h884Otu0LsefYMNsO9PHj/3yRwMIyrK5lF9yZKwyusGL02WWh1S1iNg3otXp0mrhVVmPSivAvqWXH/k6OH+tgXDE0Tp7JXMdPDvD0795CZ5+t3BXF8V0GjwIu6RQa/LKvExbLFH1420Vwfexu4Zvbd5Nd1kqUtoTYWVIZVBKXXYdNK8amFeDQlmDLnIMjM4fozCxi0nOJTZtLbOpCYlMXEZ0+D0fGnE8Qc4lOW0pMSiHRKQUqYlLyiUlZqSI6ZQXmhMWkByqxpS7HlLSUZH8F9owCLKkr0KflX5DgEhpZWMrujFfAKXAZPI1EuOqUbZPFW8ZlVo2/bNrN8Y6TjAz0K8eg02eug8f7uPXun2JKXEycuPC5KjG4RehTBD8FXOVKyF6hWK1vS7//X/PMJd5XIlkW7RHGei1RM4OUt9/MloP76JmYUKIvTz37B1yzC7C7lmH3lKqZjtXf9L+24t/atptZxUK4XUHyHLEmkvZ2DQ7RQnSJ7aoMXINYPYVYVJRgcYtNbHgvyuEuIcZdSLSEAqMAMn8qCtT75P3/M4KkZTeRKDOs1GoSxBc4pQpjYgVJ/naiEkqxOcX/uUG5aQpRV+Z9aiyhvJhrLrhWvGQu0Y5XbfgpnwAx4pCRgfA0JWvpRCNkdju2rGoutXn46X/9Xm0MjI+M0HXyrMx1pGuE1o3fwpKynFhvDbKBa3CLc0b1B8AlJExZ35apvlw/a/OJUz/Pp5lznQaXGOBNgaui/ctsPriXnvEwuH727ItnwOUtU2TcvwWuTdv3kVeymsjE+aTk1pGS26rcK2UVXpdaTmRmubICMskANlCL3i/Wt6uJ9F2F3rsem6+eaG8FDk/56bC7haImi6zl6n3y/g9HjMztkoowJpQR7Wwkzt1GvH8tM+IrmBZfyYykGsxaOyb32dGGyd0aDpn5XGBzLmG9iIitaBqe6hSeAVcTkVojkeKaKgpoWbVcEZvNXd9/iiMdIcbHwhvJpzPXgc4RAgtr1LxFvoiIzxg8U27oZ2WuM+CS/ZbzT1rt72nF/7PAJXOuJaXrMCcvIS27nkTRfcyoJ3nWBuJz1xMlIqOuCma4KpmmVXOF1shlWhuXudZzpXMNBlctpsyS02HMKEbCkC5rQcWn3372x8jfzZklzPRVk5JTT2JWPbqkQuKymzFqNegyq0lffqOy1xWb3dM+1kqzUYziZdYjojMX1hBZlJKlJDwXuIStFOVpJtLfxpWZlZizaolMXUjLNbdyIjSsts8nz7Zt3Xm4nwhHALsoqooYi69RWdLo/efKXKLscxFcp8vCvzdzbdvHkpJ1xGTmkyi8zNRSol2NJARWYXbWhtkTQsT1lBPlqUAnbpKeJnTuVURqbdi0KqK1EhyuYhV2ZxGnw1V0+u2n3n/mWkSiv5jUnGLSZgtICokOlBM7qx6dqxRLbrOygw37f4lybtiqSInNKHtaUfu6MMElytE2t3BAwyGVkQKXtwWdr50rMuXoJK4zhXgXlXHoRJ+ytfsAuP6y5TCfuzJZeQIbnaLzLu7x9eilRFFGC+Ezl2QuMeKWjcyLmWvqzPV3gksy17KKjZhSlmAThkZaCYneJqzpArIyYjwiFb0Ei2sRZtdCzK6lmJ0rMWUGsWQEiXGuIDZzCbGZi4nNWEyMRLo0OsIhfz9nZCwiJmMOpkQ3xuQAdm0B+vT5xM+pIGF+A6asSuQhekp3UCTShOpm9IpevEQVhgtsiBz2BKg9rcv/YXBFelqI8Laj8zUR5a0mNqccXZyP9w+eVKpio6Nnrfk/+exrfE6XQbTILzuF7lKPKdD4v4BLOoYXy0LV0Pg7wbVl50FW1l+HMXWJyjgO4S+mlxJYtJpv3Pc07+wOcbh3kiO9IxztHeRY7zDHesaUVv/xEEorT/TyJDrOiuPdk/yt2HdMNh5GlJPmO3u6aL72dj5n1ojKXEnCvGbVCVbGBFPeVXJzhZccZWGz+gI8c0nLPWx6KFIP/wNc3jZ0gdUYc1ejc1cRk13OJeYMXvzrVsW5FNGv02eu2777FBGxs4j2VKpOYZRsn2Y1oxcF1Q9krhrswuA+rUl3ni1L/h30p3/WmWvT+wdYXHMNFtdKZvrLsTuDmBKXs/ra76j504CwZ5ickkjuBfpgsh8mhkD4afKKTYZl26TsELkGUZf6e2JYGB6DMDAGfePw2pYOkgIlOLTwGe6UwXp4zCJiLE3qNQ7LUddecN1C6YqfG1wy22rGEFiNYdYGDLmriXBXYfYE0cUH+Mkvn6O7b5iRszPXxq9+D1NaPtGK2V2LTjGcpTyQ+ZZ8ctg+R/iEpxwjPstij5+2W2jRKoiWFQ+tLtyKbwu34nsnJ1Ur/slnfo82R0RplmNzl6iZ4N/qFr6zbR/zS9Zjc+aT4KsgxlmENTmfq276Hu+8382JQVHoF/VxMVLrYRTRJO9lnAHGJ8MKweK1NXZWCBP7dAiL4xwxIoAagtAAiPb/wAT8efNR9DNziZyZp36WaK0ch7BytFpi3fXEuOpwZFYTnSkP0+oLElxy3hK7JjFGwIQ3AAAgAElEQVTNkKssfcoAWcBlymrHMnsdhqwWJe1uEPeYtIXc++gzHDgxTEdX/5nMVdR4K6aMKmJyNihXD527DINXrGaCUwpI4cGxRWtXljpSl6sB28WVk7975WTrjoMUVl2HLXk5cZklxGaUYEsuxLegmVvv+wX//eZ2Xt62nZd3bOLl99/i5fff5uUd7/DSji28sm0br2/dxRub93yieG3T+7z01jb+snUvv31pE5Wt12Gc6ceaPJsEbQVx2kritEISPKUkeiuYKb5fGSXEZJQq4Z4LjRUvmUvK4XDIufOURXFjuIPqa8IcaMbil11HAWAFl8fk8fUHf8N7h8bp6DnL/C5rybrwGcq3Fr2niQgtrNFgmwJXtKtZCXOI0pCIPkb5w9/w1Fzps3b9NJnrn7XPtXn7IZaUXUdU/AosqTJzqiXBI9Jo1apL61naRF75KvIqm8mrrCevspG8yhbmVaxiXvla5pevY37ZJ4uFVRtY3nQti2s3Ep8b5PN2L/qMJSTNqVZmeTZvGQ6/LGmKglMtNpFwzmolOqsNcfy40OZc6rw5BS61OKnGEWE1YRlPCLDM/qapdn01dk8luuQVtH/pEXZ2wIm+s85cpqQVxPna0LtaFbimu4ow+Uu4CK5/3LLkph1HWVh5M/q0cmK87diVDt46ZgY2EO1tw+ysUAuRpsyVmJwrMGXmq06hKaMUQ2aZWpycoRXx8SPI5c58psu5wFfCdHcxM7xl6ALVRPhriPDVEeFvIipnNfpZ69FlreEKd5uasU3zrSMq0HrBteL/FrgsWa0YfWJ4KGT2auxeETcqZUHZjewLwdHQ2Jmy8HMRXhKyVqPLaFYbmAIuc6D0Irj+gZvIm3YfY1nzLegyS7BntWLxtGFwtmLzrEK0SsLZvxyru1Tp1stmgmgB2l1ClBYzvip0/rJPFoEyorLL0Yk8Wk4V9gUtTPdW8O/pQUxz25khc82564iatZZLtEY+72pkmn8NM7LXo/PLPXFhzbn+Frhs2W1Kwi5KEzvbGhy+amZm1RDrLeNAD3QPnZW5PneFi/isVUQ6WzD5W5khPLfs8ovg+geC6+1dh5jXcAMztCCWnEaMUlb42nFkr8Xub1eMCYOzFIOzBKOzVJ2Bzen1mFNbMKY3odPKmOEJfqK4QstH5y8hwlvEdHcQ85w69Lk1XKaVoMuuZ4avjmmeei7X6vm8s5bPu+q50t+Gfs5GLHNWXwTXh8pCW067skpS4PLWEO2vISGnjssdc9l9MrzWc7oV/2+RAWK9wiVbjSWrHZ2nFFtOxUVw/QPB9dbOvcypX8uVrjwivfmY/KU4cuqwZ4k2fQkZi+rJCraQXdhETmEjuQVtzFq5htkrrmL2ig3MKmght7DhE0VgeRWzgg3MLW5mdlEz80pXkRtsIZDfTF7FRmaXXEXGggbcy9qZX3UjgeBGHGI/qxXjyKq+4DaR/2bmymlT4BKpOzFtiPbVqMz1uUgfWw9Nqo7saXDposWpohF7YAPWnNVEesux51ZeBNc/EFzv7N7NwtZ2IjzZGLMWYg4sw+heRsaSKjZ++3v89IVXePrPf+FXr73Ks6+9wq9f+TO/fvkNfvPSJn73p3d44U+v84c/vvqJ4vd/fIU/vvwaL778Z57/4yv89oU/8ZvnX+J3v3+N37/8Fn94dRPPPv86zzz/Oi+8spXf/WkLdz34JPNX1GFMmX/BrZz8LXBZs8PgEq9r5YjiqybGW8HndB7e3DWIzCxPg8uYuFxpYDuyr8Ii5aG3XCm6XogNDRkim2XO5RVThHoM8UUIK37r4f0y1g3PuX71e7S5QTXnsoqPk1ZJeM5VrdSfbFoQc2oem94/jtItmRhn06495NW0YvLm4Qgsx+5djilzMfXXfIvXdhzl+GjY6r2XYfoZYIBBRNF+cHKCYRkWj08yOfbJQtloTogMlXz+BOOj42ouPTHlSClGffJumZOJYXbfABw51se3b38Ic9Kci+D6UFkozYwocZp012Dz12HzVKrm02W2Oby8pUtte58GlyFhWRhcIluc1a7AFeUOXpCZ6xRDI8bXGAZXQjFVq7+qwNU7ER4if9TKiXSPRFrN4izEnJLH5t0nGFSD3jG27DrAoso1mDIWEO8vYqYniCV5Ea3X3M7W/SFCopGhgNXDICcZ4iTDk90MT/QwOiaOkRMo4tq4GOp93JhUvlEKQQpkYYtXxTKVLzsyqRQFJkbDygIjQ9B5oo/bb7sPe+rci+D6ELiiREdDfNw8NUrv36KVY0gvZMbMhfzhreNKmfk0uHSxIm5Zj82/HnOgjUhfORfB9Y8F19b3j7K07HqsqUVEp1eQ4mkkWWvAN6eNOx74Ne9s72T3kW72Hj3OvqOHVOw/cpgDh4+z//BJ9h7uYc/hvk8UB48NcPj4oIpDHUMcOj6s4mDHCAc6Rti6u4tdhwfp6IVDJ2Hr3h4ee/oVZi+tQZcw7yK4zgEuyVxG2fcSg3VRSssIMiNuIc+9fpjjobOcJWc45mPOFIXddQpcUT7RIL+YuVRZ+A/KXO++f4IlRV8mMrqYmNRmEp2rSdXW4UioIk2rJ2teE1nzysmaFyQ7L5/sefnkzCskd24R2XPL8S2oxb2w/hOFZ0Ed3vm1eCQWSNSpcC+oQ1tQj3tRI9qCBrJXriF9bi1pc2tJnl2FPnUJsdlVFxsa5wCXfmrnS4buAi6Lq1hlrl+9tOeDmWu6PQ9TRs1FcInN6NSa/z+6LNy84ziLS28mxlWPObkWc2Ididp67CkN2FOqsaeWYElehjV5kbJCVdfkpdiS8rEkFWLKKEKf+fHDkFlEZEo+usTl6JJOxQoiklYwIzkcurRCLp25BL2zFF16EL1Y2Cqnj2psWaJ0dGHpFv6thkaU+GZ767H4RR2qRoHL4S5jxsxF/Py/3/tg5tLFLEC0E2z+i5nrnwWu9/Z0sLzuJnSJK4kVW1hXI5Hx1ST415I26ypm+pqY6a9jpr+WuEANcf5G4nytxHnXEOtdi83bopom0jj5WOETc4R6bGqNRFZJwiFrJZYpvy9roImIjHL0Wg0GeSL7GzBnNWHNaeHKtODFOdf/yFxifNGoqGFiTi6ZS+x95cz1k1+9zbGzy0L9zCWnW/EXGxphgZp/eObas5/5NauIyJiLxR8kJlc2DarRpRUr/QwxcjeL+L8K4W42Y/Ksxui+CpN7Aw5/GzH+xk8U0Z46Yty1RE+Fw1PLqbArczpx1BTQhQ/oUurE5DSTOG/1Bbks+fdkLpO/EVugUXWKxbssLlCtwPXIf76OeG2fbmiYkpYRLQ4Y2VepbqFOuGfu4FmseCHuiuJTu6J9yOaqMIU/a4TdUz/PRxN3F3PPd/+T3v5xRkSBdnKUB558hivjZiGWrUZZ4xbGv6cOhxisSys+IUjV6q/w7qGDSvFWVIufevaPOGcXYhP1J1mW1CqUAqte6Er+BizOIswpC9iyu3OqWzjCpp27mFVWj96dR+zcUqxZJRg9ZUS5ilWIFa7JU4zJXYLRXY5Bq0evtRGprSdKW4fBWaf4h8JBNDvLsTjLpqIUi7MU61TI388Os6tUuaHE+SUbVp8VVcz0hUOWZJNnNeHwVjEzp4lov5j51aFLKyFSWCMXJP1JHn41SvhTNrINPimPRSy0AekWmv0t2AJiqyUmFBXEZ9UpcH3/Z68qdeTT4DInLSbWL64OsvzVyHQBl1fIu0XKpE18YEXxSdmneMT7SaQAwlJTp27oz8pVHOQl7L4GogPNyiTdpNUQkVLC9JlLuOWO79LVG6J3chhZSbzzyV/yuRg3Eb5yLtOquMRZjzF3PdPS64jKqCAqcTnFTdfzzs59yjJncAyeeuZltLwSrNoypiUvJjq3mUhN2rNN2P2rsDgrsaQsZcuukwyOTTI63sfWnfuYF1xPRMISEmc3o0sJos8sI3PhGmb6KrjU6GO6xUts2mIMMXOIjFmELaOStHlfQJcqYikNxM9p4wo5O6Xlqz2ySx2z+XdLQClK6RLy0CWeivlEJM5nRtICpict5MrkBVyRsoArk+czLTmPGUnziEiaiy5xLpEJ87jCkcPljtlEpa5El1qojPYinVVEz16DLadZ6VeKf5lyObn2Pnbvl/8X6vfx4H88/y/ncnLqXg6DS6qJsHanUkPz1RGlCbhWYfa0oc9sQJ9eQWJOI5faZvH0H3fQP3FW5jLEzydWidKsRudrJiJQqbhoRn+RMrlT7A2lm9Gi0GzylZ0/4PI1IuDSpZYSkbCUe3/wUzp7Tih/KVE8ePKVP/P/Et1c6lrKlZ4KDLPWcnlGLTpnHTG+Gq6w+rnqi3cQGp5QeuBisv3Dx35Lek4+VtcSHFllmMReyd9ClJjJ+ddgcdYombotu7qmwNXDuzv3sbT0WowpBZgyi7EpN8kyPmfwK4eTm771CHfc+x/cfteP+Nbtj7Lxiw8Qk1mILrGQ9AXrsXnK+ZxOo6D1a3z74d+x8es/YOPXHuK2h37OV+96lC/f8UNunoqb7nyYL935CDfe+Sg33PUjrrv7R1x7z6Ncf7f8+2G+eNcPuOnO7/PlO77PV27/Ibfd9wR3fe+/uPbrj3DjbU9y452/ZE7xjXzesRCTcrupUOaAFw646rG6G5QJg9lbiclXjsFfGpYZ9NUSpTVg9q3G7FmNIbMZfXoVCdlhcD3z8k4lG346c+miZxMjCqO+Neiz2ojMqSUqq4zzGVw20R30N2L3NSJlYmR6ObqkFeSXN9HV28UIE4QYY9uJTgxOPwZtAYl5NUSkFRKXVU9yTiPxWiFJrgXcdf/DjDGJbPV2dcO6q79OvDOPyIRcov1FJM1vR+eqJso1lbkyqxS4Nu/qVqv1krne3b2H5VVXEe1eSVxOMSbPSnSZi1nRcgMvbTtC9zj0yDq+sCQm4XAPfOex/yYqfQn6zOVEJc6itPk63jvYq7yZ++TjJmBkAobHxAMsPFseU3rzKEN10Z4XbfhTIX5aojkvHytSAaeGyH2hYYYHYWgQ9X88GYK3t3bSvPYb6JMWYfJeiOAS104xdz83uEwKXKswupoxiLdZoI5Lbbk899d99I6dlbmmW7PVWrvRtxpTruz11J/34LJ6xE2xQXXKzFotBmclhrRCdPZ0duzZp1bqTw4N0MMkv/vzG0QluJipLSQ9u5hkTyEJGUuxxnj54k230dc/RE9PJ8ND45w4PsSKgjqu1Cdiz5iHTVtBVEYhjizRAmwkWtZHPgSu4fF+tu8/QHHr9Vi1xcTmBjF6l3FZ8ixavnIPm4/30TECodFxescn6UeoULD56BBGbRm6jIWYU3P4ziM/p2cM9h/vUaZ6I+PQ1z/I2JiYF44yNj7G2Pg4I+PjDIs6sDBKBIDCEhmDcQGhpF7RBpAnxcho+Do6GUajyAQMQl8v9PbCd+5/nCut3gscXFIWnspcFUpKTe8WqetVSkjVLHbGmZXE+qq5zJ7LnzYf43jPWftcl5v8YXB5V2OetQb9rDoiA6XnZ+YSsXw5d4kEgUdc5cWZpVaVhmZZ5UjI5gtfupXQ0Jg6M5zoCTE4Ps4rf3mTopI6MjJnoWl5zJtdyI9++CRjQ+NMjorjSA/jQyO88NtXWLGiAs2/kLTAMtJml2B2FjIzpxmzq54YXyu2TDlzLWfTrlA4E00Msnn3XhZWrMXoWkx8XgVJi2ow5wRZ2Hg1v3pjGwf6xjg+MBxWfuobZl9ognuf+G8uTZiNyZtPjHsBBTWr2LTrKIe6BugeGCPUP0xP/yChvl56+3vo6e8l1N9HqL+fUP8AXQODKnr6hujvGWagZ4jBnkGGQgMMh/oZDvWp6DrSwWjfCIOhYTqOhjh5cpA//2UrbauuI8a5+AIGl/hNi5VWxVRZKOCqRi9aGt42jNLk87RiclYq1ePLHbn8dWdIKW2dLgsvN/oQz129p12BKzKnRjU0zsuyUGw1xZtXASwMMmW16a5TAo+2jGU4Uufwyju71VLb0PgkQ/IEH4eh3mFOHOrmyJ4OBrvDvj2TI2NMjA4wNtrN5OgoB/ccZ9t7B9ixu4Mtu7v47Z93s7jyBgS4ctaK87Zgy6w4DS5RWxqcGGLznsMsqroOXdpK4uaI6Go5V2bkc0nCPOZWbOR6Ofs8+FO+9Z0f8/V7HuWb3/0l6Xn1zEgrxOyvZuasCqJS59Fw7e3c+t2nuOuRX3LXD57i3h8+ye0P/kidJeU8ee8PH+OeHz7O3T98gjsflniSe3/wFPd972fc972nuP97T/HAQ0/ywENP8MBDj/PA9x7n/oee4OGf/IqHf/os37z3x3ztrkepWX0z1hQ5LhRegOAS2cCmKTP3/wku6RoaPa0YpQ/ha8XsqsSulXB5dA6bDgzQ0XcW/ekyg1dlrih3myoLIwJVaqnufAWXAEvOWeFrGGA2j7SX64kL1GJMXU7u8maef20bw5Mwpg4qE0gLbKRrgLGQUMMnkXeODA4T6pHumOiAj3LiSIjurmFVaskZ6eQIPP3SXpKya7FmVjJTBsSZ5VhSlrFpd4jecVFcGmbTnhMsKL+FS2ODGGUL2duKNWcNUVo10xJXMCM2D0PcHMzx89DZctDHL+cyx3Is3lXEzbuW2PnrmO4q5bKUlVyWtJRL4ufzb44cLonO5rKYbGYkzj4d0xLncGXSXK5ImscVSXlMT5hPRPyZ0MXnERE/T8WMhHlc6sjlstg5XJGQxyVxc7kkPo8oLYjJJ3t9Nao7fGF1CwVczUrp7FyZS7XkPeFjgCMgBuTlWLUgl0dn8d7RYY73jJ6Zc12q96huoc7VgiG7HV1WNTpf8XlaFtadBtWp7CWlobAUpLlhkZs/0My0+MW45lXx89+8xrs7DxPqHmKkT7oD4VO/yAUO9MHgKPSOicjZiGo/j8u/+wg7CYpj4wS8tLkbU2o+1owyZR7uyCjD+gFwjbBpdycLKr6BLq0Oo3sVEU7ZLpZZSSsOv8i4lRDnLCDZXUSiqwhjYiGxPvHdbSfKvRZT9lp0Ig4kjIvcVvRaJdOS81VbXpeyHJMreDoMmlCYiojSilWY3OVYPBXIVe8qRZdZjMFdQaRWhk4rR6dVYMiqY5pWjj67nghfNZ/PKEaX3cAVshl9robG+L9yK74Bq3YKXDVnlYXlYecfbx1GbzNmbxOOQItiaJid+Vhci9lxYoTO/rMyl5SFM7NamJ7eQKS/BcPsBixzas5LcJ2aUZzrKvYvl6bU4ph3HWZ/M9GBSvTJc6lqu4Fv3fkDnn76JTa9uY933jrAm28d4vV39vPq5r28tHUnf3xvG2+8t5e339nDq69v49U3dvDapv388vlNtF53H+a0AmyZZSR464nOKMWavFSduXrGoX9ilE17T7Kk+tvMSK5Ww2GdsxlTYA32rDaiMkoVOGMyVpLgLCDBGSTBU4MhrYro7I1EauvQ+9aj963BPusqNWPRpVdhVtJ2NUSmBLFqFSpEc9EsupNaFUZxqhEn+mwxVKglyi3y5I1EaLXY5q1nmrsBXU470wOtTMtq48qz4orsNiQiAqJ6dIFpaLjPApendmrOJa14aWxUEuWW7ewmpYVil460twJDxlLmla1hd/foB1vxttSlCN1HwCVzrqjcWky5Vf+S4NJ51nBpZhtXOOtIX75ReWJdGR3gSotGhq+AYNk1FJZdS375dSyv/AJLqjeysHY98+tXU9R8DUWVG1gabKW4biPBuqvR5lVgTpd9uBLszvIPgmt3CAWuyVE27+ugoPlWjFoZkS5Z6anCktOALasKi7sQa+ZCjPF+rIlZGGJ9mJIXEJW6AntWI3Fz1qFLLlOcRIcMxGOXc4UlD0viCqyJSzHEzMMYMxeDROxc9LHziIrNIzJuPrq4BUQmLOIy+ywuc8xFl7qSiNQConMb0bnKiZ63mkh/Azp/I7rAVJz1d9GQv3DB1aicTsJD5DPginBJtheKWngWZveVYXIupWTtTRzoD3tbn25oBBa1YHXVMCOjkQhx1siqOm9b8efKWKfeZhLjMv8GLnGt4XJNbGAasecI+6GIGH8JCf4KrKlBLKlFmNKKMWQEiXTmo9OWEqEtwOhciD1tEba0BVjT8jCmzsOQOh+rM584XxV2Z8VHgmvT3oMsqdmI3rmIKG0ZM6QLlx0kelYhy5o2submb/CFr32TjTffwqovfJH2G79JfG4BOudSjFoQe2o+eutcVq2/l9ZVt3HDDd9lw7rb2Ljh21x39e1cu/FbXLvxm3xh4ze5ZuO3uHrjt9l49W1svPp2Nl5/J9fe/B02fvFeGtd9E2NiHvrkRUR7Soj2V2LxCuNG5jlVSjdezhmn4kI0YhBlaavWgsX9EeByitRduCowahU4/KUYnYvYcOv9HBoI+0+fBldF2zeISi1FSpUITyMz/OcvQ+MUkM51FQqRJWcDOt9aDNmruDy9FHNWjTqX2APVWERU399MjL+VaH8bjqwmbNm12HLLsc4qwuwtJNZbSlJuJdG+IEbnMmUfE+0Tnl8JNmcF8aosFDXdJWza1a0aGv2To7y9ay/zS1dhdS/B4luJNauACNdC5lSt4ckX32B3dz8nBofpn4RjvUPsD41x6/d/ziUzc4jJFoXepSxduZqde4Y5dhz6emCwF/q6oL97kqHQJIOhSQZCk/SHwu/v7YGeXhiQF3wQunvgaBdc99UHlZx1gr+IaHcRdk+ZYoBYxeTOI8YDZ8Iq/gGeC2zlRIGrFYu76ZyZK9ItXuHiPlmLUaTA/SVEps3jmw//gr09Ix8sC6//xk+ZPrOAKK1tiv5Udd42NM4FqlNvE8dAR+4aotxNWLNbVFlkFUms1AL0YpfjEyXV1Zj9azFPrd+YsxowZ1dizinG4BVSbSX27BocOdWYfaXotSBGl/gaV2J1VhEv2hsZJdiTFyMMDekW9k+M8I6Aq0TEPxcQNyuILSufK9PmsOHbD7HleB9H+kfoGRtXykE9IxOcGIZNhweYnjwHm2cl1sRcfvLE8wyOwOAgDA/AiEybhXIhTRjpeJ4KkQGYCJs1iGGDjBnGBkYZGphQWvPbd3dimenHnjaflOwyot0lyD6Sw12O6MbHTEWsVq7sZS9McLV9JLhk1mXLacHir1Nlvt1fzPTEHB79zcvs7OonNHyWhdC9j/yeS+1LMXhXTdGfas5bbuEpIH3UVZje0kCIya7HqJViy5ahYAXmrEaiPE0Y/esw+jZg8m0IkzMDDViyKrFmB7FkV2OWYXFOA8ZANXpfOSaRIPNVYRXPXGe16haeAVeXchUZmBhh066DLC7ZiDl9pSLdGl1BopyFrGz+Ci9uOs6JQeia6kIOjUNoBO7/yZ8wZRZh0UqJSppHScsNiiYVEhrWAPSNQr8I2/SNIcQLRYWaCNOnRIFogHAIAUOcTgSYgsMHfvws+oRZ2Fz5OLzSSRSzDXH2qFftZ+HV2dxictigrISMF5hta7gsFHA1K19kKZfD3MJwQ0PvFXA1K06pbDXY/UVMS8jmuU272B0a5FjP4JlW/I/+8w3+zTxf3UwmETxUDA3hFhZj8VapXS/bh4i7ls8oK/6jQBV+ey2m9CLVfJgZqEQOoo7sKuy59eH2trcVnbaaSG2tCr3WgkFpJZRi9uQrO6XIQAuR4l2W3YAhqwZjoAprVh1xOeFza7y3UZkYhDPXKXANs3nnEZaW3IgtXYzu6pWhucVVQ4ynmsXlX+Tmbz/Odx76Ffc/9CseeOhZNlz3EFmLNhCVWIpD3ONTF+MI5LOy5QY2fP1B1tx8N81f+Dobv3IHX/jaXVzz1Tu4+pbb2SjxtTvY8LU72fC1u1Rc89XbuOnrd3L9LXdS2rgRz6JqbFo+Fk8pUSKu4m1Ar6xaWzHIDM7TpmZxJpl7iifyBzaR72PPgZPKh0q4ig/+RFjxVeEOZaAGvS+IKSAtfxl/tE+B9bNpNfXR94qcuT4aXDK6kLIwSqtAlxEkOlBMRHIObx3q5uDAKMfPBtdvX93O56JciBVK3LxmJVCj85Spm0nqSnVWkTrU3YhN5KTEdlQsVj6jLif/288lP79d6XtXY5MHhISIjPga1NzC6JbhYDhMWgMmoVPJzeMuwyStbHcjRrWtK0z4MO9MMld0oB6Lq5qZ3gYFLjlzbd51aog8xuZdh1hethFr6griPJXEeuuU+YXJVa0sW+OyakibV0/a3BrS5lRhcRZglrX+tBLVVte7glj9xUSkLCbaX0y0twircwVx3iAJgRJiPUHFpoj2FeLwFWDzF2ANSOTj8C8nPmsFcf6V6JKFD1mAzV2sMqJJdtGEoOppQBo+0mIWswG9aKGLpZRPbFtLsWkVmBKCbLjuXvYc6FC8xTC4/vsjwCXczlXnKbhOWRMLeVccfSRzCR7CLpxGfz3mQBNRzgq1A+dwFxBYVsP2Yz2cGByno7vvTOZ6Z/dxHK55GDLmE5srg7Jy9MKh8tVj8MmTS37xQsOvw+6uwaFVY3N/dpcl/zdwfbr3NWDT5CFTp0opi7ccszQzvBVYPVVYXFXE+RoQ18jT4BqTM9cEW3YfZEXFGqypC4jTiokRkCsgN2LwNKNzVxOhlRChBdG55fwbxCBuM1qZOjTLuUfCJCWsuwKLnPE0MQCoxioLe65KTFql8grTu8uJ9MhOXik6bwlRvmIM0oCRHT1vMRZ3KVa3NClEj/7MaykgE2sovews+evQBWrRByox+Iqwia5GQiEbrr+bPQePMTQhC6eSuZ4jVraolafb2Znr/AWXbcrg8VRZbFbgkpKwSrmtigSCydekyOAzA7U4nMupXvUl9p/op7N3kK7QWeA60D1KYcNG9Gl52APF2LJrMAfkl3wOcGm1yKzlIriq+Djg2rz7EMsr1mFJXUysVkq04joKP61JgSvKW4fOU06ktwS9twijtwSzp1x1MM1u0cgTb+IqdTW5pbNZg1U7ExatGpMMjrVK9J5KIr0V6Lzl6EQmz1eKwSdMi1JM3rKpryvgFGDKaxku26ThY/EH6zsAACAASURBVPLWq9c9yl+PLiC+2GKqfaGBS3y/ZUE4fOb8MLhEY8TgrsfgrCBWiL3JC/jqnY8qTmFHqF8tHJxuxR/pmeCLd/yAaTOziMstJ3qWqNt8ROa6CK5PlLk27T7M0oqrMMvAXszlVNOgHYPWjMHToioEdSP7yzH6yzD7y7H6q5QunlWqB0+t6mgaPAI0KVVl47oOq1arQmQKzOICqUmDpopIbyU6CV8lUb4K9MLs9lZgFHVYybLSgFHgrJ0ClygZySpFg/pZonzC1mm4gMEl0hYfBpeUhcK1FLZ8IyZXJTHuSmY4snn86ZeVdkbv0KhakzsNrmN943z/Z8/xOUM6CbMqiJlVS5RHXpC6qbJQHPTCBuOSsS5mro9fFm7afYQlFRsxpq7AoVXhcDdhc6/GoLVicIf9nozywgUqVUPAIo0Sv8gVNGITSpp36gykSvSGqXOwlKn12KZAJtsA6lzoqUY6WpG+cET5pFyrVToQRlF8kjUcUYFS2VO2BaTknwKXamA0oL/AwWVXDbxzgasao6+O6Jw2VZrHCD8zOpuX3tqNLLDKZGRk7CxnSeGr/ubVzVxiycTuKcCRU4XRV3UWuJo+AC67cNPOw2bGpztvyc34yc9cm3YfZVHlFzCkFaiVebu7BZu2Wu0EKXBJxpCyzyeZqxSzrzLs8uhtxOqTzNaC3t+qrqIMJQRkq6cRu0fa5vUqC0n2EnCJzLJUHlEKYDXopYzxN2H0yVmhUT11rfJ5singngKngEuEVzz1GEWIxRcuD5Xh/AVYFobB1ahGEWfKwnBDwyDqWLlt2OQhmVlEZnYxW/d00iuy4GFf+DMNDVkDf3vnUVJz8jFmLsYiNbpHGhtSHsqLfgpc9QpUdk2edudbe/Uf8fN+cnC9s/sYCyqvIyotqDKNApdb1sRbMEljw12LXryoPcUYPUFMnrJwl1Krw+xuxiDOn742dTX5WqbA1YBdACKyynIGO2U16q3BqBSLplSL5PDta8Poa1GSbQJMmyf8uY6pJpXqArtPKR6FPa8ly8lD9kI8c4kgk2peSQl+uqEhzR2hPYl1kIxTqrGkrqRu9S3sO9aPlITDYyNMTJ41RJZUtvt4L8HGazA7Fysum85Z9CFwNaq2qjwlBVyfPgucj1/jU4BrzzHmV15PpIBL3dDN2NxtmF2NWETwRHX6pENYgFHLxyQmdVoZ4UZFA0YFrHYMvla17mBREgZ1OERrUFGWKrC5yxEKk8VTqW4IaSGbvFLGiLKX+Fm3YvY2T2W8OqI9omVYhUirOYSNoZUr4RxxsD9ltm0Wxrf3ww0NcW/51+0WipNnGFyyMHmqFR8eIBukopOmUWYFM301mJOW8M17Hudo5xC9A0OcPHmCkyc7z2Qukf/acaCTbz7wOJFJczB7gtiza1VteSZzSc9fzl3h7HURXB+vW7hp73HyKq7lstiF2D0y0mjEoTUTH2gjPquZhBxZ8FyJ1b0cfcYCUvJqiMuuJDG3ibjsVmJmrSdm7kYuSy5nelq5ms2JXWjyrAb0KcuJ9ZZgyliJQTFAinH4ZfVE7I1KwmVg1lpmpFWjy6giWixwUoK4F67Bnhkk0VdORGweUUmLsbuCJOfWKQXZWL80SIrQaQVh0UvbYq798oMc7+pjYGyU3tERvvPIs8T7arBJpvRUqDGCNacKk2zyqkFs+Kx+ft0vjdiUlKCAS8YT1Rj8suovmatSUeBishrV/9sUv5DH/vMl9h48yZjQ1/pCdJ0NrhNdITr7xnn8mZeZFuNXaxhmX4XaAVL1tyoLhSHcoOpyAdj59cv6R2XJT5O5jrKs8UvEBCoUMTbaXUNKTjsxMqtKD2LNWMot9/+MP717lId+8XsSsgsxpC1SPrsyj7oiqZTYORu4JCHIlUmFOPzVxPjK1DaxMXUhBfU38ru/HuKJ57aypOo69XaLcyUWLcgV8QXYAquJzKhhWkIQi7OcpKwadLF5xLlW4khbxF+39/Dy5hOsv/m7XG7xY01fhi1jBTZPEKvwD72VRNiXsHrjbRw4epL+sVH6x8f4zqO//pcEl2h0yqq/nEGVKKhfyLrhkI0Bu6eGmZ4K/HmNvPDSNo4cDdETCtHT1UFPqPtM5jp8+Ch9I/DGtsOkzQpi9wYxasXqi34AXO5waRgG14UIsE8Orrd2H2J26VqsWgHp85qwiNl3Uj4xmUGSvUV87/EXFFm3BzgyAA//8vfEuZeoAaU5oxC9s5J/i12JI6sBfWaQmdnlzAwEifMso27DLezrhu4JOD4ozan3VdvflrGIaG0l+rRirkwoJT5nFaaMUhyuYpL9pSR5CkjzreRgF0pV6mgPbD80wMab72WmaxHJvnxMmcI5DRLjqyLRXcvN33yYfYdP0D82wjCT3Pej3/yLgusU/emD4JLdLptfxh8VmFPzaVp3Ozv2hOjuHqTz6BF6Th6lq/P4GXB1nuikq3eEvR2DtF5/B5FpizB7ZOAoB2OR8JWGhqBYwCUMhXB5eOFlr08Brl0HmFe+Wqn0JueUk54rN2sxKZ5C7nv4GY4rF/hJJZndNTKh1IB/+fwbuGYXkxQoRZ9RhF215itInF2FMX0B5vTZ1K7/Ep0j0D0aDiH1ipHeX987SkXrDaQK/clVQoy3mZm+BtJyG7GmLsUUP5tUzxI6RUZtJEz2FRk20Uw80DHIjbfcS5JrHs68CpW5rFopOsdS1l17pwJXaHCAwcnxCxJcDmFleKqYZp/LHfc/TVdINB8n6OvuZLivk76erjPgGuzvo2dglO5heFDkvBxZ2ITxfRa4jB4BmJSGF8ElDxVhkn8chsamPQfJq2gnIiGLmZ4VWJLnEe9cyp33P8Wx7gmOdfXT3d/HMOMMM6GEPA909vPY039U284JOVVqi9jmDhLnL8CcPov6q77EwdAgXUPjHO/pZ1DY76D2iTr6JvjtH9+ipHYDzlm1WNLKsKQGSZGF0OQ8AnklbN/bqTRCDh3rpH9olIHhMcYmYWgMDh0L8e07HyTamUeUu5DE3AZ09qW0b/wWO/YcVGeuoX/xzGV2t6gRlOq8TpWFkrkcgRpivFVExi3gF89uUtsGk8rtUyT4+mBy+Ay4JsdG1MqCaFw/89J7WLUVqmP4AXCdyl4XM9cnYmhs2X+I5Q1rMablEKctIiMrn4d+9Bu6+2VlZIKB4VF6B0LsPvA+HaGj9I+PKIDJ6smzL20lI6+O6QkLiPMH0SVkUdp6DduPdBEaG6d3bJSB8RGOdHZw8Nhxeobl3xAanOTVN3dQ0/4NTEmF2FMLiIyZzazFtby55QCh/gkGBVDjYwwO9rNnzy6GR4YZHh1jYHCEnbsO8NW7H8XoDWJ2FqnMddUN93C4o5vhyQkGJv5Vz1xNynTkDLhqVTNDzlwCLruvGktmCVmL2nl90wmGT8kYTwzDZP8HwcXkmBJhlQnz69tOUNz+NaYlihjkmbJQ2NKqNJxix1+YTY1PXhYe6unj1u//mMTsRWh5RTz8xHN098HAMPQPyM3cx2uvvcC116/hZ//5Y7r6TjI4Mc7JgVFldP7UC++RMb+OqKQ5VK29mX1dQxwO9dMzNqx0Ed/btYVv3fkNbr/7Nnbv28vQ+AShgRF6h+HVdzoorP06UTF5zFrcxJad3XT1TTI4MqGANdAf4pEfPsCa9nre2/o2Y6ODSkZuZGiYHUf6WP2tnyJlYWZOKz/+2Z/o6h2mf3SEnpEh7v2X7BaeAlfrVOb6ELi8VUTMXMba67/HviMwIgxmyVzDfSpzTY6ftc8lbtODw4OEhkd4/2g3tz74BJfYAmooaRIrG5fISLVh8YkBWyP2rAas4ud0gQ2Sw6sZoh8ug0WxlwlrTcgsxOquJc7fRLRWTZxs9WYs5b9eeAfRFu2ZWlw80HmCBx79Mfc/8phqIIg8opTiXSPwwl82kbukgBm2WBYXlfHY07/jSGhUncFCshQ5CT//9Uusv+FWjvdNKkm3Qz0jHOod4e09h2i+5gYuN0fjnLWAb933A97b34EwbySDiTbja3/dxRe+eDubdhxVLhySEU8MTnK0d4T7HnkMnS0WW1Ia66/7Eq+8tZme4QlVMoaGYOu+Tm679yf85Ik/0NMPnd2DhAbGkZ//ulsfIUak29xCGJZWfInac4v0hNn+0m073+4TJSIrcuj+JiyK1dKgDMZNvjq1u+fwVzIjPo/v/Ph3HA1NqjJ6YnyCod5uGBtEktVpbuHwYC8Dw92Ehjs52tfFU8/9gTjPUuwuMVIWBdu12P3rsPrbsARqseRUYPF9Ni2E/pkvpMw79GrWIRldtOvCO1CitWDVmoh215MipnGBCmK0ZQSbr+H5N9+lG9E+HGZ8JMTIUIhQXzd9YxN0DMHhIXjsD5vwFrRi9qwkJjtIZNp8nAuqeOipFzk+AHKDjwwNMTEyQKgnRP/opGpgdIzBGwf7qbrm2+gyFhCdJfY/i5mZlc91t/2Qdw/2I8AcHZOd/0GGh/oYGh9Hmh6iTX9oBG649ydMT56F1bscs3sxZtd8SlZdz/Nv7FAPhoGhUSYHQkz09zDW38/E8CR9vRP0DsIzL2wld1k7VmcQkyaSB5XoPNVE+OqY7qtH5w3Tqf6Zr8k/42ubPbKnV4ojtx5x3bT429C5mpR1kKzkWLxFOBdX8uvXN3O0f4C+8VH6h/oJdZ9kWM7NAwNnwDXQGyLU20Fn31EGEBmwQ5SvuomIuCVYnXUk5V5LdGAtZlmD91WhE90Id8V590T6tC/EGXBVK/ZKGFxNah1cwBWVUk7mvDVYZTtVy8ecNoeVdWv5/dvb6BoaZWiwl5HRIfqHRS8DDg/AEy+8w7yqq9Fry5k5twZHdilmdwHT42eTNquUn/zqdbqGpgDChGo4SOOicxRe391F9Rdux+RegcFTQExuGXrXcmYkzsHmWswX7/iRaq33D4/D+BDjkxOKWCqOKgLqq29/GJNnGRGZi0heWKNMH/SZC4hMyaW0/UZee/ewEkJlbJjJkRHGh8cZGZYzIjz9u7dYULiGGFcBVlcRJk1MAAVcNUR4a4nw1RMp7PHzMHMJuGTlxxKoVoux1kAbJm87VySXMj21iGmJ82m96S62neihe2Kc7qF+egZ66O7qpPvECUJdZ3ULR4b66Q4d58jJ/apbdbR3kJvv/BGX2+YS728hPusqHL5VGLV6TMKt8pWqtYVPe7Oeb59/Glx++R3UTmWuU+BqJi7QjjGtDFtmCea05VgzF2HJmEt+/Xpe/OsWhobH6ZfOnsxEhuAXL24iO9iuVKUcuUIzKsHqLyMmu5yYQLEyp0ufXcJTv/kzgg9JQN39o3T0w7Zjw5St/xom90qicyvQe4rQOQuweIvV4FeXPJ9obRlfvvs/2H8spIDVPzJO1+AkMku75rbvoxN5OE8+lqxiotz5OHJKsPkKMLsWY3UuoHrdLbyxZS+j0mzpHaSvf1zZFT3927+wrHgNjvSl2DLFp6wYk8gFuKuI9NSg89Wik4XLKQb++fY6h8FVqsCl16qwiHCRp42I9AqiXOVEpi/m/p8/R4c0jZigo6eL/qFehgf76Q1109fTc1bm6u8h1HOCoycPKd8qEbL82W9fJ3NWHQmir+5tw+FtJjKjAp2zBL1HFvkuzLJQ0WAUmfXD4Gohzr9KZfo4cXrPKCLOU0ycR5R4F1JUt5HX/rqDnmE40Q//9eK7zC5ar9b2dZkFmEX9V/QD/ZVY/eVEB8qwuQuJTM4jd0UDv/zNS4RExGYQtuzvpeaqb2J0LldWr9asaoz+KqLcZVhkyOkrx+4pxpC6FOfcau544DH2He5UojcyZL7pnh9jc4s10RJ0rvyw5oWnBFt2FSKFLawM0diI8xay5obb2LxjPyf7J+mUjPX/kffe0XFW5xrvvz4nhWZr1Hu1rK4Z9WJZrti4SlaxerHlgjGYklACKScBAgkQQiAklNBCCAEHEjgQCKG3ENMTwDbYuKhO1WhG5XfPs78ZS5Bz1k1y7rprsY7W2usbzcw35Zv97Pfdb3meJ16nfl0fSfmrSC7aSJJddAEtplFTvWbRpZ1Eid233OpoVnvLFw9cEl9oNZFBW7G2QP3EqANdAgz2JuqazuGpNw8amSc3kxx3DuN0j+H1uBgZGsLtnAMup3MUl2eMUdcQQWYMvdffjvjYccEN2NJWGaV5KU+qWNFW2EhMiQhb/i+CS1wKFl947GcslyVpm1K2g4XVCre3sahqq1V7lreeVPsmUvJX07DlfL5/40Nc+eN91G06j7hiVcK0ML+wkQi7OBq6WFC8mcTKDlKq2oiQJGy5XMy1OOoa2HvpD7jp7sdY3/01ovLOJEnyusWbDUVcTEWPoVmOKe0graaPGFENSAi7vJXy5W2cc9F3ue2BJ9h16Q9JKVlLSkUjEYUbOC1/AwvskovqYkHhZhJVT2hvJLpgA+nlzSys2Ehj316uvfXXXPjdmylb1UlS0VlEZq8iKnc98fYWU3Rs9ZGJnVedFF2mf0zXKNw39kUCmOa2ZIMiHc0sKGwmqWIr8YqSl3awYNGZ7L3q53zkDOCcAff0BMOuEUadw6am8NinR3GOzSl/8nrdJhTs9DiZmJ4x4VutUj++/XGiM5aTVdpOVqVaGyzizJSqHpLKv3hRoP/tD2wRlbSGasxEZ9wTSk+IjH+A2KJ+Ftaci3qBBDDTyl/cSrK9mdzKTrIdTSx0tJBb3UNCUTOx9i1EOzqILOnilNwmbKUKFokgpsMALL60iVj7JhbWtJJdvpHYhUtwLO8ivnCdAYCaKcX/LmrlU/Nbia9WW8lW002slgi1/WdU9pBT1UxS3hIKFjeRWLyGyPw1JIsbo6yNlCXbmZe5gdhK0cr1Eq12Ci0c9haLZ0PV+cUrKFyuIuJmovPXkCbLWtFOrPTOHOLuUB9Zl+mQFie9WXgqxAP5xQSXtJAlPiFmrCh7O4llvaZpVQzM+i1u3/cchz1Bjns9jPlduCfcTATGGff5cI45mRj3z7qFExPj+Cf8uD0e/MFpfAEYdsEfnv8rqxp2k+loJEvJMzEA2dXW0GUa7f63k/WLdr7AFas2fCUTxZ0wB1zxJQNk1pzHaRktROdLT3mH6TbOrBgwVGqxuU3ELmokuaidVHUPl/QRZ5ikthJhF1fFABGOHtReH1/dT2TJFpKqOkmr7SamaBNJ9k2kOhpYVNtJWoX4MtqIL+/ljMI25hd3EeHo4/RCdZAPYLP3Eu3oJbligNjiDmLyNxCXv4pEu/r1NhKRt4Gkqm7EBZFQu4P4mp18JbcFhc8TqtQZ3UNCudygbmIcTUQWryVKHIdVW4gvbSGquInkyh6SKtWh3k1cifSqFD1VBXkX8eUanSRomDTFF8s1FLjiytpIquoxiqFSJU2Vm5u3jrZzruTF9z7liMvLUecII95hJqbHUZvktLTevAFm5nYiT89MMSWpT2X2vQGcrgDDY0EOferlku/cTJZ9LYvKW0gs2kx8UQuxxe1GYO6LBo7/7edVXiu2fEuIUz1sufpMM6Oy+cnlu4gq6CWuuJ+Usu0klWwluXQrySX9xBV1EV/UTbJD7f2Sp1FpjXqzthNZso2Yih1Eal9b1kdsRV+IAbiTxEpF8ZpN+0hKWRupFZ0kih3YTOY+bI4+bCVbiSrfjs2xlSgpzJcIINuILxMBTi9xdu3fNpMktqoSBR70HUTh0EdU2VbiqncS4eglSppT6nYu7SOuzKoljSltJ9qQ5jQTZ0qArGZBLSzxEnPXcw0tm/g3LIpnKwfYbvKAX0hwyfrqty7pIK1qq+HKyKjoIcWxicuvu5tPnAGOe9wcdw4y6j1BYMrHjKE4hkklFafnaCLPMINojwPjU7id44wMuTkuDrbRCR7+3fPUre4gOf9MUuyNxBe2GL49dbL+byfrF+18TRqVv1hWy+rW1cRSikLdwgKYLFiChiHyF4jCw3Id9ZieI8LNmNIdhoAzumw7UWUDRJVtM+Sc4ssw6oUmlyYQq/O1A62o8WZVlZXQc7YSbc7RudvR60gdVK8ba4ZIPbdZnBll4QZKuTzi0+ghWvyEZVvN++r9o8sGiCnbZtioYku3Ele61XwO5fZEnhNtoqTh7nS9fz9WzanVqS76PcPca5Lrqr3UZ/7iUfAliFOyyhJhiCrcQqquV94matbtYN8f93PMPWGCGMfHPmXUfZTApCfEHx6q1JiZA67J6SkmgzMEfNP4VBUwMs7IoAunc5wjx13s3HsFMRnVpEttwy5Cy+0ki8Ph/1yFhiozVJWh6owQuIxraCWTVR6mCRl/cmj1Dw0DPoHKGpL9tNhtQxO6TBNZQ1paIueU7q4sgeVqGXfr5HvqMWtyW+dYIIuRJQyx5eooyyhwmUlv3FgBVauyrJa6HUThMPs6EnQTqMJjFlwWsMR8NJf6Qe9tgTBc1B0CV6ncwXA38xcQXIpwVghc3UTkbCarspfo7LXsuewmPnVOM6KOY486SY7i8h4jEHTDtHKJEnQ3BRqzey6X18O4b9Kq3BChhh9mAjA9aRH333zbveQ4VpFWvMGE5rVhT3T83wtoWOVPYiC2hiaqNfkFAg2BzKInswAidt7w0Cq/7b8ZasEPAyrsZn3e1bJAZlWFiEDGAtfJ9xAYQ8COM+6mADVnmOdbFst6DQtgc1/v5Gc3bp5VRypwmZajkNWKFvtuuVWZYj5zyLpZC4omo8AldimBy7K0X0TLFVfSTZS9kxh7p9n+pJd2ULpigLv3vYh7Um05SsZ7CEyPEQgOMeF34vd5jai7a9SP2+mdBdeo04nHFSAo1YywYoahsZlifHyc1/e/TXPPeaQUnEW2ooRF4tL+vwqu8ATSJJIlE8Bmh4mWhayDNXk1GT8PCIHDGlZQRK+l1xW9mTXU9R0eAqz1GlbQwLodBrRFlWadq05xnaeJrmFZTb1HbLn49kKRvHJZMGsYK2zAYEX2LHDos1ivYyydutJNF64UFQVMRUm1AITdYbnEei+do3MtCy839osKrsjiTuLFFyOBu8JGtp1/I6+9c4IRT5ApppgxHXdOpqdHmBgfxe104hz2MjbkY2zYOQsup9uN2zlh9J0mlb43IJuCoEKLwzg9Hm66/UEKqppIt7eRah84Sev8f8k11MSfnUBhcIUnqoIdFiVdrKliURWHRpiBSfscuWOhCW4AKfdydpVX8a81ug2dgoBiCbDJTRTdWRhcFpgFbGsCi/kpfK4FEgukFkBlXfU5LIAphyPiGgUctC9qN1TcouNWHkcaAAKErLT5vnInpZyoQI4hvNH31XfvNbkfAyrj8gpcYetlFTZbn+2LFSnUfBZXjIrUJSYelddCdmUXN9/zHJ8MTeH0BghM+5icGgaGmZkaYsI3itfpMlsqaaZ91nK5XDhHx/GOTjPpDIHLN0HQM0rA78IfHOeNdz9hy7Zvkla0hQzHLhMB+78ELHPRT1qFuSu0JpsKPcWvsIVYQ2RikZnMBgKUfBZFWRh81vOl5mjxzItrvg2xLlkUZwKKPAMFjSwrNGu5BKxZUFqgaLfOLRXvu5L7Esmw9joCiJ4voAv8JiBTLiXJLSQajnsJ3oWH9Rk+AzJ9xvImEsosTnxrLyXwWXJDAr8RiTOWKwwugW8WpF+0eaKFQwQ78SW9xBZsoaHval5+282oF1OGFgi6mJo6YcDFtMA1jMfpxOsMEvCBay5X/PDYGE4x+jgnmZKoUwCmfONWCf10EJfbzYhrmutuepg8RytZxaLl6jP5kNiSbrNhVmhYiUtrPxK+sDr+/dDqaHj2QpPA2svoXLkb1p4lTnTB2sOU9Zp8jsmnGH9eP+ycIVrn8Eqr22blsRhlrdU3/Hj4aDHLmtVJK9TcYSzF7H1yC8xwhI4hVyi2xNpbxYcCDsrpxBpCT4Fnlshk1pKFQSUroPyYrIaidyFwzZnoAtnnrYhlebqJqexBChuqgFAoPU7X1oBJgOogKQQuHZPLuszQ9Td9eX8HrlbTSZ1o9Lmk0WWJSQhYek1dUwmai/papUACoyyd5UZaWl6ahAKX1GBUwSDLpZyXEsqKuKlq47N8KyHrKoUcYyVlKS1rOWt5Zem0sITmQ6g+0XJX9buGf8fPH+f+5rNzyXJTLdf58+eKgz88P81iYFqJpBbZgS2/BVtOI4uq+/nWdfsYlh6a9M2CU0xOqiFyzBpTY4x7R3GOjjE2otrCIKNz3cIZsYTOQDAQxOtx4xwdYfD4UcZGR2AGprSJG4ePD/lob7uIhYvWkF7Rw5fyWvlqQSu2Uku0QYJgEtOOVElMyOWwVjrL/bB+HK2ybaSUiAVJK3WH2QRrDyLJmshySRhtJa52FxHaa9RsJ7n+bCJUyVDWSWSJaJ47SZS7JZ0kqX1IAqi0m8iiLUTbJeQWctlM4CHcd2XlXcyqZDb/4U377DFWSV1HH6k1u8x+IsbRi62oiwX5bUTblSjtJ6aknwWF7djsXSRWDRi1i5Sa7UbHSwuAee9wv9echcVadEKPmz1J+HNZYDNul6lnU02b3LDZoXrGqOpukpbvIrFeOalOEmu2YytuNyPWIVo2gamHlLJu0iq6WbRkG4vqt5EoayWAhNxQk0YwHbXKdem99Hs1Eu1oMYnfeAlCFKhGUfV0Peb1RWtuUZuHoozl4T2ktfjNz2shRlyMVQNEFXdgK2glY/FOzshutGSnHGIFFpGs5Kf0+8tSts4Z+j9stS1pJVlsRTOjDPOv3lcEpWGrPavZLFBYQ4+FF3orChpdbkkhhdMa4X2mSW2UdxBlb7YqYSraiZDIYHUXibU9RBQ0kKxrlr+RlU0X8ep7TtxBTHGFy+XBqVrCkaOMDh3BNTZIcMJv8DM9A5NTFpZO9nNNT08zrXD85AR+vxePR2w2ozidTiaDFrCC/9Wi4HPBnbc9SllZAwn2ZuLqdmOr6CeitJv05buxObTKdZni3jCQ5NNrhP/XcRZcWqUFLmuTbIGrnwUlPXw5v5Uv5TURVztAWhbguQAAIABJREFUREkHsVU9xFVZDLCxZW1kLR0w4FKpTvays027g0pVUqosNcDZhsbwJLbApbC0FTKfBVX4fwOmwg4SKwaMz2387uqdpFbvMpTSkfZubMWyUpaETErtThIqt5JUFQp3n4yWza6wRsfMgEz7KIvgx9pHhV3LcKg9DDKrlXwu2IwuVHU3pxSpREocej18OXsTUY4OUqoVTOgkRgtLYQspxmLp/yZiiptMtbqur/EIjIuo95t1ZU3beo1cxw6L7NLRSbRDemUDJJQpZ6YJalFbzz1aEzZUmaGUjKHJltXvIa16gIVLziaqSFYw9J2NhxC+LsrbWfPCHE1kUZZIj8/uM8VXLykjC9jas2rfqOs0B1z/XWoklGKIKt8a0hhTQCh8nfXdO0io6CC1VjK+8gRasdk3E1nSQnx1FynVXSQUN+BY1suPfvGkUehUwbXTO4nH68XrceJ1jeAaG8LjHGPC72dKIYpJ8PknCU5OzQY0BK7JyUlUBqU6Q5fLyejoCCPDo6ZiQz08k6IHEHHJIR99fZeysEraTVuJruwnddluo8yYVLsVm12V87Jc1r7ArCrh26Gj3B6JWmu1MuA6mXvRStVrXtNW1k1kWReJNX1GEkcX4Yy8ddiKGogvbyeicDM21baFol5atZKq+klUSc5nLqTlFumCmh/FWBdroy8rNneopSayqIPkSq34W4kskiRPt9nYJpb3k1K9naTKbaTW7jTuanL1ACk120it3kZyVb/VoXzSbZHrMzvEw24Sy0ouhxLMVoTNcqesz2G5M7J+n49AJlT3krF8F6l128hctoMoRwsxjhYiixpJLm8nRZX6RZuJLmgkYtEGA66s2m2kSKjNuLfhgIO+c8iyh34PdZYnVYbvl/Xux5bfjS2/11SDm5yYCcZYFiQcWNF1Pj2n0QAqq24nSeV9ZNRuZ9HS3aRWbkUhbSsfJysUHpa43uz/4Tyb7g8/xzoai1lhCUicBFYIXJ8FmKyXXNWQ5QqBS5bLek0r2jp3XpyRu4mkyi5TBhZRtNmoRCZJ/7pCW4sW0ksb2dhzMe9+GkBdIl55b5NyCyfwesVROITTOYTbFQbXjLFagaCOc4QYpqdnCAQCeH0yeWOMjA4zNDTE4OCwAZdcw+AE+H2IEYB77nmShRVtJNVuR0JgGUsl4t1BQqWiWl2oB0ZfxPoR//5o7bksYCkfEk7IWhGxHiJLOoir6Ca9biuJRpCghTj7JuZnLSO1spWUmh6iS9pQaY6G5DNlMQW06JK5LlAYWNZqpcf1I1grpOVKzr0d5+gybTUqRJVET4wsYeVWkiv6ibF3mL1EZFErSRVSoewmJQQouaUZteJv12trvxLeS8w5GsEDRVlF4L8dkU6q2FdlUNZQJYc20aFh9nfhvFcPEXmaxBJn2IL0lG15a4l3NBBf0kByeRNpVa3EOxrJqOkitaKLyLzNxBa1maBIgkPWQ+9jvYe1zwxbkU5Sq/pIrdpKVFE70cXac/STUn42yWXqQN8RCr/Lu9A1nh26lpFFLUQVtZoAyoLsBlLLe8ms3kZsUStRsqaSN5UFUqlVuapBrGqSqLIdRJXtDI1QhYoeN8+TxVJ0VJZK+1UFY0L71fAxvFiaBSKce9Rck2diua2yfFaiXP/Ppi70HfQbSucsubKXRGmRFUpksMO6v7iB3JpGrrt9Hyf8GLoF58SU0XOfmBw3oBodOYZzbBCPy2lZrkmQWxjeYp10C/3+CXw+n7FaHo8LDbfbjVPhRW/QJJ/HxVI0No3fCwc+crO+8xtmtUuu6iOxUmJgHSwoaCZr6dnElGgyW8GJuZbBui1a7J5QyDdczhPyl43F6SZjyXZSa3pJq5KGVAOpJRvJrWmiZHkHGeWNZsVOXzJAcrVWmk6Sa6Rf1YZNrRNmf/Hf/RAW0KwN7Oc3w3P+l0qIvc0Im0UVtRiRuYjcRhPqLl1/EbnLdhmBBBXOSqo1StXtji1k1G41ErDaY1pBCbm8s8PwwzsGSLbvMCPJsQONRMcOi/ZZ1M9mWOVRKpGyyqR07Ccyt8FwVcTmryO24CxqGnbjOKuPfFWrL2kmMn8FMcVqJWkx3PHxdkUO+0gpHSDJlGPNLckS2BTY0fdWsnQLpeu/jmPNRWTXnUNEThtZteeRXrnHFP+GuUJ0tEqarAVEi0h6dR+ReQ2UnHU+9lXnUr7uQqNYGVcQqvqv6MRW2Y2tog9b+TZs5TuxlZ2NrWzPnLHbul+P63kVPUSqprJcxclaOMOusrYd4aCQPBH9prNzZ+5irsXdSn2oXMvKNYYDZHKRU6u3syCvGam9pFdvx5an37qHRUvONq02zdu/zjvSOHb6cQZnGPX58KmL3O/E5R7G4x5m3KfksQowxvH5gvgnZggGJe4+h0NDeyuXy4XP5yUQmDD7L7mKgcAkfv8k474pPO5JnKMBnKOi4YJH//SR2ZCqeSxdLRRarcu7SatVCY7Ms5VkNIlGk2y0VmStziZ/Y8x4eBWUG2S5QnInY+zNpFV2EJmzmoo1A2y94Afc9fALPPC7V9h24Q8pPnO32W/FKXxd2UWsBAgqO0iq7CCuNBzZsqJxVlQuFMxQK4fZOLeRJLf0cyOlrIPM6l7SKy1GVSmSyM2KK25m66W/4L6nPuFbN/+BnPptRBVIe1htF+r83UJ6VRdJZQKTom7qHLBEEcz/ZRJJ6CRVwZLQsJQL+7GE3FXxohF2GVWjaA1VXGjfkl3eRVLuWurWn03Pedfwwzt/z12PvcYt+55lz5W3sKr7fHKW6r0byKjuIk16xvkSix8gVQBziP9c7FWhwIKCSbp+Ja3YctZx8fWPcuu+99l75cNE5m4mo3IbCfZu4orD30mvbY1w6D65VHV37UTmbOC7t/yR2/e9z9ev2UdMzkZSHa1kVncbIb/oyi2mLlGWRPWL0aU7iS7dTXTpOaGx07pfj1d0Yp5fKRmlZhLLmk0aIF5Fx2Wq65RnYgErnLC35s6sh2QinSELO5vID5eoWd6AraAdkS+lKHimfXRRO5mVAyQWd5BT1cq+p19mNDDDoaERhrRVCvgMI5fHP8bklJcpFetOTzA5GcDj8TI26mZ01GtKBp1O9+yea3TUCl54PB6CwSAzMzPIVZyaEhJncDqVTFZBrwfnqJ+JCRjxwznfup2onNWklDSzsLaX1Mpu06YgYTArSKCNvlVLZxW0avLINdE+QwAMg8o6moRqWTu2/I1k13Riy6znrn2vGpIVVwCODgU54YYbf/U6VQ0XE1W02YSQE0pbTX+SGgwTzI9h/SAi7VQeSe6UZVG015Oqo2RT/36klbWyqEYiBFtIdjSRVtpKRkUbWVUd3HDvy5yYht+9Okz5unNMp29WTQdR+euIL5ZySTNJpXNHi1l8DMjKWs0eM93RgUaao4NUh8AmIUFVyitCJp0sK69lLUDWYqTSIoWlM4oa6d91DX98+QhH3fDh8DSHPHAc+CQILx4a45Ib7yd/pfZ2m0lTBUh+B/EFkiDtDb2f2l3UZxa6BqWbSSlpIK5wLQ8//wmH/XDbb99ifsYqsqt7SJMVtjeTXPr3Q7+5rmFaaQunpyzj9y8OccwPd+57h6/GLSa1eDOZleqs3khcZQNxFU1W8tosupoTu2aHqYHss6xSRbP1fImll4tavZGkss0hkFnpAFksA6xQUn0uuMLWWBZZ8+mkZTOV+wpiWQXJkYVdLKw713TYJ9q7yVTwI3szGY5uzvvGLQyJlm4qyNGxIT4dOcaYbxS3fwyPf4TApJvpmXFgkqmpSTxuL8PDTkaG5e35GBubU6ExMjLC2NiYcQUnJgJMT2PG1KT2YtM4xzyMDLsYGtRGTr1fMOKD/QfHKV3RTXzBGrJrOogtbiSlsocU+dwiszG1dHPBFXZN9CXDPrCOc8Alt87eSETWSla1nM8JLwy64ad3PMzNt/6Ko6Ow/zCc1Xsl8fZGkkqbjBpIgmMTtrxVLMhZwWmZS1iQs5LEErWsywq2k1HdTXzxZhKKNpEiMe/c1diyVhC1aBWxeWeRULiezPJmCpZ0m76p2Nw15v5MtVvkrKb17O/zi0fe5KKr7iF/iYTFG0k3onAbsGWv4IzMZXw1tQ5b3hpiizeakVbZZvZHap1PKdlMWvEmojNXEJ+7hsisldgyV5Li2GwURcTgKopkCYnHS5yhQvmiThMoOT1rLXsv+zmfDsGoD15++wQ/+/UfuOz627n6jt/wxJsfc3AC3nPC5TftM2BIKGoho7SP6EUtRGSsNQCIXHgm8QVrjZsdm7+SBZk1JDtWE7molt+/epCPnHDHI68yL6qQRTXNZFc3k2zfSGz+WhZkLuf0tHoidM1y1hC9aDUxOWvIKm3mKzGV/OHVYUP3dudD+/lqTCVphZsorFN4fRWnZVUQU7QKW84qIrLXGtE45UnjCttJsneTULzF8CJG5q3BlrsMW34dZ2RXEFu4goTitdgWrSS6cD0plaJA6CRSPO3aipji4/B+SpbLcnPDuTMDMBMp1UIuy6U5aRUbKzKctXi3qcBIKm4nt3oriTkNLN/wNd78wI13cgpP0Meod4xh97AhanVPjOEaH8EXcDKF+IYtQlWPx8fIsJPRYbfBh7ZTJ/dcigzKNdSTAhOTZo+lFhQrvzWJS2gcdeEcc+PxjBtXUQk1JdZuufcJcio1YTeQ5NAKI/dMhagS0lb7gtxEa/9gNvAO3dbqEU4W62gBTJFFk0B1NHFGWj1nX3yjsZDijmhsGSAhMYfrfnw/515xB7mLe8mp7SLJsYnovJUUr+yk/+LrOe/Kn7P36ts5+1s/ZU33JaSVNZJW1kxs/kYGLv45533nFyxpOIfLr3uAnZfcRNe513DRlXfRvvsqYhYtJ7e6hXTHRvJqWug452q+dvU91DfsYU3bRdx499P0n38tC8s3EJVdR0zeMhwru2jfczVfu/Y+9l51N1+77gE6zr+BrNo2zsheSaKsQ1UL8UVrKF/Rzt4rbuRb193Npd+/07i7tRt2kFHeQFZ1C2kVTSSJdaismZRqXcd2w6lRfOYO3js0iccPjzyxny1bv07l6i3Mz3CQ4KhnVfe5/Mft+3jo5YP0XXITySWbSXY0GwWVlZu/yd5v38MF37uTPd/8KY0Dl9G+51vs/e6P6b3gO5ySnEfvhd/ipQ+O8rEXXvzbUXou+A75dRtIti+jbHU33ef9kL3fuZOvX30fWy/8ESuazqfnvOs474rbyK1o5tTYCl5+y83oBNx+/yuk5a8lKmUJ+ZUNVK/dwt7vXMcV19/JRVf+nB1fv5GaNbtILWwgy9FKevFmo3GVX91M644r2HPFDVz2w1vZ881rqV3fS+/ea7jge79gTedlROavJ6G8nQWFTSboZdzMUNBCC7TxfMKJdCXVTZI4HEX8LLhsRZ2kV+0grmALiQXNZJe2s7B4M9f/5AlD1hqYCjIedOMcH2PMM8yYdwjn+AgC2MS0jymkfTzJ5PQkXu+4wcfYiNsYItdct9Dv95kC3XGfH59vwkQI1TSpSnn/uPZdQfz+AAp8+P1+M8RiNDg2waAL+s/9FnG59eTXdxJT3EBGnZoAFU6VmLYFLu0dtI9QGFob9P8WXKbOrp244kbTeVu6oofDTkwC7/Gn3mDZikYycmrJcjSQV9NBbvUWkgpXs6J5D3fse4H9R7wccsPRCfhEZCrP/pX+C69nYXkT8xY4ePK1EQ6Owb2/e4PjfvjPVz7h0mvu5sAoPP3GMfKr5RasJc2+hvUdF/HqX938af8gm7dezt5v/8woiagy2r5kM4l59WzoupAf3f0Erx/wGRdtcAaOTsJLBwL85KHXKFmn8HQjyZVNLG89j/seeZZPRicN94LEE/56PMhvnn6T7r1XsbC6keTSDWQI3DVbSK1pJ2NJN6dkn8kP7nmO4x44NgpVy5uJTC8jTRyDxStIKFlNVPEqFi3r4Mzeb5C3rIf0imYSizbQvutaHv7DQQ6Owug0fOyEl94b4fFXPuCDkUn+8vEo82yJ7D88xJHxaUYlguj085+vvcOiqhXYl23k2p89zBsf+Tnmg9FJ+HAQnn79OO8dkWAilNS1c1p0Ca+/4zYkoXc/+CoLC9diS6ikY9vl3P/oc8b7EFeiGK8ODs5w129e4Kymc8m2n0Vx9WYql7dx+fdv5/X3BzninOG4F4554PfPvcv+g16j+nLjfc/xldR64kpaWFDUTExFKG0jbhfToiMR8C6T2lFxQrIigaZCRFFRpTi015ptp4kt6cGW10Ru3QALJfCXsYyuge9w5ASMSVjB78M/4WZcI+DGF3DjDbjxmOHBE/DgnfDi88vYBJgYV+lTkAlfgMBEYNZymRblaasT2eMeZ3TEbdxA+Y/+8aDZe2kfNjMzRXDSz/i4EDrGyMgYx4fdPP/6e1SsaiWjfANplS3ElUrbS8k5y3rJPdQXk8VSOPh/Apd8aSUVFSzQnisqezkXfPtWjjlFKQZ/fO5tGlp3E5mymKLqLSx0bKCwppFf/u5lRibhD6+/z7lXXEP/3iu499HnOTgCr77vZOmGXcw7LZ9nXh9mJAifeqDvvCtp3nophTUNfDSEGede/mPiFtWRV7mRH9y6j+OyzPc9RXrxKi7/wV1mcu176g0qV7ZSWL2eOx96lqNe+OvgDNf94jEuv+F+brz/Txz0wetHZmg57xqSKhpYWN/Bb1/6kBO+aZ557S2+9p0fcO5lV/HQH17hiAdeePc4y1t2E1e0ktSKBjJqW0mr3UJKTRvzkhfz2F+GjMv12J/+gi2liJTi5SQ55H6eRcbiNtIXKyGqihWRc24iwb6eVS17+c+XPjET+6W3R/nBrY/yzR/ew5/2HzGLhBaXI94ZTolP5ye/fJCPxtyMTMPrHx1m9ze+w6LKer5+1Q18MBQ0C9yDj7/JFdfcwwO/38+nTszed9gLNcu7OMVWwItvnMA3CQ/u+zORcaWsaziHN96WOwX73z/Kf1z7U75/w528/vZhsyDf99BTrFzfTkZeFXsvuZr3Do6a+//40ttce+Mv+Mkdv+Gdg07juWiBvWPfa3wleTHptd2mSzupbkcobK8ktzylueBqs8AV0u62OgWs/ZblFlrbErmPC6s7ic89k8KKjbz8xidGscTlDOB1uQiMe5gK+pmeUSV8kMB0AO+kH+e4m2H3GMPOUVT0HgwoDh/ql5ycZmZ6jmyrQKMIvQIYE35t0CYYG/UYkI37gmb/ZUXw5WP68PnGcLtEITWM0+XCG4TbHvg9EZkVZC1uJaJgg6nAjjEmW4k8rRhW+4OVsVfCcnbPpQtj5SHCrQoqh2kmsXgjGSUbuOLauznuEmstPPfaxwycew1RyVUsLD6TXRdehXSlJOh9yfd+wKqGLZzZ2EbXrgt44oW3DJ3YlTfcT2xaLU8+/zFHnPCfL33A/CQ7hTUbSStaxk13/d4ECX737Lsk5NRSt7abNw+6ee+In/O/9WO+GpPHZd+/zbDc7nvqdapXNnHepdfyyrvHGPyv/acYlRwrFCRYQ+maHhq2f5PVPReTt7yTtJom2i68gQP6jB8c5fzLvkdD+3aaes5hz6Xf5/EX32coCBdfcxfpZQ0kOjaRaFryt5jSpXkJ9Tzzvt8EC+595ClSiutIKFrO/OzlpNV0osTn/PwmYkpVWdBDdOEmTkmp5rJr7+KYW+85TO/u75Jb1sSikk3Ur9vO/o88fDwGf/5wiOgsO/b6s3j+rY+MdXvkuT+TXFBB/cZ2nv7zX40FuXffyyxZ00dxZQPl9a388OaHOXB0xiRWF6/o5HRbPs+/ctiw8P5m32ucYcvn53c+YWrx3v7Iw5rGnRRWnEVu6XL691zKh8dcHBh0ce6l3yElz8GPbr+fIR88/cr7tPZdSPWKNgor1tN/9uUcODbB8AT88rH9fCmpmsy6XlNYIMLRyPJ+okyJ09+DK8XRGQoWhYqfjbcUslxlfUQUNpFe00WyYxMLUsq56Y6HGRwLcuy401S1e0edBL0+q54pJCIenJnGGwziCQSQhNKoCt7dHgKBIEzNMBOYJOAdJxj4O8s1TUCklZ4JK+Ix6sE55mV8PAyuaWaYQBXBHt8QrtFP8I4dYWLChdPr4cjYOH0X/IfZkMaWNpoqcKsmzcq2q2lQptkKw8tMz0YKLSsXLlHpJCK/gQU560gtb+GM9CVklW5gc9/FfDyCcT1e+csgbT1fx1G5jp/c9qChgjvhHOf1d97nlTff5s/vvs9Lf3mHDw4Pmwnw9At/ZVHBSl547VMDtut//hviFpZTVLOejOJ6Spc2MBqEvx2bYO8V13PFtT83VM6Pv/Auqxq3Yksp5rKrf2p0r558YT9lS9bx07v2mcn76LP7yateS2xuLYlFy0i0ryS+aBUpZRtIKFlHSmUDP/jlsxwLwOGhcV7Z/yF/fucwL+0/xDOvfcjfjgaNNX3ojx9Qtnq7ibxGFzQQU9Rs+BvmJa3m5Y/hWBAeeOpZonIrSHCsIaPOKt6dX9RFQtVu4it2IZ3kOHsTCYVr+Mm9j+Gahl/uexxHzWZSczfiqO0hNmMZN9/1R054MO89b0E66UV1PPPGh2YS3/PbPxGRXMimzj1mwXnrgIu9l9xA6qI6cuxnmtHSfRFvvDNs2HgXL2sjIqqAF17+mJEx+NWvn8dmK+BvH3j5dBBuvec5YjPrScpdSnpxPYvXNXP/408zGJziqltuZWnDZvb96SVDr73r61eTaV9NtmMDOY5NxCQ7eP3Nw2Zv/6vH93NG5lLiShRNVBFzP7YKqw71pOVS242KlkvaELhSRdJjUhCKvFpRQqsxVTWjm4mxb+SryWW0DHyNY84Aw04Pg4Mn8Dld+EfcTEnFImBxYihBPDE5jcsfxOnzM+r2MeJy4/R4URDQigCqBirI9OScPNfMjEqfJvC4FXJXZNDN2IgHrydg3EIV9ModnAi68flHcXuP4xz5CO/YQYZOHGDMPcpRp493jnko29BPvBK9hndB/HVWEaX2YLJWVkWElVEPRwnngkshViWFU6q6sOWuw7boTE5PrSHdsZaas3o5NAguHzzy+9fJzq3hrvsewRuAT4dGeeOdt3nmpRd5bf9+9r/zPq/vf58XX32P+3/9FKXl63nm+Q85dGKKn9z1CNHpDrIdy8gpXUFSTiWvvHOUoXF45s8f8ac/f8TBoUl+cMv9JC6qIH5hOZdddQsfD/n5ze+eoXLpeu57+A8Mj8PDf3iNtOJ6EgvqiM1bjGNlG4n2M0mv3ERCyVqSKzfx8KuHDV/8sZFp9r9zlDfePsaTz77HH18+yKtvj/HKO25uf/ANqs46lxRRlRVuId6uSosdnJbVzD1PHWYQeHtolHmxmSzIW2rIYmJM7dweYsvPI7pkNxH5HUQVNFK8rJNfPPy0acu78/4HqKxvJ8/RQ3FFP4mZ6/jm1Q+aaO+7hyY5LaaYtPylPPPax+b7PPSff8GW5OCspt3G/XvrQw87zv0e6TlLSM1eTEpWDQ0te3jymfdwjcPK1T3Yogp4/sUDuD3wqwee5bTTsxgchBEnXH3TE0QvXENGqSK0iyld3chNDzxsvs9199zD+q397HvxVT5yTdJ2zrfIKm8gMX8DGfbNfHVBNi//+SNcQbjjoRc4Pa2O+JJmU8BrK+0xSWkVeYfBpTB8Ukm7KQq3Uh1KQyi/Z21JzJ7L7M+6TRldVl07EQur2X9o2Mg1jbksLn/38CDBMR/TqtYdl0WylEw8vklG3X5OjLk4PupkxOXB7Rs32JmZlGuoql3x8s9xC11uK4lsIoHjkwQDqpCHCf80/vGAqd7weJ24PSO4PUO4PceZmhhk0nuESf8IU9MTRjnjU+8M9z+1n9Oz600CUKUrFu1z2O2zLJZVBzabQA67hSbhpzKmcpVEbaG26SJ+9cwBLr72PiKzajktwcGPbnsEXxAefew14hILuOramxnzBPnNb39P3YoVVC2po37VSioW15NvL8dRtpSS8lXEJhTx0muHzP7tmpt/RUr+YrJLVlK9qpVsx0o2957PoA+OumAkAM/+5WNWNvSb56UXLuG7N9xl8m0P7HuKvJIl/OSOBw2t9IGhAPYlG4nLqSY6u4r4gnrmZ1RyWnolCxdvJr26gavufNy4XPt+/wrFjlVU1DRQs3QL9soGFtk3klXcQE6FwsF9xOY3k1LaR2bNbiILeogu3krL3p9ydAY+ngjyowcf499SS/lq9mr+LWMDp+R0ElG0ja5L9vHd217DvmoX0Tn13HD7rxkaD/LMKy9TuaSV1IUNFJf1cEZkLc+/7sQzBW+858WWVGECC48/96HZ39z329f494hclm3YwQfH4OMh+Mb3biY5u5Jcxwqik4rZfs63ePdDp3H7VqzpJiIylxdePohf1vU3z3PqaZns338Cpw9+99xx5kWUkSZ3176Kyg3tPPHm3/jA4+OKW35KzrLl3P3ksxybgl8+uZ/cmlZOiV/MaXG1rFzby9vvHTH7tp/e+yS2hUtJFhFqUTPRpmJ+mympssClomFR/nUYcMlyJZvcobylcM7QCqQpqphcuYWvpFZx3+OvGo9kzDtOIOgjoPk87mLKNcGUe5Ip7zRBcct4J3G6Jhh2eo00k29yhgmROk1NmeIL6SCriNevCif3nCSywvAabrcH/7iyztb+a3JymmBw0uS/VBKlol6ncwQBTcT+0343Myo6nJ7B5fFzZNDN2wdGuPX+J7Fl1pJe0URkwUajiJJpqua7iCoTN55VuT5ruVSeIrAp8afK9g7mxVXy8PMHOeTCBCauv/XXnH/Z93n/Y6cByB9f/RunxSxkU8dOPh72c2jIx49u/yXpheUkLrJzyXev5959f2DvN66hYlkDX7al88L+w0iE4JvX38+C1EpS7WsM2aas4qLKBt44MM4RlXeNaQP9ClFZdSZ6GJ29hIuv/oXRybp73x8pWbKJta07ePq1D41L98Djr9K6/WJKV7TEqNpzAAAgAElEQVRwVtseHn3xr9y+73kWVW0gNq+OZU27jAv50SEX1//oXrLz68jIXcLF376V+x95g3Muu4XsylbiVZTsaCW5opfk6m1El/YS4dC1aWffS+8Z8YRPJ+D+p17n+3c8wp7/+BmX3/gQv3zqff5yBA6Pw5W3/IZFlas5+9Lv8dK7B/ho0MkvHniM9Y0D1CzbzM/v+b2xWu5pePcTF6fF5ZJcsJin/nzACEPcue8FTkt2ULOhn9v3vcSn4/Dcm+9z7jf+g7p1jey94ipeePNDBscxje5Lzmpj3inx7P/bCO4p+MWv/0R0SinnXXyd2SMfH4Pb7n2CZet6WbK+lxvveQx9hz+9d5zGnZcwP7OM8779Iz4YDJjf9aHfvcQV37mJb1xxPW+/ewjP+DTDrmkeeuxlMh1rSHVsNPrMtsJmQ5VggmaGgySc0rG6oBcUNxGhyp3FW4lT7rVGUepO0sq7yanuYV6E5sjtDLlhWAEM/wSBSR9u9zGCARdTyvcGpvG6fGYPJsMzNibadw/ecT13ysQwVKTr9UrhZMy0+vtFDOqck0RWAll36Ekq4FVkMPynig09pueoREq35UL6vT7cY04CPklVgs8zgdsdwOWd4cARN+d/43qiMmvIqFCeR2SaXURV9LKgVFx7swWW4RyXlUmXxbISr3n1Xaxuv4APBmc4cGKCsXF4/8BxI0360dAkPed921gLe30Dl//wDhMtPKygwSEXbxxw8t6xCROJe/bNI6xpPZsvx+TwxKsHTLj52zc9wrzoEsNDV1DfRfHyXjLKN3PZdQ8yNAMvfxig54IbSLJvIL5wLV9NqubCq+9jeAruefRVHPXNJBcs49zLb+Sld4c5Pg6fOOH9Y1O8d3SSIRNmn2bgomtIyl9qxpU33Gf6gbSaf3wsyNsfuvjg6LTRM37wD+9Tu+lcYsQZb0q5ukmo7iO6oocFjk7mFzbw5UQHdz/6rBFRUKTvoHOKT7UQjE5yYGzK8JY/+bqExrcTl1tBZukyfvqrxzgxASc8U3xyfJSDx0bMnvXgCZeREfrrMTenJ+WSkF/N4699wCEvPPTC+5ySVkZs8Qoazv4mT+4/wPHAJB+MOnnzyHEOe4OcCGAii6rIKFqynlMT8nnrE68JzNz58IuckVRKauEqbrrzUaPxdeDjUf56YIyPjgb44AR8OAKXXvcAsflnkla6CUd9Kz+953GODKqUCJwjPkaOjyFPyz0eNBbi148+yxlxRWQ4NpBV0Y4tt8GE2FVmZwFMR21BLDqEuLp+bHVd2Ko7mO9oYn6BStkaKF66DVvyEpo6L+Gl1z5Bgb6jRzX/XcYDC046mVGCeMbqFNF8V5GFjhqqwVUHicoD9aejcKMqp3AhhiqdTiaRw8ARGY3IQef+CWx6PPwGOnFKLx4MMqkiQz1/Bsa9fjyeCfwB8EzAgeN+qtd0EZWznOSKZpJrulngaGW+iPrLP1vnNUvWYiUC1UIRb99ERFY9A1+7jlfeHWRkHLxTsP9vw3TvuZLkwtVklW4kIq2WqIX1NG37Jq99OG5+dDEVDAbhhrueonDxFhLzVzE/tZqn/zLE28fhmz9+FFv2KtLKm4gtXEeCfSOpZZvJX9rDM+96ueGXLzE/U+HuBuKK1hOdv5bzvncP754QuN5kacO5RGYuNcnmrRfcwC8fe4dPXJih9973zAEWrz8bW0Y9KUXrKFvZT2LOcs658FoOHp8xkkDa3717ZIYrf/JbcmvasGWfSWxxA/GlWywNtCqrAkFU1RHFTdhyVhhBh8493+XZt4YMmBQ6P+SEt44E+eYNv6Swron82kYWVW4kqXCFGZdccycfHguYRenDI15+du/v+eEtv+a9w36e3f8p81PL+Eq8g8deO8JbJ+B7P3vc0F1nL+nkqxn11DRs57cvvMlhH2bf+Mc3P+FbN9zDfY+/zl8O+Siub+HfIgu54+HXeOk9L9fd9jSFtV3E5awhcdFyLvv2jxlyYgJJB4fg2TeHaT/n++bappY1klrWQKyqMpJLOPdrV/PCK+/w1/c/4YnHn2HZ8jX86cU/I8XTm+7YR3rxmUQuXM7p6avIqd9l2oVMA6vhbxQH4yzAFqhrYkkfEeVbiKpoI7O+j4W1XZyaVE1B5WaeefmgWeyCU3D4yBCjo1JRE2AkEzlp4oMCkea+OkQELBWzy9jM/RNeBDg9Lwww3T4JLgFG6FOCWCfrRXWSxcIri6QeL1XLe0yy2byB2bwJWFPMTKqD2WtMpsc3aTa6qgF85b0TzLPlkFrRSFLVFmLEMVHTQ3y1Ijfyfy1SSVPNEaIXkyXLrBsgq7aXmoa9LMhYQvTCOiLTyvmKbSFpBSvILNlsCEoXpK2gZMUOHMsHiF60ln+PqWZeRIl1jKrElnkmyUUNRi8rvaSFUxKXcGraMk7PWsW/J9WxcHE3KUYRpJmiVTs4NX25meDzoiuIzFvHoroeI5YgUQJVB9iyz8KWdZbRLUspbiLF3kzMovV8KXYxX4qp5StxdcybX0piQQNpjhYWVXZxRupKUu3NFNR0EpO5hHkR+fy7rZh5Njvzohwsqt5Cfn2vqQeMdTShYmT1FMVXiLFJ7TedRNq3kFLayqKqNvJqO4nMPpN5C+x8KbaS+WlLOTVpMXF5a81j6QrjF20ks6yZ3JpOU2b1Jb3fqVmcGmUnLquemIx65ifVEJdzJiUrtlGwpIdTU5cx7wwHp2asNg2WSarLc7QRW7SBBZnVfDnBwRlpVSzIWMxXEyrMHipGQhGORuLy1hOXu5GvxNWTVKhr0kBiQQsFVV0kZi5mQVwRp0YXcXpCmXHrUks3m3aZlPImHGu28/Vr7+Pm+57msit/SkZuBV86JYqUtFzaurfzweERs7D2nPMtYnOWk1C0kaxatQCpw1pgChOjWoENNdzKekWqabeik/jFvdhUOVTRTFZNC/8WVcBvn5ZyJgSkvOmHkVHNbfFbKBYxbTwz1QzKQ5s79wUiGRvhIzz0v4ySsKHn6iggngSXnqgnCVwCWfgFddSJYbAJVHpDr+E5VKl9qGlsbAif101Qb6reL2DIM2VyJLc88BTzYgtNEWbWcvX2NJNcGwqLmtrDbYbl1WKODZFiqrO5dhvzs9cRU7CB7P+qUi6sayPTsY5MhyZuO5H6AYvbjB6WCmBza3eQUdaLffm55NftIr20h0XVA0TnbDbPTbK3s6h2gKyaPrIW95lK/pSKTtKqus3t/BU7jZC0undV/a29T3SRJeqm59jyNxFXJFGFLjLK+1lUvYPC+j1GvyyjrJ90ubtZDZyWso7s6u1ELWoiqbjDPC5u+JyarRQs6SW3rouFNR2UrDkbx5k7SatoI9kUF4uyYEuIs8IKsyvAE12q/rgOshfvICJzIwlFbeQt3mW+a0ZZHwX1u1lUvZ2Ewi3E5CoM38bCym0mFJ1Y1EayvZ2Cmq2ULNlGQVU3KQWNFNT0UbJ8twFBZHYDC7I2karXWr6XJFMovI2YYgUIBohXvqikxRQv59b1klXZRWZFF9nV/eTX7aRk1V4SizpILOxkYeVOYnLaSSrqo3z1N8gq6WWhWoby1+BY0kVGaZPp8I13NBFd3EhmXQ+Rhev52g9/xRGpbHrgrQOjvLL/AC//5W8cGvTx4fFxDo2CLb2KFMdGIvM2EONoI23xrpPAilKPWChqaJVEyZ1uI6ZKWxDRF7QSa1/HvJgCbrz7ERMVluSsmJzUORwIClAK5CkdNY1b+yy35zMuYBgjYXyEgRQ2SmGw6aht1UlwCbGyUgKXTpJ5Gx4eNq6gkBj2L3WSTna7tfcaxukcZGjoCIODR/D7PUxLuHxauWzlo6ZN3uSD4QCXXHcnUYXLSK5qMEJr8RISMKUoKvAV86yolEXHrOM2bBLZK+sjvWYbKeWdFC7bzhlpEnMT428TBUvPIat6p6ki11EcivHFXaZFIjq/jfSKgdDj6mfqJ1UUzQXtxBS2E2tvR5thFcaqljFryXbSa7eyIK/BNM9lLN5mLOfCpTtN82NUsZojLWsqCu+U0m2klQ8Y3vcEey+2nC3EF/eQYFdVu/gc+4jM3WL+jy/uNo/HFnQSmddCVKH6wtqw5TcwP3ejcQETyzuwFW4myq7KFikZWtyA2oPGlnaZ5LBaeFIlHZrTRpKjn4XV5xBf1EtkTju2RVuIWNhCTH4X0fmdxEpmt1ifo59Eu1pa+smp2km6XZUIqjfsIk+d1PlbODV5PTmL9xjRiOSy7cTat5JcfjZp1eexsP5rpFTvJaVyFynSG3OoA6AZW+5mkkt60HW2vnM/uXV7SSmR8MROipZfSkLxdhZkdpJRtoPMkjYS8jewUFTY+WrybDD8J1ImNe1BpS0Urd7GD+95mndPzJiKl09dcNyNkaz9aARyJGW7aDnJJU3kLd+FTU2g1Vabimi8o8rD4OqzinnLu4h0iF9ki2lJSq9uZ35mDbsuvZa/HXdyeNSJV/N9SpUXInNXZHwSryeI26VaWr9xE4WFuXNfGBGYwi6gcCKPToZpbpxCePoMuPSgLJNOllnTC2joDfSiepPwUebR5RrFP+HE49Vm7wQTAbepxXJ7nQSmJ/FNzfDOoU8ZnYL3TvjY/o0fkFy+hjhpLVe1GcLKMMAscKkz1RoJ1bs5NbfNEMOkVm0jtaLXNOGll3WSVaUu2a3EhxiHIgs7SC7fRlRRJykVA2TWnk1q5XZzn1Q+spfsMc+NKuw0z8mq301ceS8J0rqt7Gd+QYvhotCPkVIr7ds2Uher+7aHpOptprs6prSblNoB0+avHiDTMuOwWI/0f6y9m8gCkfbvJGvxOWTVnUP+igvIWXoekQXt5jHRB6TU7uCUnEZsjg7TwS23L66ix3yOeN0OAUqgihVrk2mbUE6wh+LVlxBT3I8tt8sIPqRX7SG1YjdpleeYY7xjwHQPq+HSlteNHl+4WJZoB7ZsWdwesqt3mZFevp3UsgFSSrdjy+0krVIdx7uJL9lFjGMHtsKt2Iq3E1+xh+Sq3UQXdRJVqP6nbsP0lKi2DS0iBd0kle0kzr6N6MJ+YooGSK04j0THbmKLdhCV101mRT/ZNVvJWbyDlHJ1/fah72qzt6L2emlgxZVu5t9TqnGs6eW8b9/MVbf8mmtufZDN2y5l3n+5cUXLu4nMPcssTFn1u0iotHjxw/NF4BLnvQIaVjpHPCg95NTvJrlkCwlF69nQfQHP7f+QE14/Tr9HxUxMa8wohxs0XDFezzTDwxOMjqjb2GWAozkvbISHyQeHXD+BS1gRbsLg0vNlgE6CK3yiHghbLyEybPrCJk8vIpAJqQrJ+/xOM9zeEYJTHpNk9o6rHH8Sl9/HMaeLj0fcjE3DM28dZHXnbtIr14R6dELssOrtKhsgrmInMWU7san1vXoP0YYcZRvx5ds4Y1EzC3KarNVTbFMFrUTbO0wnaZh7IlEJUqmvi0VKOY7KrcSX9XJadgMpVdvIW7mXyOJ2o8p+RoFkgPrIW3MhUaIudnRj0+sVqZu5ky8vbCBj6TnmMd0XX7GVWPExqHtX+RV7BzEicrGLIGbAkLOIYi598U4i8lvMe+soNXgRt0iOJ768n9NlOat2EFM5gE1CFrU7ia8eYEGRPpdSESHCF9MmEQKXyG10v1r1y7aTWLYDFUHHOrYSXdyLraALW75a87eSIH54h8gszya9Zo8ZMfY+ogtDVr1QbUFdROS0sCCnlazFe0it2mXcv6jiPgOkSPtWYkp2cGqOWjsEsB1mUREblETgouxdzM9tJaVqZ2icTXrtHtM1fUpmC0nlZ5NQspOIPHWbq7taEkhtREnyVHJGok2r2kaieEdq1TUhC9NAWk0b0UVnEZW3nCT7apLsq0gr20iqVC5L1NPVZigFEiq2kl6/l/lFYgs7m8jSASJLte9SP1ivsfxxZVuQy5+iBdPewLKGc3ji5fc54QlwdHQET8DFxJSLaXwEgh4m/OMm9yuGs+PHxzlxXHsnn9k/ae4LF+G5r/+FkfDeaq7lEjb0mPB0Elxh8Ag0llWyUKsnCqm6Xy8eft6kAhh+tynFH3Eex+kZMsCaMkykPnwTHiSk5wkGGPMHGfZPm3D1k6+/R9fey8msaCCzqt+ARfpRqdU7yFhyrpHT+XJ2GxGObYZbwQKYxASUF1Mi0KrysNq7rbb9f/a2IpOfJ0L5R//XqvjPvl/4+aqzjCwfwCapn/Lt5naULO5JZZMwX3y4/SbcWRuqZjH9SGFOjX/uqAXIqgy3+CUsBqzQ7RCtdph33gprW6IQljUQ4c9sHejf3f67z2UVyOo3s4JWn/2sYcIaE3gQRZuotU07fwuJZU1m4U0payClbBPJperXUyu+Gl612IjOQfm/HcQIxFXnMr9IVrCbaFHLVfUSbW8irqQJNb4m5m+keHEbjzzzLkdGA4z5Jjg6fBRfYAzfxDDjE8NMTrqZnPSb/da4D9yqYXWp237if5j7FrhkeGS1BC7hRNgQRhSj0PEkuOT+yR0UiOb6mDpB4BLghNTw5k0nyzppBGb8pu/F4xszusojI0cZHPqU4bFBAjNT+GfAFZwx9FSHnRPc/ds/sKH7IhIKG4graCC2YLNhiFWt4YKCdpJrzyGucpdxEa192HazL7OEBfSD6YcWj0KYV+GfOUqlPVStr4r9f3KYRLfhdBCvwz83xOcg9yXSACu0TzDACssGhcFlJUNn+SCUFA1Xs/x/dZxdmGLDXb2GgUskNEpaW7wTsyxPc9939lxr4Zj7mG5/tmbUSrOIuMga4YXMCpsLXDrHym+qazypVB3c6uhuCnVyq4s8xG0p3kizR99JdMkObHYV4ooGTxyLbUQVNpAgocaaNuLzV5NX1sC9+140uT2nH7yBoGYsLs8gI6OfMDZ2GLdrEJ9XJDNBw3+h3JqyS5OTUwYP/93cD2Mk7MWFt1KKU5w4ccLELE6CK+w7CkAC01w/U/8LoTpRz9NzAsEAE1MBJuSvEsSvzLZ3jDHnCbP/cruHCQR8BKeDBGdm8E+DKzDDoDvAoSHV0T2NY1k3iYXrSC9tIr1C1GCdZNTtMFGg2HJNOA350lbAw2pb2Wax8BpgWYSWYWLLf+zYFpo4/zywBESLgWiWrHMucef/222t0HO/k3V7LrC04muVVw5QwZZwqZhyf9YE/JcXlL9jUArTWv9PC5Met1iCLV55i5bOWtT+sXOt80WjLc5DuXDK24XZmKyjFjoLjLPc8lYXsUh+wuxgYsWVFZeSi9xI6ZrtNK5rlFxhBavs6jTvIaWkiUXqhXOsp6imgTvvf5Ijg0HcfhXdmsJ1U+IE47hdJ3A5j5n5qi2OS9FBf5CJ/+pQmLTKAw24ZJnCwT1ZKxkgGR1hROCSoREmwkEOYUXjJLjCwQvdGbZgYYAJXHpciFQyTW+m+zziOJycMACbmJowguWKHooVZ8LvIjjhZTI4wbQijDPg9AUZdPoYdAU4PDLJbb96hurVvSws32RyPfF2teSLA0Orp6yLlcOQGJtFF2CF760mS/3YIir5Z4fOkzv0WVflH/5fuZ+TrLj/JLiNhdDqLQs1d3z+swhcVkuOBbDwBPxXv3OYmky8E2GrEwKL4Y7/7DW0CH3mkvvoueHzdAyda46fPVdSp3OHFiPVllrdESHW3JBltFzssOsborkL0ViH6awtUQQ9puuhxWebEQ2MK9G+c4fZKyrIklHVR6aoHEobya3aTMmyLdzws19z4MgITs8k4wq7u3ym+EFsTUwH8Ih3cOQ4Y8PHGBsdxOly4pvwE5ieYkoBDKWTTWzBaeb+4OCgAY1cQA09JowIaGFwCT9hS3cSXGHLFQZWOPIhZIYtlyo09Dyhd1xvoCQbymnNMDEVxOURkegJnKMn8DiHcTtHCE6Mm6ScPqjqPsaDcGzYxUeHRzkyPMk9D/2JpRv6ya+VwFgTMYUbiFdewkxEFfuGJuNn6KfD5JWzP8ysC/WP3CeLoNf4V4ZW2M+yB//j/4tGbu7n+8c+h7WYWI2Aui7/yjhJ0jLHZbPuk0Wc+5ohJlwjXCfxOo3Pf+7wd7CszeznkWv32WsjIMZUdFjMT0aVMsQ/GHpPQyYjbn8FiozoRP9JFiwxYUmIwnpM0rjac6s+cDvxBljbTddAokh+SrawsEKUAWsprG7g+z/+JQePjvHpiRMcHxw0NO0SAZ8JTjKtEqKpadwqaRoaxDk8aJR8VC8rTkJFEU0L/4wVuJMxCc993Q7vqYQN4SQMLj0nXMUkY3QSXEKbTtIIBzEEqvDQfeHHdfSNj+P2T+CcCJijx6/7fIz7PPh9LiZ8LibHvQRE1WY2e9NMBKbxqHrDO8mJER+fDo0z7IH7H3mepZu2sahKjYLqZG4jybCqaqWV/6+V21rNrRXdqnIOMyT980drc68N/v+fQ6twUolaIiROMKtCYqmnWK3oVtBhFvSzFlX3/eufVwvJ7GuFLeVnLWS4FWhWECEsSWSlHqwmV1378NB1nHst9R3m8D8q4imaPNN6JGo1SwHGBC8MlbUljmepsUh4Qbk50csNGC7HRBGn6j4DvHBlu8AlkiNFIbcZpZ3Mij7D55havIGims1cf+vDHBlRsa8Pj18u2hAu5ygBn48Jl5egx0/QPcGUL2DG5LifiXG5hE5Em+byj+AZV/2sFcz7/NwP40D3hx8TfmSY5o6T4BICZeJk6mTiZN6EPlkpvUDYvzy5gfOpUczD8TG36WsZdSkMr1i/aKPk3Kp5bIopVXw4JU/kNFlvv1/vIUpgq/5QRawjXrjzwadZ1qgk5HpUEpNoVDXkYsgF0Y9kbZK18psf9+QPYJFqiljzHxsDoR/sX9WMCk+AMM/gP34UbVqKuN0dauYLDaUMJE4QApul0GJZNAsMVomYom5aRBL/hWG1W8idsli4dLQsgNXjZFEv6LXDvIbiNpwdJhltrrcmvca2EAhC3918JoFAHb+fHdorxlS0El0pzotmw2GoaglDd2c4HsPiC0rAy2qFgbWLRIeGxNkt4IW/h6U3ref1k1DcSVZFD+mOJhMVvOqG+/lkeAaPRBMUdJux9LCcokY7fgzniWHGR70EnGrQCpUQmvb8SUOX5vYPMeI+wojzKGrDEpDmzn3trwQkWTDhI+zxyQgJGxp6vsZnwCWA6WShT+AKm0L9HzaBOobNoNqbR5wuBkcUJbRKn0wF78w002oGU87MlOI7GRocYnRkjGBQbwzjgWkkej4+ozKpIB+PjPPw06/TsvMyEopXkVy6iaSyZtKqewzRqDjc40wn6XbDXW65EJbMjOWfWzmz2VV1rnUL83ZY3B3Wuf8quEIrrFlRNaH+mdFz0nIJTJYVkyULWwgtHHMt2GfdRutzf3byfn4y/3f/6zxdF5PGCB0/e52sa2edO/eahm9bbfL/83cNf6bw82ePWgwlUm6Jlc/qk8l9FFeKRdBqAUzcjcmmc7gfyQILbKIoj67swFbSbhLvykGm1Z5NhoQxHF0kFDSTmLeBiuU93HH/03zwyRjDrgnGVc5k9vt+pqcnjOUa+3/aO/MgO64qzfefRHRA04BdUql2VUmWZFtySfVq1WLLuw3IsrWryiqtluWxWczYDcHWLNMNGKKbaZYeuqNnxkBjGjDMjGkazDJt6G6bzdM2DFgYW7ZUqnpbZr6X+fJt9c38btapShUeIuyIUQTRfhFX+V7ek+feLH1fnpv33nMOm29zBXk5TxVmONibC7GcAwjx3StijbbgzShXmFahmLwCQRS4YcSBD5DLOMIRo4QMH/iB7Dy5OMkJs1wwEnKZ9TI2ciHfsW7pBvhOnX2Qgag0bIUZF54EdKLabCpsNhVJykcVPZMraqpc01e/+6h2336vOvqv0cqxXVo+vF89WK2BI+oeeZM6h9+qtsHb3dRsEvBz4SnIf9Z8MnD3nsD6EO8HZgmSYRBDr9+1ZGy/q/1l1tPFih/lSLaSJFNJ8p7HsDCJ+mvRmhLX/EkXLLUnM6nWjRN69chOLb1iUks3H1TLEKHmDumiLeyl3KvWVW/Q4BUH9PkvP6KpXFXZgq+wUlZjtqRZZgMWGQzwTAGTRhpkHCbJlTC3tcmwj5yRhSPFLBd19o4F1u2DXj7z5OIEFzIEtGEhF/OdAukwfdSjCJKYnBGQ83TSrBuy6KDDxvb56+OqonpivfKlSKcLvqb8ip4tVPTNR/+3jt3zYa0Yusm5fRBSeu3Vb1HX4G1a0n9EfZvvmnupt5dnXqSTl3L3nzaX7cJm2hZPXLxMrpdqtV/8dc5yzaUfSuK2WxqgZPbRxZ6fS36HBU+s10Etx4N48KCW/d9Ix68d2aWWsX1atmlCnZsOqHNkXMv6d2jJ6ht145579KWHfqrTMw0VvIamZ4rK5bLSbKxmI9n4AObAH684GAFwy2/wDK7BLdjnu+EaWeQ4cp6CHjsuxj7nwb1hn+M8uWjMLjZlNEoH7GXNGrRO0SFkuM4KnTMi0QEK8shyRA59JDj3y0x7Snk/lBfVVIjqLqhkoSr99FcFvfm9n9Brlm9SRz9bYEjIMKmeoaPqIba3m+hgyn7hfWx+58CcpVpMKtZJGBox+/S7agl+1/oNueaTIczlg7bczDwIeZ+ezzpDji8ywQySKC+ZJVwytE+dVx7U6wj8OkK6qF3qYtdG5mZtn3yHvvPYKbE4TLDUolfV6dPTKuMp7CVewWDRCrgDn+AQ3IJN6jgHLjmfLvAgjX3wjxznud748ULYR+88uczCoNzMGqYNBnIx9fbyRoMoxkrx4chvzpsc5pKnBNea+U3rKhY8ZbOeCsWSokpTpUpDpeqsC/6JK8Bpr6Gfnszrw5/+ilrXXOXCTl+65ZAuGjmgPvyc5tfBWAubW/1ftHblyOSiTdnslh1fJtf5IinEcTtAXFrb5GFoO0LOnaiy98vUuyEPydFbtXRwp4vf2DmyQ/3XH9Lvd2a0/8736se/zCpbltugwAJxpTKrOKyr7JVUmJpRwHyhOYcAAB9JSURBVETanIMj2DRSgUMwSx3FrJkRB7wiQ+Ea6g37kAZypbGP4YCgaewjfw65YKZ1ggtQzgdlDP1sfGmmEhnrSJpcdkPIIZPuCDeALsL9FnOBZs4WVQmTGcRqgyfQrIhmlSs1NFOSnnzG0/1ffUSZK/aqbc3VWrd5n9ouu9nFTmDfW7L3jai+STy6ZD9bsqct2Yu4eJYtmdo9X+D6t94OU/PJro7FC9E24rBlFlseSB8Pa0n/LheQpm3gJnUMvF6/37lef/Lpz+t/PZvV09OeTk0XVCOtMNHPeNVpSpEXqZQNFPqJd7BZnDQWwbWRweHRZfhJHCEN98iAa+SYL+AI0SBcGvt8N8Ni2Od4DrmsAhai1BrhOx0w9iIHSawRyEMDsNp00Bi/qUsXdKPHLwaKg7qCfCgvy26OWReXPijFbpsKi805v6qsX9ezM5G+/5Nfa8eBu3VB14BWj+xykxQuVLYLlz0X6HEue4Xb5Oui+iZTzUT47ZovTDkzu/Xi3x9evubF/83cZtv5PaBGsAVinbvvEHeRJAOkbYvqHR7XisGdunDlFeq87Cp9+eHH9MSpaT2TKyhXCpT3i6rP8s5EOOlIpYKvOjsy8hX5+cRyMfzDQBiencVIkctwDQnBdFoOXINpMyx8B9s2NATbGBgjF+Sz7/Pksn2DZpXShDD2QjCU0xmIY8M9OkuHuNb2YNEIROKDLuo50jDXl7yyYq+uUi5UzDiwJhWyZEVnCBrozNkZ907mR3WdyQU6nQt18nlPb//jP9MrLrzUJc5bWBRdWAtiPYiV/GRNJEUutzhpJHuZXOfrQZGQyzY4s1WK9yzWLJPEiLaZd4FU5Lwm6R0TVBNas3FCLcs365Zb79HjJwuaiWY15QcqRL7K9UBBlFcpzKvZiFSLQs3GDYcn70xJPkkR5sgAhsGfffhOnRkN98BPvcYYbo1cRkDkISvnTR/Yhg8Q0EgID+bJhQAFRnIxSkyQC435yNBRGA6ZaNRMZloG4kEu02Gk5Bx1zlW5JpHiqOrFKhcCFWfy8nJ5FXM5l5OZkAHJlqmmyvGs23z51DPT+txX/1EXrn692gdISXqrLrh4h5b271XLuj0uoz3ewu0DB9Q9fNQ5Ty5bP6n2AQh1m17Vt0NtA6wrvfin8MvXvIS/2fCkLtp6RN0bJ9RB+t1REp9POl84fO/YcdOz8bhWXnGHi0W4ZGCPOkfZTLxXHUM79ZquMd3znk/p5PMVtyaKd7sfV+RHnvwwqxKLvoXnFHgz8gs5BTlPDaIYVdy+PEcA8AqGwaARANyCV7Bohd8mB/6NSGlcQ6oXwr5ZPPiBPo7nkAsmcjFDPghmhDCmptkMSbBCWCg6YWNRlKKDehrkJqg3EnKedmZZFiAMd1BXxQtFXG5XeNIEvGgWFEVlNWcbbuNvtT6rclRXNh/o5HOBHvrBc7pu3zt1wcrrNHDtCfUNj7v9Ze3rd6uDvFRjR9SRuVUtl+5W7xgeusfVsnbCeQlDupeJ8hKI8hIeSLiKLMvsUmtmp5Zs2Km2wXGt2HJcKzbf7hxeyTPNwvmS/t1qz5D+lnBpO3TBpdfqNau26IGHHlPOk8qx9NxZTzNF3zk6NRWrqbKimLXY0/KL0/LyWXnZghph8vAGYxALzGEIwLMV8AoJHBbnRlaQKG1YIGIa++Df+PFC2Eef1XOcJ1eavVxonaEB2Ey9kcueBDRMJ+kw8pDJGuA7claPHiwcN+o+9cRq1Us1xX6oyAsUsibmFVX2C4l/TVxykaWQJ0GE55WUzXnKFWsuGR6ZNj7yya+ppXezVg/u0LpN4+odIGQyUZq2qX09lmxcXcOHdfFVb9Gl19ytZcTaeAkgeZmML42Mzg9rZJ+WXz6p3i1sPr5VywbG1Tk4qT48xQcmXOK7nsxerdlMBs9d+sO+Ee088U49cSZ0sSq9QJrJlZUrlFRrzqqpphqzJJ4DY4FLCOIVsyqyATdXUJ0XduDqwrYnS0Vg2DANXsGlDes4glswiwzGwCzcYnK9EPbRhUGCUBT0nEMuGuBCiEXjRga+c87IhWVCEZ0wGawSDaDUOgwhaMDMrFkwdKHDbTnhD8DfIaqqEpRUKhbk5WdUyJ1Row4JYSCh25IUsvm8p7NTjGvpo+SXWSOTvv7w49p87bi6L77SpRRambnFhfvqHNjp8hsvuWyPXrlyu3Oou+S6u9U98rLlOm8Pi5FJrbqaEAl7XWz7lVtvU9/GI2olbsna3eodPKAVmXGtHt6rlosu15KLxvSxv/6SzpTJ0VXX6ayns9MFF/osqlTVaM6qUmW9FEziV0UuOaxSUUUSOBaLil2Q2tm5bU3n7jwy4uA+Ag6NWGCfBz9kAvPIUcAvOOaDPBhHxkZihn044XDtJJN/5i1XWrlZGxpBEY1STyMmZwxHhu90Ajkah4hGVusMOtEFuTjXJIdRlQD3bO6tqsqOesIC+AX5XlbNekXNeqwqsQ0aTTfNWgoqLjmEX4zk8xSLZtVwpl86+eu83vaO+7Rm4DpdMrxdl24kX+9Ol0ibbVHdG4+4QDStg8l2qPMGrn/jVpLoWm0j+9TCsDCz26Vc7dt0VCs3HtWaTcd08dhBrVi/Uz2X3qBDd75PP3zyORcSm1cmr1JWVI1UDgP5QYIfsokwL1GvzYo8cjX2EFaIRha6/a2lcqAwYhN5qEaTvHLJUI0h32LyGKapgxxgExyDUwq4fiHsU2cEXIx9OAL2Oc6Ty0hi4KdTFIhAwzRCXbpQhxLk6OhiwnEN9XY9MlxP58oBicsZBgaKw0gNNlk2mAblSDyDUCXevdiZ75dcaqM6HqJVuYwTs+VQdcbN5VChV3bny5H04P/4vq7adli9/TeoZ2C7ekf2qWt4XBdctkuvWbfLBYtkW9TL5Hppw7wX+3cjVNyFAzvVOrxXrUP71JrZp+7hSfUSi/HiW9S+ZptGrzqmP/3zL+rkqZJyXk3ThaJm8tOKYk9lZgPLecVVdvpECsuRe9BWycmdK4uYF2zrCysNhWR3rMfOzcSPCs6/0AwEGDQyGeGMUEYmiMU5yIbsb8M+cmnsG+GMRxiTeXJh3qhIm8G0KYQ41JuMEcuGgTSEQjyVGS5aI5hK6wSyEM7pKRSVz+bkE3c+CtXEBLltyhx5V0NH0qd8rujyhJHvwe1iZjgZl9QsTqt46mlVCW1VrqiQK+lsNtLTZyLd95cPauRGAuAQHnqvc89vGzuklgxRWl+eLXyxJHmp8m7P56ZbdcHADhdCrXvsoAtKRDL0tZuP6S3v/M/6yc9Clw2Fdys/IKQEw7szKuafUb1RVL3pqTnLez8e8QShJa2VVCw0VAqS3HTEe2crHZFd/IqnfGlKOW/GYRFcQob0sA0spjGNDNiHWIbp9DDQsA+JFmMfsqKLOQWbOWdIeQ65OIEQF1tHaIjfKOdCSEgDxm4U84FA1oDp4Td6KOihcJPUF5lFLBRdqpVqzI0zriU8I0NKVsWJaZAMS3O5grIzRYXlWrIKz3J87CsuTqke5FXxCspOTWnq9LQCFhBrcgnvfvizGd37wc9o4MoJ9Qzc5DIItq+/Rd14rg4dV/uGQ+oZuk09Q8fUPXR0rhxWFw6AODYSCHPO+a89c6vaMxPO4pGWZnFhk+nikjgBmjtJ4kTIXrv281wSz4Akyz3rTl3nlIX+LbjAnHsv/C3ayLSSmVTHIBNCidNmNzEIhwj5xozfpPt7dQ1PqpMk34O3zrUzoc7BPS5U94rRcfUN7VVfZqd2Hv5jfeORZ1waI9JB8f7seVWV/LJKXkF+fkrNqqda1ZPnn1UYkRyBnRC877MWGmt6OlAQJC5MjWayS4O8I6WKr5x3Vnnc+FNhK9I4BLfUgee0YcFi2Qe8gnPDPkbD+IGcYZ8jnKAeXchwzTy5qAD0CHEhivnQIQiBcPpiCIdSI401YJ3lSWDjVdPFEd007gh2DpkTXclb6KyzgoVC0llkfZ9Nk7QJUZnkYOjIHxfCE22HtTHarKpOxpUIIksk/PvWwz/S8RPv0NimN2rF6ivU1z+hVaN3q3XtMa3aeLc6NxxX79AdWukiyyau5e2ZAy6cdtcIG0sntGT9LrX073DEXDFwRH0Dh9WXSUpv5pAoy50/Ej5JlMl5J8jEd4voRQRrWbyR9fz8JlgM+c46nYPiuAuumQSAwZcq5bw5SE6rSXcv3A+lI3NQr1uXBGjtJBgrsU0GD7pYkD1jR7Vk/T53b32bjqiHGPeE5M4wHN+vnsG96rh4my7asEPrRvfolvF/r7/5wsMuxIMXSX7UEMssUSVWyQ8UMInApITvq0ak5zpBJMhoyvpR8gDP5yEEzrfMB/BqAnYS5DSJ816N3YMZfyzDNCQxchl50uRCDlyCdcM18uAcXKWxjwzGxHCNPFYvjX2+z5MLUiFg71x0hoJylKXfufjOOerSciaT1oMMhKKk9dGOyXEdcml9Vm8y/F5oN3Jj8ErVV1TxFUZsOUkmXlxW9bgxn7yP4UPJb2rqdKCvPfiw9uy9U8NXHtPSNbu1cuioiPH+mt5t6h08pNUbb1fbZfu1rH9cbRsmXMpUnswE5IRsrQMTzpmvb+Co+gaOqDdjBQ/jBWuWWLCUE6RLJUocCsIWTLpQYoQTO3+FSYUkYlMSfCZx1WGih6lyoi0lD4DEgdM9GOaIxX2xXWxp5pALnMqCL4u/bZkD6h45pO4RLBY6WNDfp+7Bveod2a++0f3qypAAY7vGrjmqm/fdq49+4kE9cdJTUJX8ilyGxiCqKKriVRGqEpYVl8suD3G9HKmO1wQ5s1JYBANpTBhmFmPMsAhuKIZXk0cneqyY3ALGEjy+VOyjb55csBQ20jhEg9WJxVjY2Y4MhRuhEzAaGWM9582SIccNmBz6EsuSTHKYHG2ajOmC9fSDOp4KFGszMbl4PufdUKHeiNSc5amUrDGQuM/3QgU+U7R1eQXe8WqqhFKlLE1PV/W5B/9JNx98lwa2HtCFfVdq6arrdMnGAy4jSWf/bnVnJtQ5gIsLGU4Oqmf4uHpH7lDX4HHnIdubOepSgZIOlELOXTxocY1f8ObFozgpybCMWUoCuuB7dv4L5LKShE4wfyrCliVD1vR7lXtAuKyMh52LT+/mE+rZeEztg5NqJf76yEGt3HxE7QN7XM6rZf03q2dwl1Zt3KfugZvVtvYGXbZ1QjsOv1uf/uy39fhTvkuERxbU6WJVM16knF9WMQgUhFiMUA2815n2rjU0W6mrHhGhaWGUAy7NYoAfcAHGADLYAmOLrQ9yYMdk0hjjfBpjpivB2Ll4XYx9kzHsc61hGlm+z5PLKugwbOViM3OAnwvsQ4eM8WkSGrnspk0Ok0pYNt7ZuElrnHpri07SHkd0oiP94TfXUp/LzSiXP6tyyIsusxzINtVosuWKAPrMMpLPuaZSUBMTIZCrHDBFmoQWeDYf6+++/ojGj9+rTTdOqPOSrVref6PWbhrXmrEDWjVyyFmzroFDLl4ECQZ6h+7U8szt6iGuwzklcfU313nzI0uCl7LrOymJ3xLet+e/EOKsdZRhqZU5yzkfmwSXj6S4oD3zIc4Ou0X4nrEjWj522A37usn8OTyuvpFxrRjeq5XDpFK6SZ3rrtfy/hu04fLd2nfbu/Sp+/9Bjz/luVS3bB/1q8m7cJEARUVfRTYhlEvyAoLBREnsFcZ3QK3adOSKygtuTGASzIBV8ADeKJAObIExsGZ4BWeGMTMEaYyhJ/1B1jBmE3OGV5MzHIJ/08nRyEWbfOc4Ty5+UOgsgE9bL+ssDdAhLqaekn5iWAN0gO/WWW6IRTtu3Dqbbiv9FIBYi8lFm6aLunye/WTTjlyNJlFGEnIRYhv9uWxehTx5aZmICcW0Lf9hkIyHY1SvKmxG8muRcmFZD333+7r7PR/SrsN36+Lhbert36budTvU3b9Pq0aOq2/oDnWtP66OdberYz2bf1mEXihsEnYbhX8j3xi+ZgtBMNmwmgzBGIadv0KbDEGXjh50xWIIciSPVbJpdiG6VhJhayECVVtmQssG9iYhpTN71Du8T2s2TegiQk+v3+ZcgdaO3qLrd5zQibv/RJ/90nd0arqqfCCdOhsl0W5jiV1JxE3xKzVlGRmVPAVlwqYT7ZZY7WwaSPxHZuO6qqWKwtKCVQJv9gAHD3znCNDBFhgDa4ZXwxi/XwhjaXKZLLoSjCXv+4ZXwz5tIkNfTCdHRlroMOyD/3ly0ZBdaIzESqAEsnET9rSwznJDNvWInDVgLOeaNFHRS2dpmI7w4chvuyl7ApkMOvhOmws3ReLzoqLIV63ORmCIzEKgJSArKXRZLisK/MgRiqBUrJMxGVRvxprJP6ez2edVV11T+byenS7ox0/+Wh//qy/rxNs+orFrD2vpyuscyXo3sK1qUqsYHg5BKt5DCDc2V1KezwDTwJomFpFmcaNgiGjDxfN1pE2i3i4dpSwmGClOIVgSwjrZsc6udYawiZcw71Psdmldu00d67e7HFkXrtyqlhWbNXz1uA7f9X599BNf0Hf/+eeaytfkMfzOhZqaDpQrhi6cuVeJFTCEa9RVLAeayk27XALEuyDXNuRq8FpBnmGIVa4o9ErKZxd2mvP/DxaMFPbQtdEPpDCMgeXFGAOjycgnsXKG6RfGGJNlC4vIhn1rCxKDVePIYuzPzGQXyGXApQMQACUULuIIuDmPHI1yExw5hww3zXe7nnN0mpuk7oX0oAvd1COHjOmwa+w3bZl8Ek8uVCXGi7mkMKKOmAcWI4GJmYojWEQ+3UpToRsixorCWNWYUG+nFPhnVa+XNJM7K4/tXH6onF/Xz58p6oH/9k/6ow98RhMnPqi1G/erpe8a9W3YrRUj505lJwEzmaxIguEYOAHrMleIHDwXyhlfJectfa6LTJKs4P/fOdKakvQgIVdCsLT1sqAxLiGCcwnB7yqJpIvbB8n51mzaq67+1+uCvi0iOfvr971V937g0/rcg9/Tz58uaLpQkx8ms7NR1JDvlRUGCTawUAVCnZNLIPIUVHyV40CVWqiowv8VSe4jN3lRYyG4TDi+knw3I5gAHDxQDA/gkd9pjBlO01hFPo0xvpuOxZg7F2O/OaHx27BPm2nsP/zwtxfIBespCAByM3HGas7TOEfk+E5HYTQfjtTBaOrt5tFjOjhyYxCTghwdtqcMTyKT5zz1VuyJhI4myfXqWNNY5dB3066Qi3DEDDESEnIP6JObnveKvBgHKgehKiVfasSarVUUh2U1sY5xTdMzBXmlqgqlus7kK3rqeU8/+cWUHnjoB3rnh/+Tdh29R5dtHXdpXAm93ZHZqa7BPeoZGRc5nF02ysH96hgaT1KvEnNxLpndsiHc1SddUr8LM6QRPeKymywbvV2tJG4bOqaWwaNaQhk6pqVk8hhOMqDwm8I1LRlkjs1lRjnuruV64um3j51QzxVvVu+Vb1XnZlLrJNegu52MMpsPz5VD6tp00LnQtw7uVcvAriSpxBDJ9/aoc5hsI3vVntmlpf3b1bLmGq0Z2a7dx96pez/4l/rMA9/SI48/q6dOlzXtNVUImvJKDUVx8vdm3+isy5ldVaNWcaHK8v60ct60ikFO5YrntidV+ftXK6rXqqrxYGWUVGYbXOiI5XbvpBZ/+b8Hd2AMPIAxww5HCjJpEoAfMEcd+EpjzLCcxhg60QGeOXLd/wv71KMPWdrEill7H/jAf/jt5LLO0IB1gJvjO8TivJnexeSiMYqRhY7wnRu1TqAHGZ5ApsduHhleKjG99seE9NSzojE7iz7WzJjVxDXAd+SCZLV64qeDXNJm5Fb2vaKnclBW5JWS5fy4qWal4V7ZqlFV+VxBRc9XtuBpKlfQjOerNBf+bboc6ke/+IW++M1H9cFP/3ftOP5+Lc9s1yt7NuqCNdeoY8N2tfXfpK7MTvUM79Hy0f3qHZvQ8tEJt97TltmTZDocvk2vzRzRH24gregxtY79O7VveZM6Ln+zSyt0QeaoLhy6TS3DC6mGWoZvF+V1maPumnQ9GVNIR3TB4DG9dgDrdEJtm+/S0tE73DnaQFf7GFZzn5ZkdqljZL9WXkGmTBaGd+jVq65VW+Zm9Y7tUffwDr129dX6g94tWr1ln/a86UN678e/oM9+7R/12JNn9Hyx6fb+eTUp6xP3hCn1WEU/VBhV1GDs7dYh6y4e+2wjUtGbUsGbUt6bUpFcAuWi4pgdFzXN8vRrzqoWV8X/TwAm3HqXp3olVn0Rxoxchh3wZBgDg3xPA93kjFwYAsMYrzVpjKEbLCYYS+TArRkCw76R1TC7uE3IePkVVy2QCzDb0wCF6Q8NUk9n6CwXG2tNLk0us17IclPU0WEKTwbq0WWkMQtoN4VO6nhB5eZpmzbRlXwgGLODkD6ZPeQI0XgSsuBoi9FYOcJso8P1q+jJywWqh8keRQsMWas0xDarfL6oQrGos9lp5cmc2ayoqqoqqihWrJmooV9ON/TPP8/qi//wY338/r/Xuz52v7YduEeta7Zq2SVXq33d9erewNrZDvUN7VTv0E71sOYzvF99V96p5Vvvcknv2sawTEdcErwlLMyOYmGOu0Idvymtowzrjqrr8jvUufmEOjbdLuo5t2TosFoG2dZ1MCmDh9w59FKPXOem41qW2av2DTera3CHekd3q290t3oGb1F7/41queQqvapnRCuGb9L142/Vm9/3Sf35/X+vr3z3CT3yxLT+9RlPz2Uj5/7BVDoZa8o1PBJit1aVLfrKM5ph1MPfv2lb2Xiyx8oXTrtSKJ6V5+cUhYGzVvMrv7NStVJVMV9UMV9wBAuDwFk/JzP3vw7mwAH/j/x/gi8waw958GNAR8YwBikMY3Oq3AFsgTEe4EbCxdjnN3WGfXSliYoi8G2Ept2//cID88RiUuP3TLlZJHsKcIRcafYac6mzggznaRxZO6KPOpODXLRlhT8W55DhRpDjD4QO+wOiC90mA2FY18JCOYvlseXEUzlkWxZDVQidlFotdk6XQSkZMgYMR4sVVUpSLZqLul2X4qjp/MXoFzqJuOoFOdVnyy77YNzw5EVnXdyGbCgXdej5Yk2nCpSGHv9VXg//yy/1wEP/og998ovadeTtWjX4Rr26I6M/aM+odfUV6hrY7oaLrZn9orTz/jZ2UB0jB7SU5OaZ/Vo2OO6OS+dk+N3Guhiu70MTqfp989dwnrWrTrx8h29V6+C4lgzsdYXrO0fJk7xdbZdep5ZVW/WqziG9sj2jiwbfqL0n3q33f/zz+qu/+7a+/oOf6UdPZXVyJtazxYZ+navqea+pGb+uvB/JK8UKoroIJETWmpidFbWGiLzsBb6CsKQwDlVlyN6sutJoVOR7pOqZUcnPqxx4qoSh6nFNzdqsZpkgZF9gVFfgBfI9X2XIEJbVcCOQhbVO/v8BMdhIlzRmwRBYMXwhl8aY4RCMIfNCGDMMIkOb4A9Zw6EZDNPFb8M++rZcfuW55Lr3j95xzqQDN2HFwI8Sm5hAmdVz5LcRiQ5RbIKCem7QOsd5k+HIdVyf1mky1h59SOtxbZLoocrwFH1MvpBIouxcFHgXozDZQSL0ao30nJSKKnFDpbCpoFyXX6rKCyoqlWNVYu7Pgj8yocOuFU9RWFSt6rt9bjyZo9qsItbL2GZF7I9SXTNerHxpVqfzsU7na3rquUA/evKMvvfoSd3/5e/pwx//vN7y7r/QDeP3avngzXrF0gG9YsmAXrdyq9ouu1FLLrlWy9bdoM71b1BH/xvUsf4N6s7cpBXDO9xkwqWXj2v1xt1aObLTDUe7NrzRyXRueKO6BrY5Ha+7aKta1lytC1ddqVf3btarujfqtSsu17K11+uanXfpjns/qvs+9WV96es/1Hcfe1qPPjGlx3+Z1b/+KqdfTZX0fK6iaZ/4kbNuTYp1qRIPHpwO66wzMurwNJPNKYeFwc0I36o6+dmqCmuxSysVVMryKyV5UUmlKFAtLqleKasehaqGFcXlWFHAbGCs0K8qwmE2rKseN1Svsi5ZUewmOpKdN4YvMLAYY4YdZMCXEcnwYzgzuReLsTT201ilPStp7MMjm4K34+/x5SMf+ajrPJ2EgWZWUQKLzexCMmSM+chyU5xHxgrM5jxy6ML80hGr54gMfwiTQxemlSeQySHDHwc96LD1DCYvsFAMEdlvyHQ8vj9s+i16ORXJbhEU3FYpFptnVXUhjhn0elGsXFDSdJH3K3I4hW61rI4zXiV26y21Sqz89IxmTp+Rl8upXCyoVglVqyYkbjTrzufTIyHFdM69d5w+W9DZXElFv64gStzTecWbKTR0aqaqn50q6dEnp/Sdx07qG9//mb76rR/rM3/7DX3gz/6L7nnff9Sb3nGfDt75bm0fv0tbbpzQhs3bdfHgdVo1cLXWb9qmDZtv0tCVO7T5hnHduOu4dh9+mw7d9R7dcc+f6u0f/KQ+9Bef16fuf0j/9Svf04Pf/JH+549/rZ8+ldcvTpX09OlIp7PsGk/Wm1gh5CGR92oKIFRYl1fGZaOqSq2hWqOpGntL41B4+nqFrEu1k8ueVS43rRI7K2qVufyiJDisy48j5cNA04Gns76nnFdMYp4x8YUPX9xUXKqrVKzIy5ZVnCnLyzHJVHevam4yhFFJLZQfJJ4RYMIwlsYF+OC3YRFsgDMIYdgxjIEfkzOMGaZND9ctxhjXgD8+yIPxNFbRhQzEu+++j/0GseDV/wHhfREbca17mwAAAABJRU5ErkJggg==;" parent="1" vertex="1">
          <mxGeometry x="-440" y="296.86" width="112.27" height="109.14" as="geometry" />
        </mxCell>
        <mxCell id="75" value="Service Catalog&lt;br&gt;(Service - Team)" style="rounded=1;whiteSpace=wrap;html=1;fillColor=#16A34A;fontColor=#FFFFFF;strokeColor=#15803D;fontSize=14;" parent="1" vertex="1">
          <mxGeometry x="-463.87" y="420" width="160" height="50" as="geometry" />
        </mxCell>
        <mxCell id="76" value="One Pipeline&lt;br&gt;(Deployment history, versioning)" style="rounded=1;whiteSpace=wrap;html=1;fillColor=#16A34A;fontColor=#FFFFFF;strokeColor=#15803D;fontSize=14;" parent="1" vertex="1">
          <mxGeometry x="-463.87" y="566" width="160" height="50" as="geometry" />
        </mxCell>
        <mxCell id="78" value="" style="shape=image;verticalLabelPosition=bottom;labelBackgroundColor=default;verticalAlign=top;aspect=fixed;imageAspect=0;image=data:image/png,iVBORw0KGgoAAAANSUhEUgAAAMkAAAA7CAYAAADRnK4XAAAJcklEQVR4Ae2XjW3cOhCEXUpKSSkpJZ2klJTiUvzwAW+CxWAoUrJOurOXgMD//ZnZ4dlvH90agUZgE4G3zd3ebAQagY8WSRdBIzBBoEUyAai3G4EWSddAIzBBoEUyAai3G4EWSddAIzBBoEUyAai3G4EWSddAIzBBoEUyAai3G4EWSddAIzBBoEUyAai3G4Elkby9vX2sfj9+/Pjg+/Xr18efP38+3t/fG+UHI/D3798pP+Ll58+f/7jhXrc5AqeLxMUkwcxD6RNHEVgRifOiOfz8/v37qOtvce/hIqlk9K/KY2rqMyKp/DyDWPgLRDHR88t3dzskEv10e1+TS2POt1DOpzyJRNxQZHzMEye+djdHX0YkWy8OIuDjjBPA/BlehvPL9F6LSSSspQY3/K/oxVi5ulMoHtcz1MuhX5ItkVRiIKSCr/GIwHq3x+sI7BFJtbr1mCGUO9q3Ewkg82pJHOpXRXYHSa/o86hIlOvoV5+Cvbp9S5EAssShfvYTygsH8ZDHh9DO+PXRnxrYhAzs8p3Z9DrLx5nxE2fFRXF/ViTYSY/ZHb8m31YkiEICoR+BT0HVcz7mHiBSiKuNsw58sotvNY+37ulM7SUMt+tz4p/Z8mLVg+Lr2BYOZ4iEfBJOHq+fYb7SiNXxUPzg4nujuWqHuPzM3gfP/Y5yeej/JALPg1Gi2k8kOwB1zn3uzNoRuxC3RySpeGusaez51zzcHrH4mmyqyFKeK/hUv4xTIUukOvssIlmJVTGnPmHKWmqXiESkqq+KTcnqnItL6/TsqUhSYgmEen80xq779ddU/tJrNrLr66P4PW4XbLWj/M8SCXm5P+Ks7VlEshJrjdvHnge4jtp4p9yoxDAeFU258m+YCKwicVKSfYohFWS188/h/3+3e8zMIRw7emWxyzjZrvdTvikvt09M8sFetck4xe8iqXdkn3jqq5diUY4Vl5Vx8l9teXGlHJIfcKi5MGaNhk99Xg/krD36GkvKO3GV4vFYtvJ4uEg8aYJToiTtwWovJebFDICpJZ9bIGADwlIhE18C3uPG51bDvsePDTCoLWHCua34U7Fs4Vj9+TgVc42ROGruW3FV28kua97c/hauyebWeflKGKdYdP5hIoGkVHQ1CS+aGeAk4ja9GBIA1acST30CnYJwkTiRI7G6D+wTSy0yj+1I/I8WSc3fc59xJgwStqx5c/uOz+w82HpNzO7MfBwSCUYBLn3seSHXoqgJOCD1xfLENMdntVcJ5Az+6z7jRIbsee/2ue8+3P5K3PKTiqVikkQys3+mSIjT86v5O2d3iyThWeMV7rX3/Gb4HhKJO1mdz4KpiYzGXsT+CrhAV0mUvxnoqYh1d7V3vCqpyf5M5I8WScXw2UQC5v4wek1UXhK+dT+NLxEJhVtfyxTI1hpFwocNJ8kB2SrALR91z4VWizj5V3yr/RapR0h8tEi28q8Cqhj6GGycG9a8JXz9jM8TZqN6c+xX4n+oSCi2CrAnl+YAxx2C94QcZOb4UEtgsba3ud+ag5OYYtq7hj+1lIP2Rv13F0kSYOWs4ubcJKHW84yXRAJxsw+i9K04roFIGJ7AynwmktGLUv372IVQAXcBrcQ4OzPLwePz+ZkiSSJlTc2xYb7SUiGnOnH79QHZ8uO8pHueWzqTfCyJJF08Yw2QPLlRQVFIfA5iLbBULJXg1ZixWeO4UyQ1v1H8Ke8jjwP2ybXmzrgWs+P/LCJZwcBrbbU2bhWJBy1yKAzI4nOyHYxaROm1qgU+KjJfVxzqq41UJMT0ma8Wob92NT+PU3PHhLhZO9ISJ9VOyr/uj8Ypxpq37rl94lltHnvlDRviU/2q3dtE4mAQOAUxI3dWRNgQCPR7QAa0mdAA/jP2Z8TM8kv3UwHOcFy1A0+1OW+r+HpeYHi2SJyb+sC4f8+r5ujjJZHgrH6uUDe6Mq+FpvHKPU+2AsF9f02wvadg0v2arxek+1/JYevMLL9012Pam7Nspty9kI+KxAuYGN02cRy1z930wIl7eFKdjXwLB++XRFKNM65F4wZX5onUVWU7iF6kybafGcXoBaq8a76JCO7tadioX73rMazEnnJWcVTbW+MkkMSJF/tKfPhN9sHAm/PLvT3N/Yg7cUm/1+bTiGSV1Jos40SSA61ziRQR4ORXPwJaZ52IFIPOep8KusZ1tUjw7fkIL4+deYp/9kjgo+Kpcc1bvpy7vQXt8cGNYzqLV7Gov0UkCbT0ailI9Q6gwNa++mRfxAM6dgCK4ucDSNnSuTp3kST72EikKyZ6JxAfnrcTuiLAZJe1USNOvhGexDW6n3zNck8ixEfCC6wr9iv51zyxWe+ncT2/Mr5FJASWgPNiVAIkns4LAJ2rPWQCsM6s9vhxXykuJxP7+GPdC4z403nueKGcJRIEgE99zPk8t4SLx19xZZxskLvfm/HmuWMbGx7T3pd/S/zs7W23icSLQcAANomIXCeEfV9LYAME66PilL/ac5aGj7qeSJoVQIqz2mTsRYVvxwU7s5YKy32tzPGVYnL/W/6wwef+4MzXE2+s+V3ucZ+6SFzsiS/59Ps+v00kBLKngAEOsFJxzogFWAB2cckmcVTwnMwRMdzZm4N8jmK+QyTkO8rRC0bzPXljn+a4Vsxll37LNnsrLXHN2pF2q0gIOBW9vyTMKzgOwKjgEiD449u64/5HZMo++14AboM5Z2oeul/7K0RCHIplC4caVxpvFbPyr/k6RiNcWR/ZrvZSTFpzHIln70MgW0siAcj6jZKT0SM9NkkCEHj1659cbo+zj4ongev+R3PFhQ39cpEP32oxyobyYz5rfkd3vZ/ZObKP78obD5hydnt743Hbe3D8DI8e95JI/NIzzx0cXq89zX+lKPZur4fAmTx+OZHw+uinXv1qofPS6Y561rq9FgL+UMIldXG0fTmRAASiUJGr56d6qyVg9/4KbdnvvWsQSA/d6iM5ivBLioRXw/9JRCysIQaA5Aw94kmi4nz/iozK5nnW4ZMPHvUgev+ZXxEy/ZIiIbGRUBzA0bwF8jxCGEUCxyP+tH4Gj19WJBKK/wMn8EY9vzZnADsittfPQ2AmkrN4/NIiER2AORML4pj93yJ73T8HAkkkj+DxW4jkOSjtKF4VgRbJqzLXcV+GQIvkMqjb0asi0CJ5VeY67ssQaJFcBnU7elUEWiSvylzHfRkCLZLLoG5Hr4pAi+RVmeu4L0OgRXIZ1O3oVRH4D6PX/hX0xB7oAAAAAElFTkSuQmCC;" parent="1" vertex="1">
          <mxGeometry x="-460" y="651" width="160" height="46.97" as="geometry" />
        </mxCell>
        <mxCell id="79" value="Pager Duty&lt;br&gt;(Incidents, status, service,time)" style="rounded=1;whiteSpace=wrap;html=1;fillColor=#16A34A;fontColor=#FFFFFF;strokeColor=#15803D;fontSize=14;" parent="1" vertex="1">
          <mxGeometry x="-460" y="711" width="160" height="50" as="geometry" />
        </mxCell>
        <mxCell id="80" value="AWS" style="shape=umlFrame;whiteSpace=wrap;html=1;pointerEvents=0;dashed=1;strokeWidth=2;strokeColor=#FF9999;" parent="1" vertex="1">
          <mxGeometry x="-1390" y="100" width="730" height="681" as="geometry" />
        </mxCell>
        <mxCell id="85" style="edgeStyle=orthogonalEdgeStyle;rounded=0;orthogonalLoop=1;jettySize=auto;html=1;" parent="1" edge="1">
          <mxGeometry relative="1" as="geometry">
            <mxPoint x="-498" y="518" as="sourcePoint" />
            <mxPoint x="-942" y="518" as="targetPoint" />
            <Array as="points">
              <mxPoint x="-610" y="518" />
              <mxPoint x="-610" y="518" />
            </Array>
          </mxGeometry>
        </mxCell>
        <mxCell id="99" value="Data" style="edgeLabel;html=1;align=center;verticalAlign=middle;resizable=0;points=[];" parent="85" vertex="1" connectable="0">
          <mxGeometry x="0.1667" y="-1" relative="1" as="geometry">
            <mxPoint as="offset" />
          </mxGeometry>
        </mxCell>
        <mxCell id="82" value="Data Source" style="shape=umlFrame;whiteSpace=wrap;html=1;pointerEvents=0;strokeWidth=2;dashed=1;strokeColor=#FF9999;" parent="1" vertex="1">
          <mxGeometry x="-498" y="104" width="238" height="682" as="geometry" />
        </mxCell>
        <mxCell id="84" style="edgeStyle=orthogonalEdgeStyle;rounded=0;orthogonalLoop=1;jettySize=auto;html=1;entryX=-0.007;entryY=0.61;entryDx=0;entryDy=0;entryPerimeter=0;exitX=1;exitY=0.75;exitDx=0;exitDy=0;exitPerimeter=0;" parent="1" edge="1">
          <mxGeometry relative="1" as="geometry">
            <mxPoint x="-942" y="487.4999999999998" as="sourcePoint" />
            <mxPoint x="-499.66600000000017" y="488.01999999999975" as="targetPoint" />
          </mxGeometry>
        </mxCell>
        <mxCell id="100" value="HTTPS" style="edgeLabel;html=1;align=center;verticalAlign=middle;resizable=0;points=[];" parent="84" vertex="1" connectable="0">
          <mxGeometry x="-0.1374" y="4" relative="1" as="geometry">
            <mxPoint as="offset" />
          </mxGeometry>
        </mxCell>
        <mxCell id="90" style="edgeStyle=orthogonalEdgeStyle;rounded=0;orthogonalLoop=1;jettySize=auto;html=1;entryX=0;entryY=0.5;entryDx=0;entryDy=0;entryPerimeter=0;" parent="1" source="35" target="36" edge="1">
          <mxGeometry relative="1" as="geometry" />
        </mxCell>
        <mxCell id="93" value="Resolver (VTL/JS)" style="edgeLabel;html=1;align=center;verticalAlign=middle;resizable=0;points=[];" parent="90" vertex="1" connectable="0">
          <mxGeometry x="-0.2239" y="2" relative="1" as="geometry">
            <mxPoint x="12" y="2" as="offset" />
          </mxGeometry>
        </mxCell>
      </root>
    </mxGraphModel>
  </diagram>
</mxfile>
